<?xml version="1.0" encoding="UTF-8" standalone="no"?>
<!-- Created with Inkscape (http://www.inkscape.org/) -->

<svg
   version="1.1"
   id="svg2"
   width="400"
   height="225"
   viewBox="0 0 400.00001 225.00001"
   xmlns="http://www.w3.org/2000/svg"
   xmlns:svg="http://www.w3.org/2000/svg">
  <defs
     id="defs6" />
  <g
     id="g10"
     transform="matrix(1.3333333,0,0,-1.3333333,0,1050.9655)">
    <path
       d="m 182.68278,728.66426 c -8.54643,3.20878 -17.05423,6.52311 -25.50662,9.97032 -2.40816,0.98337 -3.57891,0.628 -4.07371,-1.98086 -0.19157,-1.01244 -0.85425,-1.94221 0.52559,-2.58341 0.94396,-0.43896 0.91059,-1.17339 0.68554,-2.07322 -1.42289,-5.70689 -2.08825,-6.07457 -7.58578,-4.03738 -0.1925,0.0712 -0.38057,0.15746 -0.57482,0.2225 -5.99758,1.99143 -6.00201,1.9923 -3.71775,7.62528 0.1512,0.37212 0.40961,0.70285 0.63013,1.04501 0.33927,0.52421 0.67947,1.08717 1.44236,0.66321 1.10206,-0.6113 1.78235,-0.19967 2.05488,0.91565 0.30322,1.23673 1.74022,2.89305 0.58883,3.64511 -2.14985,1.40383 -1.10124,2.68365 -0.5774,4.16138 0.64949,1.83223 1.2682,3.67676 1.901,5.51599 2.93117,5.73235 7.00046,10.22364 13.20908,12.53961 1.66719,0.62192 3.27301,1.27982 4.26528,-0.63244 0.90966,-1.75212 -0.68823,-2.60011 -1.90543,-3.3099 -3.75556,-2.18846 -5.20225,-5.54944 -5.25766,-9.73546 -0.0246,-1.81377 0.86836,-2.96866 2.41001,-3.57033 8.23435,-3.21496 16.48992,-6.37185 24.73837,-9.54986 0.006,0.28413 0.0221,0.56734 0.0221,0.85323 0,19.87462 -16.09884,35.98543 -35.95765,35.98543 -19.85789,0 -35.95591,-16.11081 -35.95591,-35.98543 0,-17.77852 12.88556,-32.53565 29.81856,-35.45154 -0.004,0.10205 -0.009,0.20409 -0.0229,0.32016 -0.203,1.65895 1.46338,12.44467 -2.31412,12.29686 -0.60386,-0.0237 -1.36326,0.0123 -1.30434,0.87436 0.0545,0.80216 0.79801,0.81803 1.41156,0.82592 3.14376,0.0387 2.99348,0.0502 5.85606,0.0141 0.69873,-0.01 1.64887,0.11962 1.6945,-0.84792 0.0502,-1.05027 -0.93603,-0.87787 -1.61097,-0.88313 -3.32575,-0.0282 -1.76402,-10.47958 -2.03994,-11.99339 -0.0615,-0.33686 -0.0607,-0.60956 -0.0291,-0.84967 1.47398,-0.18472 2.97247,-0.29028 4.49651,-0.29028 16.12428,0 29.76923,10.62122 34.33073,25.25429 -0.2645,0.38263 -0.79101,0.72392 -1.64701,1.04584 v 0 z"
       style="fill:#ea2026;fill-opacity:1;fill-rule:evenodd;stroke:none;stroke-width:0.289805"
       id="path1603" />
    <text
       xml:space="preserve"
       style="font-weight:bold;font-size:36px;line-height:1.25;font-family:'MT Extra';-inkscape-font-specification:'MT Extra Bold';stroke-width:0.75"
       x="29.545898"
       y="-649.93921"
       id="text2458"
       transform="scale(1,-1)"><tspan
         id="tspan2456"
         style="font-style:normal;font-variant:normal;font-weight:bold;font-stretch:normal;font-size:36px;font-family:Roboto;-inkscape-font-specification:'Roboto Bold';stroke-width:0.75"
         x="29.545898"
         y="-649.93921">Project Gallery</tspan></text>
  </g>
</svg>
