<?xml version="1.0" encoding="UTF-8"?>
<svg fill="#ffffff" version="1.1" viewBox="0 0 24 24" xmlns="http://www.w3.org/2000/svg">
<path d="m15.914 1.8024c-3.7604 0.00938-6.8586 2.9545-7.0584 6.7096-0.056504-0.016071-0.043531-0.00541 0 0.022137v0.00553c-2.6927 0.93985-4.6848 1.6247-7.2245 2.5189 2.6938 0.84227 6.0786 1.9303 9.6271 3.0226 0.20028-0.26764 0.40993-0.50977 0.59789-0.79718 0.23517 0.16282 0.46478 0.35893 0.72521 0.50378-0.30931 0.4553-0.62542 0.92834-0.93005 1.3674-3.9175-1.2089-7.3704-2.3156-10.651-3.3327 1.2019 3.4508 2.4039 6.9027 3.6095 10.352l0.027692-0.0055c0.010856 0.03033 0.014285 0.03348 0.044288 0.02214 5.6-1.9675 11.463-4.0155 16.874-5.929-0.28392-0.83486-0.48675-1.4552-0.75843-2.2421 7e-6 -4.4e-5 -0.01653-0.0054-0.01661-0.0055 1.4107-1.3327 2.2132-3.1857 2.2199-5.1263 0-3.9135-3.1725-7.0861-7.0861-7.0861zm-0.17715 1.4781c0.89958-0.024234 1.8306 0.1622 2.7846 0.56467 1.3827 0.58333 2.3293 1.447 2.84 2.5853 0.51581 1.1362 0.52074 2.2982 0.01661 3.4932-0.44169 1.047-1.1747 1.8254-2.1978 2.3251-1.0216 0.49612-2.0279 0.53357-3.0171 0.11626-0.5668-0.23912-0.81822-0.58905-0.75289-1.0463-0.5888 0.23641-1.1717 0.23262-1.7494-0.01107-0.61734-0.26044-1.0241-0.68182-1.2235-1.2677-0.19935-0.58593-0.1525-1.2259 0.1384-1.9155 0.36706-0.87006 0.97946-1.5602 1.8435-2.076 0.86555-0.51942 1.7258-0.6015 2.5742-0.24358 0.64984 0.27415 1.0226 0.71733 1.1238 1.3342l0.38752-0.54253 1.4338 0.60342-2.458 3.5375c-0.15564 0.22778-0.24634 0.38175-0.2768 0.45395-0.07463 0.1769-0.04115 0.2949 0.09965 0.3543 0.1769 0.07463 0.46288 0.05883 0.86361-0.04429 0.40587-0.1052 0.8244-0.3317 1.2567-0.68093 0.43227-0.34923 0.76152-0.7924 0.9854-1.3231 0.35792-0.8484 0.35498-1.7115-0.0055-2.5908-0.35903-0.88292-1.1376-1.5759-2.3362-2.0815-0.88089-0.37163-1.7369-0.52984-2.5742-0.47056-0.83368 0.060808-1.6014 0.38445-2.303 0.9688-0.69643 0.58226-1.2244 1.2938-1.5778 2.1314-0.48281 1.1444-0.4784 2.2379 0.0055 3.2884 0.48602 1.0556 1.4592 1.8935 2.9285 2.5133 1.751 0.73868 3.202 0.78841 4.3457 0.14394l1.1515 0.48717c-0.70597 0.62502-1.5675 0.97132-2.5853 1.0352-1.0142 0.06543-2.0595-0.13142-3.1389-0.58682-1.9098-0.8057-3.1547-1.8683-3.7312-3.1832-0.57803-1.3113-0.55498-2.7012 0.06643-4.1741 0.44016-1.0433 1.0779-1.892 1.9155-2.5466 0.84112-0.65305 1.769-1.0305 2.7846-1.1293 0.1274-0.01216 0.25347-0.018679 0.38198-0.022137zm0.4152 3.4489c-0.31831 0.014229-0.64071 0.14884-0.97433 0.40413-0.52867 0.40637-0.94652 0.96643-1.2511 1.6885-0.15078 0.35741-0.18421 0.68734-0.09965 0.99094 0.08608 0.29999 0.26839 0.51078 0.5536 0.6311 0.50904 0.21475 1.0388 0.10711 1.5833-0.32662 0.5496-0.43582 0.9619-0.97582 1.2345-1.622 0.14012-0.33214 0.17876-0.65878 0.11626-0.97433-0.06098-0.31916-0.26214-0.55035-0.59789-0.692-0.18547-0.078247-0.37368-0.10818-0.56467-0.099648z"/>
</svg>
