<?xml version="1.0" encoding="UTF-8" standalone="no"?>
<!-- Created with Inkscape (http://www.inkscape.org/) -->

<svg
   version="1.1"
   id="svg2"
   width="128"
   height="128"
   viewBox="0 0 128 128"
   sodipodi:docname="favicon.svg"
   inkscape:version="1.2.2 (732a01da63, 2022-12-09)"
   xmlns:inkscape="http://www.inkscape.org/namespaces/inkscape"
   xmlns:sodipodi="http://sodipodi.sourceforge.net/DTD/sodipodi-0.dtd"
   xmlns="http://www.w3.org/2000/svg"
   xmlns:svg="http://www.w3.org/2000/svg">
  <defs
     id="defs6" />
  <sodipodi:namedview
     id="namedview4"
     pagecolor="#ffffff"
     bordercolor="#666666"
     borderopacity="1.0"
     inkscape:showpageshadow="2"
     inkscape:pageopacity="0.0"
     inkscape:pagecheckerboard="true"
     inkscape:deskcolor="#d1d1d1"
     showgrid="false"
     inkscape:zoom="3.2541509"
     inkscape:cx="104.32829"
     inkscape:cy="54.392069"
     inkscape:window-width="1920"
     inkscape:window-height="1009"
     inkscape:window-x="-8"
     inkscape:window-y="-8"
     inkscape:window-maximized="1"
     inkscape:current-layer="g10" />
  <g
     id="g10"
     inkscape:groupmode="layer"
     inkscape:label="Page 1"
     transform="matrix(1.3333333,0,0,-1.3333333,-730.31077,1225.3454)">
    <circle
       style="fill:#333333;stroke-width:0.648196;stroke-linecap:round;paint-order:stroke fill markers"
       id="path5533"
       cx="595.73309"
       cy="-871.00909"
       transform="scale(1,-1)"
       r="48" />
    <circle
       style="fill:#f9f9f9;stroke-width:1.09412;stroke-linecap:round;paint-order:stroke fill markers"
       id="path5760"
       cx="595.73309"
       cy="-871.00909"
       transform="scale(1,-1)"
       r="42.580647" />
    <path
       d="m 634.4369,859.5401 c -10.12088,3.7999 -20.19601,7.7248 -30.20545,11.80704 -2.8518,1.16452 -4.23819,0.74369 -4.82414,-2.34578 -0.22685,-1.19894 -1.01163,-2.29999 0.62237,-3.05931 1.11785,-0.51982 1.07838,-1.38956 0.8119,-2.45514 -1.6851,-6.75821 -2.47301,-7.19362 -8.98324,-4.78114 -0.228,0.0844 -0.45073,0.18646 -0.68071,0.26348 -7.10243,2.35828 -7.10771,2.35932 -4.40267,9.03001 0.17906,0.44066 0.4851,0.83231 0.74622,1.23751 0.40179,0.62078 0.80465,1.28745 1.70809,0.78539 1.30505,-0.72393 2.11069,-0.23645 2.43337,1.08432 0.3591,1.46456 2.06084,3.42601 0.69736,4.31661 -2.54594,1.66244 -1.30416,3.17803 -0.68376,4.92798 0.76913,2.16976 1.50183,4.35409 2.25118,6.53214 3.47113,6.78836 8.29008,12.10703 15.64244,14.84964 1.97432,0.73649 3.87597,1.51558 5.05099,-0.74895 1.07722,-2.0749 -0.81503,-3.07909 -2.25646,-3.91965 -4.4474,-2.59161 -6.1606,-6.57174 -6.22619,-11.52891 -0.0295,-2.14789 1.02836,-3.51554 2.85395,-4.22805 9.75129,-3.80722 19.52772,-7.54566 29.29565,-11.30913 0.009,0.33649 0.026,0.67187 0.026,1.01043 0,23.53588 -19.06455,42.6146 -42.58168,42.6146 -23.51607,0 -42.57962,-19.07872 -42.57962,-42.6146 0,-21.05365 15.25927,-38.52933 35.31163,-41.98237 -0.009,0.12085 -0.0107,0.24169 -0.0268,0.37914 -0.24036,1.96455 1.73297,14.73721 -2.7404,14.56216 -0.71516,-0.0281 -1.6144,0.0146 -1.5446,1.03544 0.0644,0.94992 0.94497,0.96873 1.67158,0.97807 3.72285,0.0458 3.54496,0.0594 6.93483,0.0166 0.82747,-0.0115 1.95266,0.14166 2.00662,-1.00412 0.0591,-1.24376 -1.10845,-1.0396 -1.90774,-1.04582 -3.93832,-0.0333 -2.08894,-12.41012 -2.41574,-14.2028 -0.0725,-0.39891 -0.0716,-0.72184 -0.034,-1.0062 1.74559,-0.21874 3.52008,-0.34374 5.3249,-0.34374 19.09461,0 35.2532,12.57783 40.65507,29.9066 -0.3132,0.45311 -0.93673,0.85727 -1.95043,1.23849 v 0 z"
       style="fill:#ea2026;fill-opacity:1;fill-rule:evenodd;stroke:none;stroke-width:0.343193"
       id="path14" />
  </g>
</svg>
