<?xml version="1.0" encoding="UTF-8" standalone="no"?>
<!-- Created with Inkscape (http://www.inkscape.org/) -->

<svg
   version="1.1"
   id="svg2"
   width="620"
   height="500"
   viewBox="0 0 620.00002 500.00002"
   sodipodi:docname="graphicslogo.svg"
   inkscape:version="1.2.2 (732a01da63, 2022-12-09)"
   xmlns:inkscape="http://www.inkscape.org/namespaces/inkscape"
   xmlns:sodipodi="http://sodipodi.sourceforge.net/DTD/sodipodi-0.dtd"
   xmlns="http://www.w3.org/2000/svg"
   xmlns:svg="http://www.w3.org/2000/svg">
  <defs
     id="defs6" />
  <sodipodi:namedview
     id="namedview4"
     pagecolor="#ffffff"
     bordercolor="#666666"
     borderopacity="1.0"
     inkscape:showpageshadow="2"
     inkscape:pageopacity="0.0"
     inkscape:pagecheckerboard="true"
     inkscape:deskcolor="#d1d1d1"
     showgrid="false"
     inkscape:zoom="0.81353772"
     inkscape:cx="-121.07613"
     inkscape:cy="484.30453"
     inkscape:window-width="1920"
     inkscape:window-height="1009"
     inkscape:window-x="-8"
     inkscape:window-y="-8"
     inkscape:window-maximized="1"
     inkscape:current-layer="g10">
    <inkscape:page
       x="0"
       y="0"
       id="page8"
       width="620"
       height="500.00003"
       inkscape:export-filename="logo.svg"
       inkscape:export-xdpi="96"
       inkscape:export-ydpi="96" />
  </sodipodi:namedview>
  <g
     id="g10"
     inkscape:groupmode="layer"
     inkscape:label="Page 1"
     transform="matrix(1.3333333,0,0,-1.3333333,-730.31078,1225.3454)">
    <g
       id="g2374"
       transform="matrix(0.47537349,0,0,0.47575301,547.7331,544.00908)">
      <path
         d="m 195.65165,689.69672 c 0,-32.80609 -0.0576,-62.05944 0.0576,-91.30959 0.0181,-4.98788 -1.6746,-8.40712 -5.84651,-11.38033 -14.35353,-10.2305 -28.50369,-20.74615 -42.59946,-31.32864 -5.93148,-4.45084 -9.65115,-5.77967 -9.57506,4.1049 0.20621,26.75638 0.14861,53.51277 0.0302,80.27219 -0.0242,4.84833 0.96174,8.80763 5.13329,11.77781 16.6809,11.8779 33.28856,23.85589 52.79992,37.86366 v 0 z"
         style="fill:#ea2026;fill-opacity:1;fill-rule:evenodd;stroke:none"
         id="path12" />
      <path
         d="m 454.66017,257.40178 c -29.50205,11.0678 -58.87077,22.49967 -88.04822,34.38984 -8.31289,3.39186 -12.35432,2.16613 -14.06234,-6.83242 -0.66131,-3.49212 -2.94885,-6.6991 1.81432,-8.91074 3.25853,-1.51407 3.14334,-4.0473 2.36648,-7.15099 -4.91179,-19.68433 -7.20858,-20.95254 -26.18592,-13.92581 -0.66451,0.24567 -1.31373,0.54308 -1.98428,0.76743 -20.70348,6.86887 -20.71877,6.87189 -12.83359,26.3013 0.52193,1.2835 1.41399,2.42425 2.1752,3.60447 1.17115,1.8081 2.3455,3.74989 4.97899,2.28755 3.80428,-2.10854 6.15263,-0.68869 7.09339,3.15826 1.04671,4.26578 6.00721,9.97879 2.03263,12.57281 -7.4212,4.84211 -3.80144,9.2565 -1.99316,14.35353 2.24203,6.31974 4.37777,12.68196 6.56221,19.02587 10.11833,19.77215 24.16539,35.26359 45.59738,43.25188 5.75513,2.14515 11.29837,4.41439 14.72365,-2.18142 3.14013,-6.04348 -2.37573,-8.96834 -6.57751,-11.41659 -12.96408,-7.54848 -17.958,-19.14124 -18.14928,-33.57975 -0.085,-6.25609 2.99756,-10.23957 8.3193,-12.31486 28.42476,-11.08913 56.92277,-21.97792 85.39624,-32.9396 0.0213,0.98005 0.0761,1.9569 0.0761,2.94299 0,68.55197 -55.57278,124.12173 -124.12493,124.12173 -68.54894,0 -124.11888,-55.56976 -124.11888,-124.12173 0,-61.32205 44.48062,-112.22267 102.93293,-122.28021 -0.0153,0.35199 -0.0306,0.70397 -0.0789,1.10431 -0.70077,5.72207 5.05152,42.92443 -7.98829,42.41458 -2.08453,-0.0818 -4.70594,0.0425 -4.50257,3.01587 0.18808,2.76682 2.75473,2.82157 4.87269,2.84877 10.85217,0.13351 10.33343,0.17297 20.21497,0.0485 2.41199,-0.0333 5.69185,0.4126 5.84936,-2.92468 0.17315,-3.62261 -3.23116,-3.02796 -5.56101,-3.0461 -11.48041,-0.0971 -6.08935,-36.14639 -7.04184,-41.36786 -0.21226,-1.16191 -0.20942,-2.10249 -0.10026,-2.93072 5.08814,-0.63713 10.2609,-1.00121 15.52183,-1.00121 55.6606,0 102.76263,36.63491 118.50881,87.10764 -0.91302,1.31977 -2.73055,2.49696 -5.68545,3.60732 v 0 z"
         style="fill:#ea2026;fill-opacity:1;fill-rule:evenodd;stroke:none"
         id="path14" />
      <path
         d="m 536.84944,754.8083 c 82.00154,-60.02059 164.50972,-119.35251 250.97401,-181.90331 -17.76352,0 -31.2858,0.006 -44.80808,0 -57.41163,-0.0213 -57.12933,0.36408 -103.19994,33.84979 -46.38881,33.71005 -93.52745,66.38566 -140.01653,99.95332 -6.82033,4.92708 -11.19526,3.64073 -17.25723,-0.57954 -47.50236,-33.08519 -95.18392,-65.90337 -142.81997,-98.79745 -43.43711,-29.99661 -86.72241,-60.21775 -130.44431,-89.79268 -9.54484,-6.45609 -14.01399,-12.79111 -13.92297,-25.32125 0.7221,-101.07594 0.19413,-202.16095 0.67055,-303.23991 0.0608,-12.36037 -1.51105,-18.75584 -14.48117,-17.25706 h -29.07434 c -15.92822,-0.0213 -13.6524,3.74082 -13.90448,12.08412 -0.26701,8.79838 -0.45794,21.89295 -0.79499,31.10412 -0.55215,15.14834 -0.42167,30.34237 -0.009,45.49693 0.19413,7.07224 -1.8961,9.82395 -9.33258,9.65098 -18.69824,-0.43679 -37.423501,-0.51269 -56.115695,-0.003 -8.850118,0.23982 -11.250018,-3.27968 -11.119534,-11.58653 0.385406,-24.76927 -0.20017,-49.5565 0.31572,-74.32258 0.178837,-8.64372 -2.515095,-11.56858 -11.131622,-11.0982 l -34.866272,-0.0668 C 5.493048,172.24801 3.967068,176.72302 4.000488,185.38204 4.2643,257.6839 4.267322,329.99198 3.9852,402.29703 c -0.036443,8.75288 1.689885,13.40407 11.58067,12.27842 l 41.586346,-0.69775 c 5.309288,1.0133 3.288751,-15.67347 3.288751,-15.67347 0,0 0.166748,-56.80455 -0.376162,-71.9561 -0.291544,-8.17352 1.60171,-11.7323 10.718839,-11.41676 19.189596,0.6645 38.427896,0.47944 57.632786,0.0455 7.32698,-0.16675 9.4204,2.26639 9.36885,9.49933 -0.30043,43.48245 -0.12728,86.96809 -0.2215,130.45356 -0.006,2.79437 1.41398,6.38053 -1.76277,8.23112 -3.5739,2.08133 -5.62466,-1.48652 -7.48769,-3.38279 -16.66561,-16.95983 -36.431538,-20.15454 -60.159965,-20.49123 -19.344612,-0.2791 -38.916769,0.3518 -63.036469,0.3518 24.304937,17.6606 44.735369,32.66957 65.332906,47.44495 C 190.2453,572.91406 310.00739,658.88699 429.9725,744.5778 c 19.94512,14.2474 60.9034,43.64635 61.79545,43.64635 1.12884,0 30.76422,-22.93664 45.08149,-33.41585 z"
         style="fill:#000000;fill-opacity:1;fill-rule:evenodd;stroke:none"
         id="path16" />
      <path
         d="m 543.73626,346.41796 c 0,-53.08187 -0.35483,-106.16995 0.28514,-159.24275 0.13653,-11.37126 -2.71846,-15.39118 -14.30802,-16.22261 l -40.96752,2.71846 c -4.6935,11.52592 -2.54248,28.82866 -2.61216,42.79377 l -0.37012,184.80985 c -0.10631,12.56676 3.82277,14.78142 20.15773,12.87306 l 57.16561,0.40656 c 14.75387,1.65664 19.11991,-3.75895 21.80495,-15.26372 l 33.64339,-124.33416 c 0,0 18.30679,94.01899 31.91084,126.51558 2.26657,5.41258 3.30724,14.23532 15.54317,14.32011 15.53073,0.10631 45.04202,1.38963 67.22918,0.006 20.09978,-1.25311 16.5138,-17.22986 16.52269,-24.16539 0.0121,-5.68563 -0.35803,-11.43508 -0.32746,-17.25723 0.31537,-62.18975 -0.2247,-124.38874 0.4519,-186.57245 0.14861,-13.65276 -4.52675,-16.43486 -19.05023,-14.39317 l -25.08766,-0.0516 c -13.84084,-2.14497 -16.41069,2.37253 -16.31647,13.41313 0.443,53.43385 0.20621,106.87072 -2.63633,160.78402 -6.37449,-26.64102 -33.30065,-135.40197 -39.9937,-163.23849 -1.93272,-8.04002 -5.38218,-11.26193 -14.27176,-11.35917 -42.46613,-0.46718 -42.26276,-0.72495 -52.18057,40.34853 -10.14571,41.98686 -33.43433,131.06046 -34.58415,133.69093 -0.67055,-0.19111 -1.3379,-0.38541 -2.00845,-0.57953 v 0 z"
         style="fill:#000000;fill-opacity:1;fill-rule:evenodd;stroke:none"
         id="path18" />
      <path
         d="m 780.38447,295.11984 -0.19732,107.6202 c -0.13333,9.26859 2.42123,12.00838 11.81746,11.93852 56.58607,-0.41865 113.18423,-0.44905 169.7703,0.0183 10.16704,0.0818 12.58508,-3.122 12.60605,-12.90346 0.10027,-38.27928 0.44621,-38.27928 -38.34897,-38.27928 l -71.24003,0.20319 c 0,0 -12.15096,-1.62304 -12.10545,-11.45605 0.12444,-28.16113 -0.40674,-28.16416 26.9898,-28.16718 l 74.27102,0.15466 c 7.87025,0.13351 11.39579,-0.9708 11.56538,-10.3457 0.69189,-38.14578 1.07409,-38.13973 -36.90476,-38.13973 l -63.65813,0.16675 c 0,0 -12.19362,-1.31977 -12.2754,-11.31651 -0.28514,-36.48327 -0.73739,-36.48025 35.66108,-36.48025 25.7671,0 77.30165,0.19413 77.30165,0.19413 9.23233,0.20639 12.59716,-2.31493 11.86582,-11.8475 l -0.0484,-33.32785 c 0.43056,-8.24641 -2.94316,-10.1546 -10.61573,-10.12135 0,0 -117.22566,0.31856 -175.83547,-0.0455 -9.03536,-0.0576 -10.78569,11.48058 -10.78569,11.48058 l 0.16675,110.65403 v 0 z"
         style="fill:#000000;fill-opacity:1;fill-rule:evenodd;stroke:none"
         id="path20" />
      <path
         d="m 734.63244,543.22073 c 2.03582,8.82274 6.03743,10.94034 14.47797,10.92523 23.95917,-0.0455 23.87704,0.30647 30.95834,-22.85469 l 13.88031,-42.96673 10.78284,55.43625 c 1.98392,9.64493 4.72087,17.45421 31.16171,9.99994 6.45591,-1.81735 2.82157,-15.95258 2.82157,-15.95258 l -19.25679,-93.06934 c -2.15386,-11.78688 -2.60896,-15.41855 -7.6363,-15.41855 h -27.96683 c -8.06117,-0.1456 -9.23232,4.22027 -11.8779,17.01137 -4.05032,19.59936 -16.33496,60.3301 -16.33496,60.3301 l -17.68175,-63.91626 c -2.20257,-9.75408 -5.84331,-13.01261 -15.89195,-12.85173 -27.46303,0.44301 -27.11709,0.0365 -32.5206,27.39655 -5.53719,28.02762 -11.70191,55.93383 -17.93667,83.81586 -1.91458,8.55573 -2.48807,13.50397 9.49009,13.14896 22.55124,-0.66735 22.63337,0.14275 27.3905,-21.59856 3.00645,-13.73774 9.83283,-41.21925 9.83283,-41.21925 z"
         style="fill:#000000;fill-opacity:1;fill-rule:evenodd;stroke:none"
         id="path22" />
      <path
         d="m 889.24249,492.72987 c 0,0 -0.45189,-33.82241 0.18523,-50.70028 0.3367,-8.89865 -1.60526,-12.25406 -11.4868,-12.157 -24.78723,0.2487 -24.79043,-0.33687 -24.79043,24.27756 0.003,28.28255 0.55251,56.58323 -0.25777,84.84444 -0.33669,11.54405 2.37253,15.38211 14.68739,15.41536 14.836,0.0395 23.68007,-2.93375 32.49961,-17.38754 10.70391,-17.53615 35.2515,-51.12195 35.2515,-51.12195 l -0.20941,55.22382 c -0.42487,9.65098 0.74023,13.28869 12.33299,12.87306 h 9.07447 c 12.32695,0.41563 15.56415,-2.19351 15.20007,-14.58108 l -0.12728,-98.47587 c 0.12444,-8.59217 -2.4607,-10.29414 -10.8799,-11.21339 -17.90005,-1.95388 -30.3454,2.91259 -39.3804,19.3807 l -29.13797,43.84367 z"
         style="fill:#000000;fill-opacity:1;fill-rule:evenodd;stroke:none"
         id="path24" />
      <path
         d="m 578.44485,489.84145 c 0.42772,-4.44781 0.70397,-8.46168 1.21062,-12.44516 1.6202,-12.65778 9.26574,-19.74193 21.48318,-21.31662 13.22825,-1.70802 22.84883,4.40533 26.47747,17.02951 3.33711,11.61409 3.39186,23.95313 0.24853,35.71868 -3.87113,14.48099 -19.08934,21.15876 -33.29141,15.90102 -17.43607,-6.45626 -14.8904,-21.64727 -16.12839,-34.88743 z m 89.52265,2.2056 c -0.009,-42.25672 -21.44693,-64.49561 -62.34761,-64.67764 -42.31147,-0.19111 -67.05923,23.65269 -66.8804,64.44103 0.17315,39.36546 26.47143,65.2602 65.97341,64.43801 40.51529,-0.84334 65.44828,-25.03006 63.2546,-64.2014 z"
         style="fill:#000000;fill-opacity:1;fill-rule:evenodd;stroke:none"
         id="path26" />
      <path
         d="m 453.74963,491.80137 c 0,-8.54062 -0.0274,-17.08106 0.0153,-25.62168 0.0149,-3.46172 -0.35518,-6.90833 3.99272,-8.69226 10.40632,-4.26275 26.46787,1.59282 30.73685,12.22385 5.64598,14.06234 5.40955,28.56449 0.021,42.63287 -4.99676,13.04906 -16.90809,13.24318 -27.92736,12.32695 -8.16143,-0.67659 -7.41195,-11.981 -6.93873,-15.73089 0.12764,-1.01045 0.17315,-2.02978 0.16995,-3.04912 l -0.0697,-14.08972 v 0 z m -37.50562,0.11217 c 0,17.64851 0.16994,35.29701 -0.10027,52.9425 -0.091,6.0497 1.12884,9.50235 8.18277,9.14735 22.07801,-1.11356 44.26837,1.83245 66.29162,-2.2664 18.78001,-3.49212 34.87534,-19.5478 37.56927,-38.27928 2.16631,-15.03937 2.28755,-30.06345 0.003,-45.11793 -2.87028,-18.91654 -21.89917,-36.44363 -43.46129,-37.69975 -20.10298,-1.17116 -40.3272,-0.13351 -60.48493,-0.62807 -7.11152,-0.17599 -8.22508,2.84895 -8.11273,8.95927 0.31573,17.64246 0.11236,35.29399 0.11236,52.94231 v 0 z"
         style="fill:#000000;fill-opacity:1;fill-rule:evenodd;stroke:none"
         id="path28" />
      <path
         d="m 0,125.90877 h 978.17826 v 4.54832 H 0 Z"
         style="fill:#000000;fill-opacity:1;fill-rule:evenodd;stroke:none"
         id="path30" />
      <path
         d="M 0,0 H 978.17826 V 4.548321 H 0 Z"
         style="fill:#000000;fill-opacity:1;fill-rule:evenodd;stroke:none"
         id="path32" />
      <path
         d="m 63.612745,33.60467 c -0.92725,0.556421 -1.551224,1.113908 -1.873344,1.671307 0.08035,-0.128528 -0.403183,2.378478 -1.45025,7.521196 -0.403183,1.928453 -0.946805,4.477679 -1.631221,7.649635 -0.725303,3.55674 -1.268924,6.12801 -1.631576,7.713988 -1.007602,4.970902 -1.490782,7.585459 -1.45025,7.842604 0.160349,1.070711 0.966715,2.292082 2.416965,3.664113 1.731483,1.713617 2.799527,2.892768 3.202711,3.535585 2.175197,3.856994 3.060849,8.763633 2.658377,14.720894 -0.48318,6.21334 -2.477407,11.46352 -5.981971,15.749388 -3.706512,4.45661 -8.519821,7.1565 -14.441706,8.09966 -1.773081,0.29936 -3.484654,-0.12853 -5.135785,-1.28564 -1.773437,-1.1571 -2.639178,-2.5934 -2.598291,-4.30702 0,-1.7145 0.362296,-3.3859 1.087599,-5.0141 0.684416,-1.542778 1.409363,-2.464784 2.175198,-2.764149 1.127419,-0.472069 1.95334,-1.02849 2.477407,-1.671397 1.489715,-1.799924 2.315992,-4.82122 2.477407,-9.063886 0.120884,-4.242667 -0.504157,-7.607504 -1.872988,-10.092466 -0.604419,-1.028579 -1.510692,-1.864189 -2.719175,-2.507095 -0.92725,-0.472069 -1.73255,-1.414163 -2.416965,-2.828415 -0.685483,-1.414252 -1.087955,-2.871702 -1.208483,-4.371283 -0.161771,-2.357413 -0.02098,-4.136182 0.422738,-5.33551 0.160704,-0.514289 0.704326,-1.200305 1.631576,-2.057069 0.885652,-0.899963 1.429273,-1.564912 1.631576,-1.992717 0.402116,-1.028579 0.744858,-2.593491 1.027157,-4.692692 0.362651,-2.828504 0.604063,-4.521944 0.724947,-5.078365 2.618202,-12.59956 4.189336,-19.906721 4.713403,-21.920592 0.442648,-1.757793 1.449894,-3.300573 3.021029,-4.628428 1.571134,-1.285635 3.20271,-1.950585 4.894372,-1.992805 1.692018,-0.04311 3.403591,-0.04311 5.13614,0 1.731839,0.04222 3.283063,0.663972 4.652961,1.864277 1.45025,1.242437 2.154576,2.656689 2.114756,4.242667 -0.120884,4.15627 -0.806366,6.599101 -2.054314,7.328315 z m -41.33089,78.48978 c -3.786863,0.17074 -6.969663,0.19288 -9.547155,0.0643 -1.732372,-0.0863 -3.303506,-0.75028 -4.713047,-1.99272 -1.410607,-1.32883 -2.095201,-2.76424 -2.054492,-4.30702 0.080175,-1.7145 0.321943,-3.21417 0.725126,-4.49981 0.523,-1.457448 1.14804,-2.271991 1.873166,-2.44274 0.725125,-0.128616 1.349099,-1.007424 1.873165,-2.635622 0.483358,-1.500649 0.725126,-3.214177 0.725126,-5.142629 0.321942,-16.671479 0.321942,-33.320826 0,-49.948129 0,-1.928452 -0.241768,-3.643047 -0.725126,-5.142628 C 9.955261,34.418235 9.33022,33.561471 8.565453,33.476053 7.195377,33.304327 6.450519,32.854301 6.329635,32.126154 6.088045,30.625506 5.967161,28.740251 5.967161,26.469235 c 0,-1.542868 0.664684,-2.957031 1.99405,-4.242755 1.288657,-1.285635 2.779439,-1.971651 4.471457,-2.057069 3.302617,-0.170749 6.606123,-0.170749 9.909629,0 1.692018,0.08542 3.161823,0.856853 4.411193,2.314214 1.208483,1.414251 1.832457,3.04245 1.872988,4.885573 0.764768,26.012598 0.764768,51.982976 0,77.911222 -0.04053,1.79992 -0.685482,3.36386 -1.93343,4.69269 -1.208483,1.32786 -2.67971,2.03494 -4.411193,2.12134 z"
         style="fill:#000000;fill-opacity:1;fill-rule:evenodd;stroke:none"
         id="path34" />
      <path
         d="m 129.20573,42.797173 c -0.0811,1.842056 -0.76548,3.492387 -2.05431,4.949748 -1.3699,1.499671 -2.8806,2.24995 -4.53208,2.24995 h -1.02716 c -1.81254,-0.0432 -3.50456,-0.686015 -5.0757,-1.928541 -1.69201,-1.372032 -2.47741,-2.914811 -2.35652,-4.628339 0.0395,-0.343542 0.14079,-1.221371 0.30221,-2.635623 0.08,-1.071689 0.14044,-1.907387 0.18132,-2.507006 0.0395,-1.886321 -0.28229,-3.236309 -0.96707,-4.049875 -0.80601,-0.986359 -2.71917,-1.307767 -5.7402,-0.964226 -1.6522,0.170748 -3.12236,-0.450026 -4.41119,-1.864278 -1.28955,-1.328833 -1.93343,-2.828414 -1.93343,-4.499811 0,-1.629176 0.64388,-3.171956 1.93343,-4.628339 1.28883,-1.45745 2.75899,-2.20773 4.41119,-2.24995 0.8053,0 1.99387,0.02107 3.56501,0.06426 1.69201,0.04222 2.92041,0.06426 3.68589,0.06426 0.68441,0 1.93378,-0.02204 3.74633,-0.06426 h 3.68589 c 1.65148,0 3.16218,0.749301 4.53208,2.24995 1.28883,1.456383 1.97324,3.106714 2.05431,4.949748 0.28123,5.142717 0.28123,10.306412 0,15.492328 v 0 z m -27.61413,24.29907 c 0,-1.671396 0.44265,-3.19311 1.32936,-4.564164 0.88566,-1.414252 1.8929,-2.121333 3.02103,-2.121333 1.12742,0 2.17556,0.707081 3.14227,2.121333 1.00654,1.414252 1.51069,2.934988 1.51069,4.564164 0,1.62811 -0.50415,3.149824 -1.51069,4.564076 -0.96671,1.414251 -2.01485,2.121333 -3.14227,2.121333 -1.12813,0 -2.13537,-0.707082 -3.02103,-2.121333 -0.88671,-1.372032 -1.32936,-2.892768 -1.32936,-4.564076 z m 6.40506,31.563033 c 1.6106,0.08542 3.08147,-0.621752 4.41084,-2.121334 1.32937,-1.500648 1.97325,-3.128757 1.93379,-4.885573 0,-0.171726 -0.021,-0.428871 -0.0605,-0.771345 V 90.10959 c -0.0814,-1.757704 0.60407,-3.342705 2.05432,-4.756957 1.36918,-1.372031 2.92041,-2.057069 4.65296,-2.057069 h 1.57078 c 1.69201,0 3.20271,0.707171 4.53207,2.121333 1.32937,1.371054 2.03369,2.957032 2.11476,4.756957 0.28123,4.927704 0.28123,9.877546 0,14.849426 -0.0811,1.80001 -0.78539,3.40705 -2.11476,4.82131 -1.32936,1.41416 -2.82015,2.16346 -4.47163,2.24986 -3.5451,0.17074 -8.1977,0.14968 -13.95817,-0.0643 -1.77308,-0.0432 -3.38368,-0.68601 -4.83393,-1.92845 -1.57114,-1.32892 -2.33662,-2.8285 -2.29608,-4.4999 0,-1.7577 0.6645,-3.36475 1.99387,-4.82122 1.36918,-1.457451 2.85997,-2.164533 4.47163,-2.121334 v 0 z M 89.385531,112.15871 c -2.900145,0.12862 -6.56648,0.10648 -10.997228,-0.0643 -1.812902,-0.0864 -3.484654,-0.72922 -5.015256,-1.92846 -1.652198,-1.28572 -2.457497,-2.78628 -2.416966,-4.49981 0,-1.75779 0.442649,-3.36484 1.329367,-4.82131 0.8053,-1.41416 1.692018,-2.12133 2.658733,-2.12133 0.885652,-0.0432 1.671041,-0.793478 2.356523,-2.249862 0.684416,-1.45745 1.066978,-3.107692 1.148041,-4.949837 0.604419,-16.970755 0.604419,-33.899378 0,-50.783737 -0.08106,-1.843123 -0.463625,-3.493454 -1.148041,-4.949837 -0.725303,-1.54278 -1.551223,-2.336258 -2.477407,-2.378478 -0.966715,-0.0432 -1.853433,-0.75028 -2.658733,-2.121334 -0.765834,-1.372031 -1.148041,-2.892767 -1.148041,-4.564075 -0.04053,-1.629176 0.664506,-3.107692 2.114756,-4.435547 1.369187,-1.285724 2.920411,-1.97174 4.652961,-2.05707 3.867215,-0.257144 7.734075,-0.257144 11.601291,0 1.692018,0.08533 3.162179,0.83561 4.411193,2.249862 1.208483,1.414251 1.832456,3.021295 1.872988,4.82122 0.725303,25.970467 0.725303,51.854537 0,77.654165 -0.04053,1.84215 -0.664505,3.47132 -1.872988,4.88558 -1.249014,1.45638 -2.719175,2.22781 -4.411193,2.31412 v 0 z"
         style="fill:#000000;fill-opacity:1;fill-rule:evenodd;stroke:none"
         id="path36" />
      <path
         d="m 186.82287,112.15871 c -2.33697,0.0854 -5.11659,0.0644 -8.33885,-0.0643 -1.77308,-0.0432 -3.38368,-0.66486 -4.83393,-1.86419 -1.53132,-1.24351 -2.25662,-2.65767 -2.1752,-4.24267 0.16035,-4.49981 0.90627,-6.857223 2.23564,-7.07117 0.64388,-0.128616 1.2483,-0.986358 1.8129,-2.571358 0.48318,-1.457362 0.76441,-3.107692 0.84583,-4.949749 0.16035,-2.828503 0.24177,-7.114368 0.24177,-12.856705 0,-5.828645 0.0604,-9.963849 0.18133,-12.40668 0,-0.385673 0.0601,-1.007424 0.18097,-1.864188 0.0804,-0.814544 0.12088,-1.436296 0.12088,-1.864189 0,-0.514289 -0.12088,-0.835698 -0.3623,-0.964226 -0.2823,-0.128617 -0.62504,-0.0864 -1.02751,0.128528 -0.96671,0.599619 -1.6522,1.73566 -2.05431,3.406968 -0.12089,0.427893 -0.34274,1.30679 -0.66451,2.635623 -0.24177,1.113909 -0.46362,1.992805 -0.66486,2.635623 -0.44371,1.713528 -0.98769,2.484962 -1.63158,2.314214 -0.60406,-0.171726 -0.9468,-1.157107 -1.02715,-2.957032 -0.80637,-23.827979 -0.32283,-38.355992 1.45025,-43.584039 0.56353,-1.629176 1.8129,-3.021296 3.74633,-4.178403 1.8129,-1.114886 3.60483,-1.714506 5.37791,-1.799924 h 2.1752 c 1.65148,0 3.10138,0.749302 4.35075,2.24995 1.24794,1.456383 1.89289,3.106625 1.93343,4.949748 0.1607,6.171208 0.1607,16.906491 0,32.205939 -0.0811,13.885195 0.0199,24.513016 0.30221,31.884441 0.0803,1.885343 0.34167,3.556739 0.78539,5.014101 0.48353,1.585 1.02715,2.420698 1.63157,2.507094 0.64389,0.128528 1.16795,0.942094 1.57114,2.442744 0.36265,1.37105 0.54362,2.91383 0.54362,4.62834 0,1.54287 -0.70504,2.95703 -2.11476,4.24275 -1.3699,1.24244 -2.9005,1.90641 -4.59216,1.99272 v 0 z m -25.86203,-6.55688 c -0.80637,1.6714 -2.01485,3.14991 -3.62545,4.43555 -1.69201,1.32785 -3.36412,2.01387 -5.01525,2.05707 -2.94104,0.17074 -6.58639,0.17074 -10.93714,0 -1.81255,-0.0864 -3.46475,-0.70709 -4.95482,-1.86419 -1.6522,-1.24351 -2.4575,-2.67882 -2.41696,-4.30702 0.0398,-1.75771 0.36265,-3.34271 0.96671,-4.75696 0.56389,-1.457359 1.20848,-2.24986 1.93379,-2.378476 0.68441,-0.08631 1.24794,-0.964227 1.69201,-2.635534 0.40212,-1.45745 0.62398,-3.149913 0.66451,-5.078454 0.16035,-6.386132 0.22079,-14.550057 0.18133,-24.491862 -0.0405,-15.128699 -0.0605,-23.378042 -0.0605,-24.749096 0,-1.928453 -0.20194,-3.621893 -0.60442,-5.078365 -0.44371,-1.671308 -1.00724,-2.593402 -1.69166,-2.764151 -0.76583,-0.171726 -1.45025,-0.899962 -2.05467,-2.185597 -0.64459,-1.328922 -0.96671,-2.786283 -0.96671,-4.371283 0,-1.585978 0.64388,-3.064494 1.93378,-4.435548 1.28848,-1.414252 2.75864,-2.164531 4.41084,-2.24995 2.85997,-0.214924 6.04241,-0.214924 9.54733,0 1.73149,0.128617 3.28271,0.813655 4.65261,2.057069 1.40972,1.285724 2.11475,2.721042 2.11475,4.30702 -0.0405,1.585 -0.32283,3.085559 -0.84583,4.499811 -0.5646,1.414252 -1.18857,2.227818 -1.87334,2.442742 -1.3699,0.427893 -2.05431,3.12778 -2.05431,8.09975 -0.0405,11.956654 -0.24177,21.512787 -0.60407,28.670264 0,0.471092 -0.0604,1.371054 -0.18132,2.699887 -0.12089,1.199328 -0.18133,2.121333 -0.18133,2.76424 -0.0405,1.54278 0.40212,2.270927 1.32937,2.185597 0.92618,-0.0864 1.65113,-0.986359 2.17519,-2.699887 0.32212,-1.028579 0.76477,-2.678821 1.32937,-4.949837 0.60442,-2.228795 1.06698,-3.900192 1.38981,-5.014101 1.65113,-5.314355 2.6982,-8.507465 3.14191,-9.578176 0.64389,-1.671396 1.30875,-2.40061 1.99423,-2.185597 0.72495,0.213946 1.10751,1.221371 1.14804,3.021295 0.72495,20.998498 0.86574,34.070128 0.42309,39.212757 -0.2023,2.484962 -1.18892,5.592652 -2.96094,9.321032 v 0 z"
         style="fill:#000000;fill-opacity:1;fill-rule:evenodd;stroke:none"
         id="path38" />
      <path
         d="m 237.55105,110.29452 c -1.41043,0.59962 -2.8397,1.00645 -4.28995,1.22137 -1.24902,0.21395 -1.93379,0.21395 -2.05467,0 -0.0811,-0.12853 -0.12053,-0.32141 -0.12053,-0.57855 0,-0.64282 -0.14186,-2.67873 -0.42309,-6.10686 -0.24177,-2.74308 -0.20195,-4.949833 0.12088,-6.62123 0.16035,-0.857742 0.62398,-1.950585 1.38981,-3.27844 0.84583,-1.414163 1.34892,-2.507006 1.51069,-3.278441 1.00618,-3.900192 1.48972,-12.599471 1.4499,-26.098994 0,-13.928305 -0.48318,-22.735136 -1.4499,-26.420404 -0.16177,-0.729214 -0.66486,-1.821968 -1.51069,-3.27844 -0.80637,-1.372032 -1.26892,-2.464875 -1.38981,-3.278441 -0.40318,-2.271993 -0.48353,-4.692692 -0.24177,-7.263962 0.16035,-1.799924 0.98663,-3.236308 2.47741,-4.307019 1.48972,-1.02849 3.00041,-1.221371 4.53172,-0.578554 2.65874,1.157107 4.97473,2.721042 6.94904,4.692692 4.26934,4.284888 7.53249,10.692086 9.78875,19.220706 2.17555,8.185079 3.06085,16.842227 2.65873,25.970378 -0.44371,9.470803 -2.21573,17.698991 -5.31746,24.684832 -3.42422,7.670787 -8.11771,12.770217 -14.07906,15.299357 z M 222.0221,38.811562 c -0.96707,3.471321 -1.45025,12.384548 -1.45025,26.741813 0,14.827378 0.48318,23.849133 1.45025,27.06331 0.16035,0.556421 0.70433,1.478515 1.63122,2.76415 0.88566,1.242437 1.40972,2.292082 1.57114,3.149913 V 106.309 c 0,2.27102 -0.0405,3.59985 -0.12089,3.98552 -0.20194,1.28573 -0.84583,1.92854 -1.93343,1.92854 -3.62544,-0.0864 -7.51364,-2.05707 -11.66208,-5.91406 -4.5527,-4.24276 -8.01673,-10.693152 -10.39317,-19.349234 -2.25661,-8.228277 -3.14191,-16.992888 -2.65873,-26.291875 0.48353,-9.600309 2.37643,-17.913916 5.68012,-24.941888 3.58491,-7.757186 8.43875,-12.878749 14.56223,-15.363712 1.57113,-0.599619 3.04129,-0.363629 4.41119,0.707082 1.36883,1.028579 2.13467,2.463897 2.29608,4.307019 0.28124,2.957032 0.22079,5.356576 -0.18132,7.199698 -0.12089,0.685038 -0.62504,1.692463 -1.51069,3.021296 -0.9269,1.371054 -1.49079,2.442831 -1.69167,3.214176 z"
         style="fill:#000000;fill-opacity:1;fill-rule:evenodd;stroke:none"
         id="path40" />
      <path
         d="m 321.5134,111.96592 c -5.358,0.34247 -10.716,0.34247 -16.07293,0 -1.69201,-0.0864 -3.22333,-0.75028 -4.59251,-1.99281 -1.41044,-1.32883 -2.11476,-2.78628 -2.11476,-4.37128 0,-1.62918 0.3822,-3.12876 1.14804,-4.49981 0.8053,-1.328836 1.65113,-1.992719 2.53785,-1.992719 0.84583,0.04213 1.51069,-0.729214 1.99387,-2.314214 0.48354,-1.585978 0.56389,-3.257374 0.24177,-5.014101 -0.32283,-1.886321 -1.26893,-5.635852 -2.84006,-11.249573 -1.32901,-4.843352 -2.13538,-8.742566 -2.41697,-11.699598 v -37.02707 c 0,-0.600686 -0.0206,-1.564912 -0.0604,-2.892768 -0.0405,-1.243503 -0.0604,-2.207729 -0.0604,-2.892767 0,-1.585978 0.60442,-2.722019 1.8129,-3.406969 1.20848,-0.686015 2.03369,-0.364606 2.47741,0.964227 0.20124,0.599619 0.40212,1.435317 0.60442,2.507006 0.24141,1.327855 0.40211,2.099289 0.48318,2.314214 1.73148,6.770827 4.18933,16.842227 7.37178,30.213133 3.18173,13.327708 5.65949,23.420174 7.43258,30.277398 1.48971,5.956283 2.53784,9.149305 3.14191,9.578176 0.40211,0.299365 1.22839,0.514289 2.47741,0.642906 0.7253,0.08533 1.36918,0.771346 1.93378,2.056979 0.60406,1.32786 0.90627,2.80637 0.90627,4.43555 0,1.585 -0.64495,3.02138 -1.93378,4.30702 -1.28955,1.28563 -2.77926,1.97067 -4.47128,2.05707 v 0 z M 293.05308,27.112053 v 40.176982 c -0.32283,3.214177 -1.18857,7.349381 -2.59829,12.40668 -1.69166,6.12801 -2.71882,10.15673 -3.08147,12.085271 -0.32283,1.756727 -0.2823,3.406968 0.12088,4.949748 0.3623,1.542869 0.92619,2.335369 1.69167,2.378567 0.76476,0.04213 1.47016,0.749302 2.11511,2.121339 0.60406,1.37105 0.92618,2.89267 0.96671,4.56407 0,1.6282 -0.70539,3.08556 -2.11475,4.37128 -1.37026,1.24244 -2.9005,1.88526 -4.59252,1.92846 -0.96672,0 -6.52595,-0.022 -16.67735,-0.0643 -1.81254,0 -3.50456,-0.53633 -5.0757,-1.60704 -1.73254,-1.20031 -2.57838,-2.63562 -2.53785,-4.30702 0,-1.75771 0.36266,-3.36484 1.0876,-4.82122 0.72531,-1.414253 1.47017,-2.143467 2.236,-2.185599 1.36883,-0.128617 2.23564,-0.343541 2.59829,-0.642906 0.523,-0.385673 1.48972,-3.471232 2.90014,-9.256768 0.40248,-1.585978 0.84619,-3.385902 1.32937,-5.399773 0.60442,-2.657756 0.9461,-4.136271 1.02751,-4.435548 7.53213,-31.842309 11.762,-49.455882 12.68925,-52.840807 0.48318,-1.714594 1.1676,-3.214176 2.05431,-4.499811 0.92619,-1.328922 1.77202,-1.992805 2.53785,-1.992805 0.76477,0 1.48972,0.728236 2.1752,2.185597 0.64388,1.456472 1.02716,3.085648 1.14804,4.885573 v 0 z"
         style="fill:#000000;fill-opacity:1;fill-rule:evenodd;stroke:none"
         id="path42" />
      <path
         d="m 395.86833,33.476053 c -1.53167,0.299365 -2.67971,2.806371 -3.44448,7.521196 -3.86722,23.312711 -6.40507,40.06952 -7.61355,50.269448 -0.24177,1.842145 -0.20195,3.513452 0.12089,5.014101 0.32211,1.542779 0.84583,2.356345 1.57113,2.442742 0.76477,0.08542 1.42927,0.835698 1.99387,2.24995 0.60442,1.41425 0.90663,2.95703 0.90663,4.62834 0.0395,1.6282 -0.66486,3.10671 -2.11511,4.43555 -1.3699,1.37105 -2.92112,2.07822 -4.65261,2.12133 -2.0952,0.0854 -4.59216,0.0644 -7.49266,-0.0643 -1.73255,-0.0432 -3.32359,-0.57856 -4.77349,-1.60705 -1.53167,-1.11489 -2.31706,-2.35741 -2.35688,-3.72846 0,-0.64282 0.0199,-1.54278 0.0604,-2.69989 0.0804,-1.20031 0.12089,-2.05707 0.12089,-2.57127 0,-6.51475 0.76477,-16.970845 2.29608,-31.370241 0.48353,-4.628428 0.20124,-7.264051 -0.84583,-7.906869 -0.96672,-0.600597 -1.45025,-2.464874 -1.45025,-5.592654 0,-1.243415 0.20123,-2.400522 0.60442,-3.471232 0.44265,-1.114976 1.00653,-1.757793 1.69166,-1.928542 0.68477,-0.128528 1.36919,-0.964226 2.05467,-2.507006 0.68441,-1.45745 1.14804,-3.085648 1.38981,-4.885573 0.16035,-0.94316 0.28123,-1.864188 0.36229,-2.764151 0.20124,-1.799924 0.10027,-3.471321 -0.30185,-5.0141 -0.40318,-1.585978 -0.94716,-2.442742 -1.63158,-2.571359 -0.68548,-0.128528 -1.30945,-0.878808 -1.87334,-2.249862 -0.60406,-1.372031 -0.90627,-2.871701 -0.90627,-4.499811 -0.0405,-1.629176 0.64388,-3.149912 2.05467,-4.564164 1.40936,-1.328833 2.96058,-2.014849 4.6526,-2.057069 0.96672,-0.0432 2.29608,-0.0432 3.9881,0 1.97325,0.04222 3.32324,0.06426 4.04854,0.06426 0.76477,0 2.13467,-0.02204 4.10863,-0.06426 1.73184,-0.0432 3.0612,-0.06426 3.9881,-0.06426 1.65149,0.04222 3.14227,0.7925 4.47163,2.24995 1.28848,1.456383 1.93343,2.999163 1.93343,4.628339 -0.0405,1.585 -0.36265,3.04245 -0.96671,4.371283 -0.5646,1.327856 -1.22946,2.05707 -1.99387,2.185598 v 0 z m -33.23381,71.547227 c -0.0814,1.80001 -0.80637,3.42812 -2.17555,4.88557 -1.32937,1.45638 -2.83971,2.20675 -4.53172,2.24986 -1.97432,0.0854 -4.2704,0.0854 -6.8886,0 -1.81255,-0.0863 -3.48466,-0.75028 -5.01526,-1.99272 -1.6522,-1.32883 -2.4575,-2.8285 -2.41697,-4.49981 0,-1.71459 0.34168,-3.30057 1.02716,-4.75695 0.64388,-1.372124 1.30875,-2.100272 1.99423,-2.18569 0.64388,-0.0432 1.10751,-0.857742 1.38981,-2.442742 0.28123,-1.500649 0.34167,-3.171956 0.18132,-5.014101 -0.0409,-0.214925 -2.01485,-14.10012 -5.92188,-41.655498 -0.12089,-0.686016 -0.26239,-1.97174 -0.42274,-3.856994 -0.16177,-2.143466 -0.30221,-3.728466 -0.42309,-4.756956 -0.44372,-3.943391 -1.14804,-6.299825 -2.11476,-7.071171 -0.36265,-0.300343 -1.1484,-0.493223 -2.35688,-0.578553 -0.68548,-0.0432 -1.30946,-0.729214 -1.87299,-2.05707 -0.5646,-1.328833 -0.84583,-2.786283 -0.84583,-4.371283 0,-1.629176 0.64389,-3.171956 1.93343,-4.628339 1.28884,-1.45745 2.75864,-2.20773 4.41119,-2.24995 0.96672,0 2.29609,0.02107 3.98775,0.06426 2.01414,0.04222 3.40394,0.06426 4.16942,0.06426 0.68442,0 2.07423,-0.02204 4.16943,-0.06426 h 4.10898 c 1.69166,0.04222 3.20236,0.728236 4.53172,2.057069 1.28884,1.327855 1.91281,2.806371 1.87335,4.435547 0,1.671397 -0.24177,3.192044 -0.72531,4.564076 -0.44371,1.414251 -1.02715,2.185686 -1.7521,2.314214 -1.16902,0.213946 -1.91388,0.685038 -2.236,1.414252 -0.60406,1.242436 -0.40318,4.114138 0.60442,8.61395 1.0876,4.799176 2.0337,7.328315 2.84006,7.585459 0.64389,0.213947 1.20849,0.83561 1.69167,1.864189 0.523,1.07071 0.78574,2.185597 0.78574,3.342704 -0.0409,0.685038 -0.46362,2.163554 -1.26892,4.435548 -0.80637,2.314214 -1.22946,4.114138 -1.26893,5.399773 -0.0409,0.471092 0.30185,3.921347 1.02716,10.349611 1.36883,12.299217 1.87299,21.81313 1.51069,28.541745 z"
         style="fill:#000000;fill-opacity:1;fill-rule:evenodd;stroke:none"
         id="path44" />
      <path
         d="m 464.24093,105.21616 c -0.0811,1.79992 -0.78539,3.40705 -2.11476,4.82122 -1.32937,1.37105 -2.84006,2.07822 -4.53208,2.12133 h -0.48318 c -1.73254,0.0422 -3.34421,-0.68602 -4.83393,-2.1856 -1.49078,-1.54278 -2.15564,-3.19302 -1.99422,-4.94983 0.12088,-1.32884 0.40211,-2.97908 0.84618,-4.94975 0.48318,-2.228887 0.74486,-3.450258 0.78539,-3.664204 0.20124,-1.457362 0.18133,-4.949749 -0.0604,-10.478139 -0.12088,-1.843123 0.48354,-3.557629 1.8129,-5.142629 1.28848,-1.629176 2.75864,-2.442742 4.41084,-2.442742 1.6106,0 3.04094,0.813566 4.29031,2.442742 1.16795,1.54278 1.77201,3.27844 1.81255,5.206893 0.24176,8.141881 0.26167,14.549169 0.0604,19.220709 z M 447.20129,33.411789 c -0.84619,0.04222 -1.59212,0.87783 -2.236,2.507095 -0.5646,1.542779 -0.86645,3.27844 -0.90627,5.206892 -0.0811,4.799177 -0.12089,22.177737 -0.12089,52.133726 0,1.199239 0.0804,3.235242 0.24177,6.106855 0.16035,2.571363 0.22079,4.564163 0.18133,5.978413 -0.0814,1.75673 -0.86681,3.29951 -2.35653,4.62834 -1.45025,1.32786 -3.042,2.03494 -4.77384,2.12134 -2.57838,0.0854 -4.79411,0.10648 -6.64648,0.0643 -1.69202,-0.0863 -3.22333,-0.85774 -4.59252,-2.31412 -1.41043,-1.45746 -2.13537,-3.08565 -2.17519,-4.88558 -0.0405,-1.58598 -0.0405,-3.75051 0,-6.492615 0.0398,-3.599849 0.0604,-5.656919 0.0604,-6.171119 V 53.40388 c 0,-0.857742 0.0604,-2.421588 0.18132,-4.692604 0.12089,-2.657755 0.20088,-4.607362 0.24177,-5.849799 0.12089,-4.756956 -0.2023,-7.628658 -0.96707,-8.61395 -0.40318,-0.472069 -1.43034,-0.771434 -3.08147,-0.899962 -0.88672,-0.0432 -1.69202,-0.771435 -2.41697,-2.185686 -0.7253,-1.372032 -1.08759,-2.914812 -1.08759,-4.62834 -0.0409,-1.629176 0.6645,-3.085648 2.11475,-4.371283 1.36883,-1.200305 2.93997,-1.843123 4.71305,-1.928453 8.94291,-0.257144 15.85142,-0.257144 20.72589,0 1.73148,0.08533 3.30261,0.771346 4.71304,2.05707 1.40972,1.327855 2.11511,2.806371 2.11511,4.435547 0,1.62811 -0.42309,3.149824 -1.26892,4.564075 -0.80637,1.371054 -1.69202,2.078136 -2.65873,2.121334 v 0 z M 415.96135,96.66647 c 0.0804,0.471092 0.36265,1.135064 0.84619,1.992806 0.48318,0.856764 0.78539,1.563844 0.90627,2.121334 0.24177,1.37105 0.28123,3.14991 0.12088,5.33551 -0.12088,1.49958 -0.80636,2.87063 -2.05466,4.11414 -1.32937,1.28563 -2.82015,1.9496 -4.47128,1.9928 h -1.0876 c -1.6522,-0.0432 -3.16289,-0.81463 -4.53208,-2.31421 -1.28955,-1.50065 -1.99387,-3.17196 -2.11476,-5.0141 -0.20194,-4.58621 -0.18132,-10.885946 0.0605,-18.899299 0.0395,-1.928453 0.6645,-3.664113 1.87298,-5.206893 1.20849,-1.629176 2.61821,-2.442742 4.22987,-2.442742 1.65149,0 3.14227,0.813566 4.47164,2.442742 1.32936,1.62811 1.93343,3.342704 1.81254,5.142629 -0.32283,5.870865 -0.34274,9.449648 -0.0604,10.735283 v 0 z"
         style="fill:#000000;fill-opacity:1;fill-rule:evenodd;stroke:none"
         id="path46" />
      <path
         d="m 500.89077,33.411789 c -1.0876,0 -2.05467,0.835698 -2.9005,2.507095 -0.80637,1.584911 -1.22911,3.320572 -1.26893,5.206892 -0.0405,1.585001 0,4.606296 0.12089,9.063976 0.0395,3.813796 0.0199,6.791893 -0.0604,8.935359 -0.0405,1.799924 -0.74592,3.428123 -2.11475,4.885484 -1.3699,1.456472 -2.88059,2.206752 -4.53208,2.24995 -1.81254,0.08533 -3.92766,0.06426 -6.34462,-0.06426 -1.73255,-0.0432 -3.30333,-0.729214 -4.71305,-2.057069 -1.45025,-1.372121 -2.23564,-2.935966 -2.35652,-4.692692 -0.12088,-2.05707 -0.12088,-5.142718 0,-9.256768 0.16035,-4.45768 0.20088,-7.607592 0.12088,-9.449648 -0.0405,-1.799925 -0.48353,-3.471321 -1.32936,-5.014101 -0.84619,-1.54278 -1.77308,-2.314214 -2.77962,-2.314214 -1.04813,-0.0432 -2.07529,-0.686016 -3.08183,-1.928453 -1.04777,-1.37212 -1.55122,-2.871702 -1.51033,-4.4999 0,-1.671308 0.70432,-3.171956 2.11475,-4.499811 1.40972,-1.285635 2.9805,-1.992717 4.71305,-2.121334 8.05655,-0.427893 16.13337,-0.427893 24.23045,0 1.73148,0.128617 3.28271,0.835699 4.65261,2.121334 1.45025,1.327855 2.17555,2.828503 2.17555,4.499811 0,1.628198 -0.5646,3.12778 -1.69202,4.4999 -1.0876,1.242437 -2.23564,1.885255 -3.44412,1.928453 v 0 z m -28.5812,65.376015 c 1.04706,0 2.03369,-0.686016 2.96094,-2.05707 1.00653,-1.372031 1.5306,-2.935877 1.57113,-4.692603 0.08,-1.500648 0.0605,-3.664202 -0.0604,-6.492617 -0.0814,-3.128846 -0.12088,-5.335509 -0.12088,-6.621233 0.0395,-1.757704 0.76477,-3.364748 2.1752,-4.82122 1.36918,-1.457361 2.92041,-2.228796 4.6526,-2.314214 2.21502,-0.128528 4.41119,-0.128528 6.58639,0 1.73148,0.08542 3.30262,0.835698 4.7134,2.24995 1.40937,1.456383 2.11476,3.085559 2.11476,4.885484 0,1.157107 -0.0604,3.384925 -0.18133,6.685497 -0.0811,2.828504 -0.10097,4.991969 -0.0604,6.492617 0.0803,1.756726 0.68442,3.320661 1.8129,4.692692 1.04707,1.327856 2.11476,1.992717 3.20236,1.992717 1.04706,0 2.01378,0.685038 2.9005,2.057066 0.96671,1.41426 1.45025,2.95703 1.45025,4.62843 0,1.6714 -0.7253,3.17098 -2.17555,4.49981 -1.3699,1.32786 -2.92113,2.03494 -4.65261,2.12134 -5.51941,0.29936 -13.39464,0.29936 -23.62603,0 -1.8129,-0.0432 -3.48501,-0.66486 -5.01526,-1.86419 -1.65255,-1.28564 -2.45785,-2.78629 -2.41696,-4.49981 0,-1.7146 0.46256,-3.32164 1.38945,-4.82122 0.88565,-1.414256 1.8129,-2.121426 2.77962,-2.121426 v 0 z"
         style="fill:#000000;fill-opacity:1;fill-rule:evenodd;stroke:none"
         id="path48" />
      <path
         d="m 549.86685,110.29452 c -1.41043,0.59962 -2.8397,1.00645 -4.28995,1.22137 -1.24902,0.21395 -1.93379,0.21395 -2.05467,0 -0.0811,-0.12853 -0.12053,-0.32141 -0.12053,-0.57855 0,-0.64282 -0.14186,-2.67873 -0.4231,-6.10686 -0.24176,-2.74308 -0.20194,-4.949833 0.12089,-6.62123 0.16035,-0.857742 0.62397,-1.950585 1.38981,-3.27844 0.84583,-1.414163 1.34892,-2.507006 1.51069,-3.278441 1.00618,-3.900192 1.48971,-12.599471 1.44989,-26.098994 0,-13.928305 -0.48318,-22.735136 -1.44989,-26.420404 -0.16177,-0.729214 -0.66486,-1.821968 -1.51069,-3.27844 -0.80637,-1.372032 -1.26893,-2.464875 -1.38981,-3.278441 -0.40318,-2.271993 -0.48354,-4.692692 -0.24177,-7.263962 0.16035,-1.799924 0.98663,-3.236308 2.47741,-4.307019 1.48971,-1.02849 3.0004,-1.221371 4.53172,-0.578554 2.65873,1.157107 4.97472,2.721042 6.94904,4.692692 4.26933,4.284888 7.53249,10.692086 9.78875,19.220706 2.17555,8.185079 3.06085,16.842227 2.65873,25.970378 -0.44372,9.470803 -2.21573,17.698991 -5.31747,24.684832 -3.42421,7.670787 -8.1177,12.770217 -14.07905,15.299357 z M 534.3379,38.811562 c -0.96707,3.471321 -1.45025,12.384548 -1.45025,26.741813 0,14.827378 0.48318,23.849133 1.45025,27.06331 0.16035,0.556421 0.70433,1.478515 1.63122,2.76415 0.88565,1.242437 1.40972,2.292082 1.57113,3.149913 V 106.309 c 0,2.27102 -0.0405,3.59985 -0.12088,3.98552 -0.20195,1.28573 -0.84583,1.92854 -1.93343,1.92854 -3.62545,-0.0864 -7.51364,-2.05707 -11.66209,-5.91406 -4.5527,-4.24276 -8.01673,-10.693152 -10.39316,-19.349234 -2.25662,-8.228277 -3.14192,-16.992888 -2.65874,-26.291875 0.48354,-9.600309 2.37644,-17.913916 5.68012,-24.941888 3.58492,-7.757186 8.43876,-12.878749 14.56224,-15.363712 1.57113,-0.599619 3.04129,-0.363629 4.41119,0.707082 1.36883,1.028579 2.13466,2.463897 2.29608,4.307019 0.28123,2.957032 0.22079,5.356576 -0.18133,7.199698 -0.12088,0.685038 -0.62504,1.692463 -1.51069,3.021296 -0.92689,1.371054 -1.49078,2.442831 -1.69166,3.214176 z"
         style="fill:#000000;fill-opacity:1;fill-rule:evenodd;stroke:none"
         id="path50" />
      <path
         d="m 626.63874,112.15871 c -2.33697,0.0854 -5.11658,0.0644 -8.33885,-0.0643 -1.77308,-0.0432 -3.38368,-0.66486 -4.83393,-1.86419 -1.53131,-1.24351 -2.25662,-2.65767 -2.1752,-4.24267 0.16035,-4.49981 0.90628,-6.857223 2.23564,-7.07117 0.64389,-0.128616 1.24831,-0.986358 1.8129,-2.571358 0.48318,-1.457362 0.76442,-3.107692 0.84584,-4.949749 0.16034,-2.828503 0.24176,-7.114368 0.24176,-12.856705 0,-5.828645 0.0604,-9.963849 0.18133,-12.40668 0,-0.385673 0.0601,-1.007424 0.18097,-1.864188 0.0803,-0.814544 0.12088,-1.436296 0.12088,-1.864189 0,-0.514289 -0.12088,-0.835698 -0.36229,-0.964226 -0.2823,-0.128617 -0.62504,-0.0864 -1.02752,0.128528 -0.96671,0.599619 -1.65219,1.73566 -2.05431,3.406968 -0.12088,0.427893 -0.34274,1.30679 -0.66451,2.635623 -0.24176,1.113909 -0.46362,1.992805 -0.66486,2.635623 -0.44371,1.713528 -0.98769,2.484962 -1.63157,2.314214 -0.60407,-0.171726 -0.94681,-1.157107 -1.02716,-2.957032 -0.80636,-23.827979 -0.32283,-38.355992 1.45025,-43.584039 0.56353,-1.629176 1.8129,-3.021296 3.74633,-4.178403 1.8129,-1.114886 3.60483,-1.714506 5.37791,-1.799924 h 2.1752 c 1.65149,0 3.10138,0.749302 4.35075,2.24995 1.24795,1.456383 1.8929,3.106625 1.93343,4.949748 0.1607,6.171208 0.1607,16.906491 0,32.205939 -0.0811,13.885195 0.0199,24.513016 0.30221,31.884441 0.0803,1.885343 0.34167,3.556739 0.78539,5.014101 0.48353,1.585 1.02716,2.420698 1.63157,2.507094 0.64389,0.128528 1.16796,0.942094 1.57114,2.442744 0.36265,1.37105 0.54362,2.91383 0.54362,4.62834 0,1.54287 -0.70504,2.95703 -2.11476,4.24275 -1.36989,1.24244 -2.9005,1.90641 -4.59216,1.99272 v 0 z m -25.86202,-6.55688 c -0.80637,1.6714 -2.01485,3.14991 -3.62545,4.43555 -1.69202,1.32785 -3.36413,2.01387 -5.01526,2.05707 -2.94103,0.17074 -6.58639,0.17074 -10.93714,0 -1.81255,-0.0864 -3.46475,-0.70709 -4.95482,-1.86419 -1.65219,-1.24351 -2.45749,-2.67882 -2.41696,-4.30702 0.0398,-1.75771 0.36265,-3.34271 0.96671,-4.75696 0.56389,-1.457359 1.20849,-2.24986 1.93379,-2.378476 0.68441,-0.08631 1.24795,-0.964227 1.69202,-2.635534 0.40211,-1.45745 0.62397,-3.149913 0.6645,-5.078454 0.16035,-6.386132 0.22079,-14.550057 0.18133,-24.491862 -0.0405,-15.128699 -0.0604,-23.378042 -0.0604,-24.749096 0,-1.928453 -0.20195,-3.621893 -0.60442,-5.078365 -0.44372,-1.671308 -1.00725,-2.593402 -1.69167,-2.764151 -0.76583,-0.171726 -1.45025,-0.899962 -2.05466,-2.185597 -0.6446,-1.328922 -0.96672,-2.786283 -0.96672,-4.371283 0,-1.585978 0.64388,-3.064494 1.93379,-4.435548 1.28848,-1.414252 2.75864,-2.164531 4.41083,-2.24995 2.85997,-0.214924 6.04242,-0.214924 9.54734,0 1.73148,0.128617 3.2827,0.813655 4.6526,2.057069 1.40972,1.285724 2.11476,2.721042 2.11476,4.30702 -0.0405,1.585 -0.32283,3.085559 -0.84583,4.499811 -0.5646,1.414252 -1.18858,2.227818 -1.87335,2.442742 -1.3699,0.427893 -2.05431,3.12778 -2.05431,8.09975 -0.0405,11.956654 -0.24177,21.512787 -0.60407,28.670264 0,0.471092 -0.0604,1.371054 -0.18132,2.699887 -0.12088,1.199328 -0.18133,2.121333 -0.18133,2.76424 -0.0405,1.54278 0.40212,2.270927 1.32937,2.185597 0.92618,-0.0864 1.65113,-0.986359 2.1752,-2.699887 0.32212,-1.028579 0.76477,-2.678821 1.32936,-4.949837 0.60442,-2.228795 1.06698,-3.900192 1.38981,-5.014101 1.65113,-5.314355 2.6982,-8.507465 3.14192,-9.578176 0.64388,-1.671396 1.30874,-2.40061 1.99422,-2.185597 0.72495,0.213946 1.10751,1.221371 1.14804,3.021295 0.72495,20.998498 0.86575,34.070128 0.4231,39.212757 -0.20231,2.484962 -1.18893,5.592652 -2.96094,9.321032 v 0 z"
         style="fill:#000000;fill-opacity:1;fill-rule:evenodd;stroke:none"
         id="path52" />
      <path
         d="m 642.98508,50.061135 c -1.0876,0.04222 -2.13538,-0.66495 -3.14191,-2.121333 -1.04814,-1.45745 -1.57114,-3.064494 -1.57114,-4.82122 0,-0.943161 0.0199,-2.271994 0.0604,-3.985611 0.0398,-1.843123 0.0605,-3.064494 0.0605,-3.664113 0,-0.899962 -0.0206,-2.20773 -0.0605,-3.921258 -0.0405,-1.629176 -0.0604,-2.828503 -0.0604,-3.599849 0,-1.757793 0.50345,-3.385991 1.51069,-4.885573 0.96672,-1.500559 1.99388,-2.228795 3.08183,-2.185597 1.0876,0 2.05431,0.749302 2.90014,2.249861 0.8053,1.414252 1.2284,3.04245 1.26893,4.885573 0.1607,4.970903 0.1607,9.941806 0,14.913686 -0.0405,1.842145 -0.44371,3.471321 -1.20848,4.885573 -0.84583,1.499582 -1.79299,2.249861 -2.84006,2.249861 z m 32.87151,34.391536 c 1.36883,0 2.5574,0.7925 3.56501,2.378478 1.00653,1.54278 1.53024,3.235242 1.57113,5.078365 0.20088,5.228048 0.22079,9.513916 0.0604,12.856706 -0.0814,1.75673 -0.62504,3.32057 -1.63157,4.6926 -1.00761,1.37106 -2.09521,2.03503 -3.26316,1.99281 -3.10244,-0.0432 -4.75358,-0.17173 -4.95481,-0.38567 -0.3623,-0.38568 -0.66451,-2.69989 -0.90627,-6.94265 -0.20195,-4.11405 -0.18133,-8.292538 0.0604,-12.535205 0.0803,-1.799924 0.6645,-3.4291 1.75246,-4.885484 1.12706,-1.500648 2.37643,-2.24995 3.74633,-2.24995 v 0 z m 7.25089,-36.641397 c -0.64495,7.456843 -4.61313,15.084434 -11.90385,22.884818 -0.88636,0.942094 -2.35653,2.33528 -4.41084,4.178403 -2.29608,2.057069 -3.92766,3.577717 -4.89437,4.564075 -3.82775,3.813796 -5.96242,7.177655 -6.40507,10.092466 -0.56459,3.728466 0.18133,6.449419 2.23564,8.164013 3.9881,3.299511 5.98197,5.785451 5.98197,7.456841 0,1.45639 -0.64495,2.91384 -1.93342,4.37129 -1.3699,1.45638 -2.86069,2.33528 -4.47164,2.63553 -5.67976,0.90005 -10.49414,-1.00742 -14.44135,-5.72118 -3.6258,-4.37129 -5.41844,-9.600311 -5.37791,-15.685123 0.0804,-8.400003 3.94721,-16.563928 11.60165,-24.491862 0.84583,-0.899962 2.37643,-2.421676 4.59216,-4.564164 1.8929,-1.886232 3.32324,-3.364748 4.29031,-4.435548 3.14191,-3.385902 5.21614,-6.535726 6.22374,-9.449559 0.48318,-1.328922 0.78539,-3.021384 0.90627,-5.078454 0.0804,-2.185597 -0.12088,-3.879037 -0.60406,-5.078365 -0.76583,-1.97165 -2.21609,-3.257285 -4.35075,-3.856994 -4.06916,-1.114886 -6.12383,-2.828414 -6.1633,-5.142628 0,-1.328834 0.38221,-2.72202 1.14804,-4.178403 0.76477,-1.372031 1.59069,-2.336258 2.47741,-2.892768 1.12742,-0.642817 2.27546,-1.050622 3.44412,-1.221371 7.4116,-1.199238 13.19269,1.157107 17.34221,7.071171 3.7858,5.399773 5.35693,12.191666 4.71304,20.377812 z"
         style="fill:#000000;fill-opacity:1;fill-rule:evenodd;stroke:none"
         id="path54" />
      <path
         d="m 856.13952,53.725337 c -0.0814,1.842056 -0.76583,3.492387 -2.05467,4.949748 -1.28954,1.499671 -2.75971,2.24995 -4.41084,2.24995 h -1.3898 c -1.73255,-0.0432 -3.30369,-0.750279 -4.71305,-2.121333 -1.49078,-1.37212 -2.25662,-2.935966 -2.29608,-4.692692 -0.0814,-1.585978 -0.0814,-3.728466 0,-6.428353 0.08,-3.557629 0.12052,-5.76438 0.12052,-6.621145 0,-1.88632 -0.56459,-3.643047 -1.69166,-5.271245 -1.16902,-1.671397 -2.49838,-2.507006 -3.9881,-2.507006 -1.57113,0.04213 -3.00147,-0.578554 -4.29031,-1.864278 -1.32936,-1.328833 -1.99387,-2.828414 -1.99387,-4.499811 0,-1.671308 0.70433,-3.193022 2.11476,-4.564075 1.40972,-1.328833 2.98085,-2.036004 4.71304,-2.121334 4.43111,-0.257144 8.88248,-0.257144 13.35411,0 1.69202,0.08533 3.18174,0.83561 4.47128,2.249862 1.28884,1.414251 1.97325,3.021295 2.05467,4.82122 0.44265,8.784787 0.44265,17.591529 0,26.420492 z m -38.49083,58.369113 c -2.65873,0.17074 -6.64683,0.14968 -11.9643,-0.0643 -1.77308,-0.0864 -3.42421,-0.72921 -4.95481,-1.92845 -1.6522,-1.28572 -2.4575,-2.78628 -2.41697,-4.4999 0,-1.71451 0.443,-3.30049 1.32937,-4.75696 0.88565,-1.41416 1.83281,-2.143374 2.84006,-2.185594 0.92618,0 1.73148,-0.793478 2.41696,-2.378478 0.64389,-1.500649 0.98663,-3.193111 1.02716,-5.078365 0.28159,-16.756809 0.28159,-33.470508 0,-50.140921 -0.0405,-1.88632 -0.38327,-3.599849 -1.02716,-5.142628 -0.64495,-1.629265 -1.45025,-2.464875 -2.41696,-2.507095 -1.00725,-0.0432 -1.95441,-0.75028 -2.84006,-2.121334 -0.88637,-1.372031 -1.32937,-2.871701 -1.32937,-4.499811 0,-1.629176 0.70433,-3.107692 2.11511,-4.435547 1.40937,-1.328833 2.96059,-2.036004 4.65261,-2.121334 4.18898,-0.257144 8.3584,-0.257144 12.50792,0 1.69202,0.08533 3.14227,0.83561 4.35075,2.249862 1.20848,1.414251 1.83246,3.021295 1.87299,4.82122 0.36265,25.79874 0.36265,51.576326 0,77.332755 -0.0405,1.84215 -0.66451,3.51346 -1.87299,5.0141 -1.20848,1.54278 -2.63882,2.35635 -4.29031,2.44275 v 0 z"
         style="fill:#000000;fill-opacity:1;fill-rule:evenodd;stroke:none"
         id="path56" />
      <path
         d="m 918.65103,53.725337 c -0.0814,1.842056 -0.76583,3.492387 -2.05467,4.949748 -1.28954,1.499671 -2.7597,2.24995 -4.41083,2.24995 h -1.38981 c -1.73255,-0.0432 -3.30369,-0.750279 -4.71305,-2.121333 -1.49078,-1.37212 -2.25662,-2.935966 -2.29608,-4.692692 -0.0814,-1.585978 -0.0814,-3.728466 0,-6.428353 0.08,-3.557629 0.12053,-5.76438 0.12053,-6.621145 0,-1.88632 -0.5646,-3.643047 -1.69166,-5.271245 -1.16902,-1.671397 -2.49839,-2.507006 -3.9881,-2.507006 -1.57114,0.04213 -3.00148,-0.578554 -4.29031,-1.864278 -1.32937,-1.328833 -1.99388,-2.828414 -1.99388,-4.499811 0,-1.671308 0.70433,-3.193022 2.11476,-4.564075 1.40972,-1.328833 2.98085,-2.036004 4.71305,-2.121334 4.4311,-0.257144 8.88247,-0.257144 13.35411,0 1.69201,0.08533 3.18173,0.83561 4.47127,2.249862 1.28884,1.414251 1.97325,3.021295 2.05467,4.82122 0.44265,8.784787 0.44265,17.591529 0,26.420492 z M 880.1602,112.09445 c -2.65873,0.17074 -6.64683,0.14968 -11.9643,-0.0643 -1.77308,-0.0864 -3.42421,-0.72921 -4.95481,-1.92845 -1.6522,-1.28572 -2.4575,-2.78628 -2.41697,-4.4999 0,-1.71451 0.44301,-3.30049 1.32937,-4.75696 0.88565,-1.41416 1.83281,-2.143374 2.84006,-2.185594 0.92618,0 1.73148,-0.793478 2.41696,-2.378478 0.64389,-1.500649 0.98663,-3.193111 1.02716,-5.078365 0.28159,-16.756809 0.28159,-33.470508 0,-50.140921 -0.0405,-1.88632 -0.38327,-3.599849 -1.02716,-5.142628 -0.64495,-1.629265 -1.45025,-2.464875 -2.41696,-2.507095 -1.00725,-0.0432 -1.95441,-0.75028 -2.84006,-2.121334 -0.88636,-1.372031 -1.32937,-2.871701 -1.32937,-4.499811 0,-1.629176 0.70433,-3.107692 2.11511,-4.435547 1.40937,-1.328833 2.96059,-2.036004 4.65261,-2.121334 4.18898,-0.257144 8.3584,-0.257144 12.50792,0 1.69202,0.08533 3.14227,0.83561 4.35075,2.249862 1.20848,1.414251 1.83246,3.021295 1.87299,4.82122 0.36265,25.79874 0.36265,51.576326 0,77.332755 -0.0405,1.84215 -0.66451,3.51346 -1.87299,5.0141 -1.20848,1.54278 -2.63882,2.35635 -4.29031,2.44275 v 0 z"
         style="fill:#000000;fill-opacity:1;fill-rule:evenodd;stroke:none"
         id="path58" />
      <path
         d="m 969.74222,49.739726 c -0.68548,0.213947 -1.41078,0.427894 -2.17519,0.642818 -3.86722,1.113909 -6.00295,1.456472 -6.40507,1.028579 -0.40318,-0.428871 -0.62504,-2.722019 -0.66486,-6.878289 0,-0.986359 0.0199,-2.314214 0.0604,-3.985611 v -4.049875 c 0,-0.771345 -0.0206,-2.035914 -0.0604,-3.792641 -0.0811,-1.629176 -0.10097,-2.871702 -0.0604,-3.728466 0,-1.757704 0.70432,-2.979075 2.11475,-3.664113 1.40972,-0.686015 2.73909,-0.450025 3.9881,0.707082 3.78616,3.428123 6.38445,8.399025 7.79488,14.913686 0.36265,1.713617 0.0804,3.471321 -0.84583,5.271245 -0.96672,1.799925 -2.21609,2.978098 -3.74634,3.535585 v 0 z m -9.24512,37.927122 c 0,-1.757793 0.64388,-3.321639 1.93379,-4.692693 1.28848,-1.328833 2.71882,-1.992805 4.28995,-1.992805 1.57113,0 3.04129,0.663972 4.41119,1.992805 1.40937,1.327856 2.13467,2.870636 2.1752,4.628429 0,0.899962 -0.0206,2.206663 -0.0604,3.921257 -0.0405,1.970673 -0.0604,3.363859 -0.0604,4.178403 0,0.685038 0.0199,2.078135 0.0604,4.178403 v 4.114143 c -0.0405,1.75672 -0.68548,3.36385 -1.93343,4.82122 -1.2899,1.45647 -2.71918,2.18568 -4.29031,2.18568 -1.57113,0 -3.04201,-0.66495 -4.41119,-1.9928 -1.41043,-1.37204 -2.13538,-2.91481 -2.1752,-4.62843 -0.0405,-0.94316 -0.0206,-2.272 0.0604,-3.98552 0.0398,-1.971743 0.0604,-3.342708 0.0604,-4.114142 0,-0.814633 -0.0206,-2.271994 -0.0604,-4.371284 -0.0405,-1.843123 -0.0405,-3.257374 0,-4.242666 z M 949.56031,36.304556 c -2.01484,2.484963 -3.20271,7.006818 -3.56536,13.563787 -0.0405,0.213858 -0.0601,5.61372 -0.0601,16.199321 0,0.04222 -0.0409,2.721042 -0.12089,8.035397 -0.0814,3.770597 -0.0604,6.878289 0.0604,9.32112 0.32177,7.328226 1.48972,11.720575 3.50457,13.178025 0.44265,0.299366 1.34928,0.578554 2.71917,0.835699 0.76477,0.128528 1.46981,0.813566 2.11476,2.057069 0.64388,1.327856 0.96672,2.742106 0.96672,4.242666 0,1.71353 -0.54363,3.42812 -1.63123,5.14263 -1.16901,1.84214 -2.51829,2.89277 -4.04854,3.14991 -3.38403,0.55642 -6.56648,-0.0221 -9.54733,-1.73566 -4.71305,-2.61447 -8.48036,-7.69283 -11.29944,-15.235093 -2.61891,-6.942643 -4.08907,-15.000083 -4.41084,-24.170543 -0.32318,-9.086019 0.52301,-17.571352 2.53786,-25.456088 2.13466,-8.400004 5.27657,-14.720894 9.42609,-18.963561 3.50456,-3.599849 7.63346,-5.721271 12.38704,-6.364088 1.61095,-0.213947 3.12164,0.385761 4.53207,1.799924 1.36883,1.371054 2.05432,2.957032 2.05432,4.756956 v 0.771435 c 0,1.456383 -0.66451,3.042361 -1.99388,4.756956 -0.40318,0.514289 -1.02715,1.199238 -1.87334,2.057069 -0.84583,0.942183 -1.43034,1.628198 -1.75211,2.057069 v 0 z"
         style="fill:#000000;fill-opacity:1;fill-rule:evenodd;stroke:none"
         id="path60" />
    </g>
    <path
       d="m 622.30272,481.24898 c 0,-15.6076 -0.0274,-29.52496 0.0274,-43.44081 0.009,-2.373 -0.79606,-3.99971 -2.77928,-5.41423 -6.82328,-4.86719 -13.5499,-9.87004 -20.25065,-14.90469 -2.81967,-2.1175 -4.5879,-2.7497 -4.55173,1.95292 0.098,12.72942 0.0706,25.45886 0.0144,38.18973 -0.0115,2.30661 0.45718,4.19026 2.44023,5.60333 7.92965,5.65095 15.82449,11.34951 25.09968,18.01375 v 0 z"
       style="fill:#ea2026;fill-opacity:1;fill-rule:evenodd;stroke:none;stroke-width:0.475563"
       id="path1601" />
    <path
       d="m 182.68278,728.66426 c -8.54643,3.20878 -17.05423,6.52311 -25.50662,9.97032 -2.40816,0.98337 -3.57891,0.628 -4.07371,-1.98086 -0.19157,-1.01244 -0.85425,-1.94221 0.52559,-2.58341 0.94396,-0.43896 0.91059,-1.17339 0.68554,-2.07322 -1.42289,-5.70689 -2.08825,-6.07457 -7.58578,-4.03738 -0.1925,0.0712 -0.38057,0.15746 -0.57482,0.2225 -5.99758,1.99143 -6.00201,1.9923 -3.71775,7.62528 0.1512,0.37212 0.40961,0.70285 0.63013,1.04501 0.33927,0.52421 0.67947,1.08717 1.44236,0.66321 1.10206,-0.6113 1.78235,-0.19967 2.05488,0.91565 0.30322,1.23673 1.74022,2.89305 0.58883,3.64511 -2.14985,1.40383 -1.10124,2.68365 -0.5774,4.16138 0.64949,1.83223 1.2682,3.67676 1.901,5.51599 2.93117,5.73235 7.00046,10.22364 13.20908,12.53961 1.66719,0.62192 3.27301,1.27982 4.26528,-0.63244 0.90966,-1.75212 -0.68823,-2.60011 -1.90543,-3.3099 -3.75556,-2.18846 -5.20225,-5.54944 -5.25766,-9.73546 -0.0246,-1.81377 0.86836,-2.96866 2.41001,-3.57033 8.23435,-3.21496 16.48992,-6.37185 24.73837,-9.54986 0.006,0.28413 0.0221,0.56734 0.0221,0.85323 0,19.87462 -16.09884,35.98543 -35.95765,35.98543 -19.85789,0 -35.95591,-16.11081 -35.95591,-35.98543 0,-17.77852 12.88556,-32.53565 29.81856,-35.45154 -0.004,0.10205 -0.009,0.20409 -0.0229,0.32016 -0.203,1.65895 1.46338,12.44467 -2.31412,12.29686 -0.60386,-0.0237 -1.36326,0.0123 -1.30434,0.87436 0.0545,0.80216 0.79801,0.81803 1.41156,0.82592 3.14376,0.0387 2.99348,0.0502 5.85606,0.0141 0.69873,-0.01 1.64887,0.11962 1.6945,-0.84792 0.0502,-1.05027 -0.93603,-0.87787 -1.61097,-0.88313 -3.32575,-0.0282 -1.76402,-10.47958 -2.03994,-11.99339 -0.0615,-0.33686 -0.0607,-0.60956 -0.0291,-0.84967 1.47398,-0.18472 2.97247,-0.29028 4.49651,-0.29028 16.12428,0 29.76923,10.62122 34.33073,25.25429 -0.2645,0.38263 -0.79101,0.72392 -1.64701,1.04584 v 0 z"
       style="fill:#ea2026;fill-opacity:1;fill-rule:evenodd;stroke:none;stroke-width:0.289805"
       id="path1603" />
    <path
       d="m 784.4991,512.22601 c 38.98136,-28.55498 78.20356,-56.78232 119.30639,-86.54105 -8.4443,0 -14.87244,0.003 -21.30057,0 -27.29197,-0.0101 -27.15777,0.17322 -49.05852,16.10414 -22.05201,16.03766 -44.46047,31.58318 -66.56014,47.5531 -3.24221,2.34407 -5.32193,1.73208 -8.20363,-0.27572 -22.58136,-15.74038 -45.24791,-31.35373 -67.89283,-47.00319 -20.64885,-14.27097 -41.22553,-28.64877 -62.00977,-42.71913 -4.53736,-3.07151 -6.66188,-6.08541 -6.61861,-12.04667 0.34327,-48.08718 0.0923,-96.17868 0.31876,-144.26729 0.0289,-5.88049 -0.71831,-8.92315 -6.88396,-8.2101 h -13.82117 c -7.57185,-0.0101 -6.48999,1.7797 -6.60982,5.74905 -0.12693,4.18586 -0.21769,10.41564 -0.37792,14.79788 -0.26248,7.20687 -0.20045,14.43548 -0.004,21.6453 0.0923,3.36464 -0.90135,4.67378 -4.43646,4.59149 -8.88865,-0.20781 -17.79014,-0.24392 -26.67591,-10e-4 -4.20711,0.11409 -5.34796,-1.56032 -5.28593,-5.51233 0.18321,-11.78405 -0.0952,-23.57665 0.15008,-35.35919 0.085,-4.11227 -1.19561,-5.50379 -5.29168,-5.28 l -16.5745,-0.0318 c -4.76227,-0.34789 -5.48768,1.78111 -5.47179,5.90066 0.12541,34.39783 0.12684,68.79862 -0.007,103.19796 -0.0173,4.16421 0.80332,6.37703 5.50514,5.8415 l 19.76905,-0.33196 c 2.52389,0.48208 1.56338,-7.4567 1.56338,-7.4567 0,0 0.0793,-27.02493 -0.17881,-34.23333 -0.1386,-3.88858 0.76141,-5.58168 5.09545,-5.43156 9.12222,0.31614 18.2676,0.2281 27.3971,0.0216 3.48305,-0.0793 4.4782,1.07824 4.4537,4.51933 -0.14282,20.68691 -0.0605,41.37533 -0.1053,62.06368 -0.003,1.32943 0.67217,3.03555 -0.83797,3.91598 -1.69894,0.9902 -2.67381,-0.70722 -3.55945,-1.60938 -7.92239,-8.06869 -17.31859,-9.58858 -28.59845,-9.74876 -9.19592,-0.13278 -18.5,0.16737 -29.96587,0.16737 11.55392,8.40208 21.26601,15.54265 31.05753,22.57208 56.94761,40.88167 113.87933,81.78355 170.90757,122.55121 9.48138,6.77824 28.95186,20.76488 29.37592,20.76488 0.53662,0 14.62449,-10.91217 21.43054,-15.89769 z"
       style="fill:#000000;fill-opacity:1;fill-rule:evenodd;stroke:none;stroke-width:0.475563"
       id="path1605" />
    <path
       d="m 787.77291,317.93308 c 0,-25.25386 -0.16867,-50.51068 0.13555,-75.76022 0.0649,-5.40991 -1.29228,-7.3224 -6.80165,-7.71796 l -19.47487,1.29332 c -2.23117,5.48349 -1.20863,13.71532 -1.24176,20.35926 l -0.17594,87.92385 c -0.0505,5.97867 1.81724,7.0323 9.58245,6.12439 l 27.17501,0.19343 c 7.0136,0.78815 9.0891,-1.78834 10.3655,-7.26176 l 15.99318,-59.15236 c 0,0 8.70256,44.72982 15.16956,60.19017 1.07747,2.57505 1.57218,6.7725 7.38881,6.81284 7.3829,0.0506 21.41179,0.66112 31.95897,0.003 9.55491,-0.59617 7.85023,-8.19716 7.85445,-11.49675 0.006,-2.70496 -0.1702,-5.44028 -0.15566,-8.21018 0.14992,-29.58696 -0.10682,-59.17832 0.21482,-88.76241 0.0706,-6.49534 -2.1519,-7.81893 -9.05598,-6.84759 l -11.92601,-0.0246 c -6.57956,-1.02048 -7.8012,1.12874 -7.75641,6.38134 0.21059,25.42131 0.098,50.84406 -1.25324,76.49348 -3.03027,-12.67455 -15.83025,-64.4179 -19.01195,-77.66121 -0.91876,-3.82506 -2.55854,-5.35789 -6.78441,-5.40416 -20.18728,-0.22226 -20.0906,-0.34489 -24.80526,19.19594 -4.82301,19.97537 -15.8938,62.35241 -16.44039,63.60386 -0.31876,-0.0909 -0.636,-0.18336 -0.95477,-0.27571 v 0 z"
       style="fill:#000000;fill-opacity:1;fill-rule:evenodd;stroke:none;stroke-width:0.475563"
       id="path1607" />
    <path
       d="m 900.2692,293.52784 -0.0938,51.20064 c -0.0634,4.40956 1.15099,5.71302 5.61771,5.67978 26.89951,-0.19917 53.80478,-0.21363 80.7043,0.009 4.83314,0.0389 5.98261,-1.4853 5.99258,-6.13886 0.0477,-18.21148 0.21211,-18.21148 -18.23009,-18.21148 l -33.86562,0.0967 c 0,0 -5.77624,-0.77217 -5.75461,-5.45026 0.0592,-13.39774 -0.19335,-13.39918 12.83024,-13.40062 l 35.30647,0.0736 c 3.74131,0.0635 5.41726,-0.46186 5.49788,-4.92199 0.3289,-18.14797 0.51059,-18.1451 -17.54355,-18.1451 l -30.26139,0.0793 c 0,0 -5.79652,-0.62789 -5.8354,-5.38387 -0.13554,-17.35702 -0.35053,-17.35559 16.95234,-17.35559 12.24899,0 36.74715,0.0924 36.74715,0.0924 4.38881,0.0982 5.98836,-1.10133 5.6407,-5.63648 l -0.023,-15.85583 c 0.20468,-3.92325 -1.3991,-4.83108 -5.04644,-4.81526 0,0 -55.72597,0.15156 -83.58752,-0.0216 -4.29517,-0.0274 -5.12723,5.46192 -5.12723,5.46192 l 0.0793,52.64399 v 0 z"
       style="fill:#000000;fill-opacity:1;fill-rule:evenodd;stroke:none;stroke-width:0.475563"
       id="path1609" />
    <path
       d="m 878.5199,411.56259 c 0.96777,4.19744 2.87003,5.2049 6.88244,5.19771 11.38955,-0.0216 11.35051,0.1458 14.71677,-10.87319 l 6.59834,-20.44155 5.12587,26.37396 c 0.9431,4.58861 2.24418,8.3039 14.81345,4.7575 3.06897,-0.86461 1.3413,-7.58948 1.3413,-7.58948 l -9.15417,-44.27802 c -1.02388,-5.60765 -1.24023,-7.33542 -3.63009,-7.33542 h -13.29469 c -3.83207,-0.0693 -4.3888,2.0078 -5.64644,8.09321 -1.92541,9.32445 -7.76521,28.70222 -7.76521,28.70222 l -8.40543,-30.40835 c -1.04704,-4.64053 -2.77775,-6.19079 -7.55461,-6.11425 -13.0552,0.21076 -12.89075,0.0174 -15.45943,13.03399 -2.63224,13.33423 -5.56278,26.61069 -8.52662,39.87565 -0.91014,4.07041 -1.18276,6.42455 4.51134,6.25566 10.72026,-0.3175 10.7593,0.0679 13.02071,-10.27558 1.42919,-6.53577 4.67427,-19.61019 4.67427,-19.61019 z"
       style="fill:#000000;fill-opacity:1;fill-rule:evenodd;stroke:none;stroke-width:0.475563"
       id="path1611" />
    <path
       d="m 952.01742,387.54141 c 0,0 -0.21482,-16.09111 0.088,-24.12081 0.16006,-4.23356 -0.7631,-5.82991 -5.46052,-5.78373 -11.78319,0.11832 -11.78471,-0.16027 -11.78471,11.55012 10e-4,13.45551 0.26264,26.91964 -0.12254,40.365 -0.16005,5.49212 1.12784,7.31808 6.98199,7.3339 7.05265,0.0188 11.25688,-1.39574 15.44946,-8.27217 5.08835,-8.34288 16.75763,-24.32142 16.75763,-24.32142 l -0.0996,26.27289 c -0.20197,4.59149 0.35188,6.32214 5.86277,6.1244 h 4.31377 c 5.8599,0.19774 7.39878,-1.04357 7.22571,-6.93699 l -0.0605,-46.85019 c 0.0592,-4.08775 -1.16975,-4.89747 -5.17201,-5.33481 -8.50921,-0.92956 -14.4254,1.38568 -18.7204,9.22043 l -13.85142,20.85876 z"
       style="fill:#000000;fill-opacity:1;fill-rule:evenodd;stroke:none;stroke-width:0.475563"
       id="path1613" />
    <path
       d="m 804.27246,386.16723 c 0.20332,-2.11605 0.33465,-4.02567 0.57549,-5.92082 0.7702,-6.02198 4.40469,-9.39228 10.21254,-10.14144 6.28836,-0.8126 10.86173,2.09584 12.58669,8.10184 1.58637,5.52543 1.6124,11.39577 0.11814,16.99327 -1.84023,6.88937 -9.07457,10.06634 -15.82585,7.56495 -8.28865,-3.07158 -7.07851,-10.29875 -7.66701,-16.5978 z m 42.55669,1.04933 c -0.004,-20.10377 -10.1953,-30.68399 -29.6384,-30.77059 -20.11375,-0.0909 -31.87818,11.25284 -31.79317,30.65802 0.0823,18.72823 12.58382,31.04773 31.36201,30.65657 19.2599,-0.40122 31.11238,-11.90812 30.06956,-30.544 z"
       style="fill:#000000;fill-opacity:1;fill-rule:evenodd;stroke:none;stroke-width:0.475563"
       id="path1615" />
    <path
       d="m 744.99566,387.09967 c 0,-4.06322 -0.013,-8.12636 0.007,-12.18959 0.007,-1.64692 -0.16884,-3.28666 1.89803,-4.13537 4.94689,-2.02801 12.58213,0.75779 14.61149,5.81554 2.68394,6.6902 2.57155,13.58964 0.01,20.28271 -2.37533,6.20813 -8.03766,6.30048 -13.27593,5.86459 -3.87973,-0.32189 -3.52344,-5.7 -3.29849,-7.48402 0.0607,-0.48073 0.0823,-0.96568 0.0808,-1.45063 l -0.0331,-6.70323 v 0 z m -17.82918,0.0534 c 0,8.39633 0.0808,16.79266 -0.0477,25.18755 -0.0433,2.87816 0.53662,4.52077 3.88987,4.35188 10.4953,-0.52978 21.04401,0.87179 31.51328,-1.07825 8.92752,-1.66138 16.57881,-9.29992 17.85944,-18.21148 1.0298,-7.15502 1.08744,-14.30278 0.001,-21.46499 -1.36445,-8.9996 -10.41028,-17.33817 -20.66034,-17.93577 -9.55643,-0.55718 -19.17048,-0.0635 -28.75293,-0.29881 -3.38063,-0.0837 -3.90999,1.3554 -3.85658,4.2624 0.15009,8.39346 0.0534,16.79123 0.0534,25.18747 v 0 z"
       style="fill:#000000;fill-opacity:1;fill-rule:evenodd;stroke:none;stroke-width:0.475563"
       id="path1617" />
    <path
       d="m 529.29511,213.02517 h 465.00001 v 2.16387 H 529.29511 Z"
       style="fill:#000000;fill-opacity:1;fill-rule:evenodd;stroke:none;stroke-width:0.475563"
       id="path1619" />
    <path
       d="m 529.29511,153.12369 h 465.00001 v 2.16388 H 529.29511 Z"
       style="fill:#000000;fill-opacity:1;fill-rule:evenodd;stroke:none;stroke-width:0.475563"
       id="path1621" />
    <path
       d="m 559.53492,169.11121 c -0.44079,0.26472 -0.73741,0.52995 -0.89054,0.79513 0.0382,-0.0611 -0.19166,1.13157 -0.68941,3.57823 -0.19166,0.91747 -0.45008,2.13027 -0.77544,3.63934 -0.34478,1.69213 -0.60321,2.91542 -0.7756,3.66995 -0.47899,2.36493 -0.70868,3.60881 -0.68941,3.73115 0.0762,0.50939 0.45955,1.09046 1.14896,1.74321 0.8231,0.81526 1.33082,1.37624 1.52248,1.68206 1.03403,1.83498 1.45505,4.16933 1.26372,7.00351 -0.22969,2.95602 -1.17769,5.45381 -2.84367,7.49282 -1.76197,2.12025 -4.05009,3.40473 -6.8652,3.85344 -0.84288,0.14242 -1.65651,-0.0611 -2.44142,-0.61165 -0.84304,-0.55049 -1.25459,-1.23381 -1.23516,-2.04907 0,-0.81568 0.17223,-1.61086 0.51702,-2.38548 0.32535,-0.73398 0.66997,-1.17263 1.03403,-1.31505 0.53595,-0.22459 0.92857,-0.48931 1.17769,-0.79517 0.70818,-0.85632 1.10097,-2.29371 1.1777,-4.31217 0.0575,-2.01846 -0.23966,-3.6193 -0.89037,-4.80152 -0.28733,-0.48935 -0.71814,-0.8869 -1.29262,-1.19276 -0.44079,-0.22459 -0.82361,-0.67279 -1.14897,-1.34563 -0.32586,-0.67283 -0.51718,-1.36622 -0.57448,-2.07965 -0.0769,-1.12155 -0.01,-1.9678 0.20096,-2.53839 0.0764,-0.24467 0.33482,-0.57104 0.77561,-0.97865 0.42102,-0.42816 0.67944,-0.74451 0.77561,-0.94804 0.19115,-0.48935 0.35408,-1.23386 0.48828,-2.23257 0.1724,-1.34566 0.28716,-2.15132 0.34462,-2.41604 1.24463,-5.99428 1.9915,-9.47069 2.24063,-10.42879 0.21042,-0.83628 0.68924,-1.57026 1.43612,-2.20199 0.74687,-0.61164 1.52248,-0.928 2.32665,-0.94808 0.80434,-0.0205 1.61798,-0.0205 2.44159,0 0.82327,0.0201 1.56068,0.31588 2.21189,0.88693 0.68941,0.5911 1.02423,1.26393 1.0053,2.01846 -0.0575,1.97736 -0.38333,3.13955 -0.97657,3.48647 z m -19.64761,37.34175 c -1.80017,0.0812 -3.31319,0.0918 -4.53846,0.0306 -0.82352,-0.0411 -1.5704,-0.35695 -2.24046,-0.94804 -0.67056,-0.63219 -0.996,-1.3151 -0.97665,-2.04908 0.0381,-0.81568 0.15304,-1.52915 0.34471,-2.1408 0.24862,-0.69338 0.54574,-1.0809 0.89045,-1.16214 0.3447,-0.0612 0.64133,-0.47928 0.89045,-1.2539 0.22978,-0.71394 0.34471,-1.52916 0.34471,-2.44662 0.15304,-7.93151 0.15304,-15.85249 0,-23.76298 0,-0.91746 -0.11493,-1.73319 -0.34471,-2.44662 -0.22977,-0.7751 -0.5269,-1.18271 -0.89045,-1.22335 -0.6513,-0.0817 -1.00538,-0.2958 -1.06285,-0.64222 -0.11484,-0.71393 -0.17231,-1.61085 -0.17231,-2.69129 0,-0.73403 0.31597,-1.40682 0.94792,-2.01851 0.61259,-0.61164 1.32127,-0.93801 2.12561,-0.97865 1.56998,-0.0812 3.14038,-0.0812 4.71078,0 0.80434,0.0406 1.50304,0.40765 2.09696,1.10099 0.57448,0.67284 0.8711,1.44746 0.89037,2.32433 0.36355,12.37557 0.36355,24.73106 0,37.0665 -0.0193,0.85631 -0.32586,1.60036 -0.9191,2.23256 -0.57448,0.63173 -1.27387,0.96813 -2.09697,1.00923 z"
       style="fill:#000000;fill-opacity:1;fill-rule:evenodd;stroke:none;stroke-width:0.475563"
       id="path1623" />
    <path
       d="m 590.71609,173.48457 c -0.0385,0.87637 -0.36389,1.66152 -0.97657,2.35486 -0.65121,0.71347 -1.36936,1.07042 -2.15443,1.07042 h -0.48828 c -0.86163,-0.0206 -1.66598,-0.32637 -2.41285,-0.91751 -0.80434,-0.65275 -1.1777,-1.38673 -1.12023,-2.20194 0.0188,-0.16344 0.0669,-0.58107 0.14366,-1.25391 0.038,-0.50986 0.0668,-0.90744 0.0862,-1.19271 0.0188,-0.89743 -0.1342,-1.53969 -0.45972,-1.92674 -0.38316,-0.46927 -1.29262,-0.62218 -2.72874,-0.45874 -0.78541,0.0812 -1.48429,-0.2141 -2.09697,-0.88693 -0.61301,-0.6322 -0.9191,-1.34563 -0.9191,-2.1408 0,-0.77509 0.30609,-1.50907 0.9191,-2.20195 0.61268,-0.69339 1.31156,-1.05033 2.09697,-1.07042 0.38282,0 0.94783,0.01 1.69471,0.0306 0.80434,0.0201 1.38828,0.0306 1.75217,0.0306 0.32535,0 0.91927,-0.0105 1.78091,-0.0306 h 1.75217 c 0.78507,0 1.50322,0.35648 2.15443,1.07042 0.61268,0.69288 0.93803,1.47803 0.97657,2.35486 0.13369,2.44666 0.13369,4.90331 0,7.37052 v 0 z m -13.12703,11.56036 c 0,-0.79517 0.21043,-1.51913 0.63195,-2.17142 0.42102,-0.67283 0.89983,-1.00923 1.43611,-1.00923 0.53595,0 1.03421,0.3364 1.49376,1.00923 0.47848,0.67284 0.71814,1.39633 0.71814,2.17142 0,0.77458 -0.23966,1.49854 -0.71814,2.17137 -0.45955,0.67284 -0.95781,1.00923 -1.49376,1.00923 -0.53628,0 -1.01509,-0.33639 -1.43611,-1.00923 -0.42152,-0.65275 -0.63195,-1.37624 -0.63195,-2.17137 z m 3.0448,15.01621 c 0.76564,0.0406 1.46485,-0.2958 2.0968,-1.00923 0.63194,-0.71394 0.93803,-1.48852 0.91927,-2.32433 0,-0.0817 -0.01,-0.20404 -0.0288,-0.36697 v -0.36701 c -0.0387,-0.83623 0.28716,-1.5903 0.97657,-2.26314 0.65087,-0.65275 1.38828,-0.97865 2.21189,-0.97865 h 0.74671 c 0.80433,0 1.52248,0.33643 2.15442,1.00923 0.63195,0.65228 0.96677,1.40681 1.00531,2.26313 0.13368,2.34437 0.13368,4.69927 0,7.06466 -0.0386,0.85636 -0.37336,1.62092 -1.00531,2.29375 -0.63194,0.6728 -1.34062,1.02928 -2.12569,1.07038 -1.68525,0.0812 -3.89697,0.0712 -6.63534,-0.0306 -0.84288,-0.0206 -1.60852,-0.32637 -2.29793,-0.91746 -0.74687,-0.63224 -1.11076,-1.34567 -1.09149,-2.14085 0,-0.83623 0.31588,-1.60079 0.94783,-2.29371 0.65087,-0.69338 1.35955,-1.02978 2.1257,-1.00923 v 0 z m -8.84724,6.42239 c -1.37865,0.0612 -3.12153,0.0507 -5.22779,-0.0306 -0.8618,-0.0411 -1.65651,-0.34693 -2.38412,-0.91747 -0.78541,-0.61168 -1.16823,-1.32558 -1.14896,-2.1408 0,-0.83627 0.21042,-1.60083 0.63195,-2.29375 0.38281,-0.67279 0.80434,-1.00923 1.26389,-1.00923 0.42101,-0.0205 0.79437,-0.3775 1.12023,-1.07038 0.32535,-0.69338 0.50721,-1.47849 0.54574,-2.3549 0.28733,-8.07388 0.28733,-16.12773 0,-24.16051 -0.0385,-0.87687 -0.22039,-1.66202 -0.54574,-2.3549 -0.34479,-0.73398 -0.73741,-1.11148 -1.1777,-1.13157 -0.45955,-0.0205 -0.88107,-0.35695 -1.26389,-1.00923 -0.36406,-0.65275 -0.54575,-1.37624 -0.54575,-2.17137 -0.0193,-0.77509 0.31589,-1.4785 1.0053,-2.11023 0.65088,-0.61169 1.38829,-0.93806 2.2119,-0.97866 1.83837,-0.12233 3.67657,-0.12233 5.51494,0 0.80434,0.0406 1.50322,0.39755 2.09697,1.07038 0.57448,0.67284 0.8711,1.43739 0.89036,2.29371 0.34479,12.35553 0.34479,24.66996 0,36.94421 -0.0193,0.8764 -0.31588,1.65149 -0.89036,2.32433 -0.59375,0.69287 -1.29263,1.05988 -2.09697,1.10094 v 0 z"
       style="fill:#000000;fill-opacity:1;fill-rule:evenodd;stroke:none;stroke-width:0.475563"
       id="path1625" />
    <path
       d="m 618.10575,206.48353 c -1.11093,0.0406 -2.43229,0.0306 -3.96407,-0.0306 -0.84287,-0.0206 -1.60851,-0.31631 -2.29792,-0.88689 -0.72795,-0.5916 -1.07274,-1.2644 -1.03403,-2.01846 0.0762,-2.1408 0.43081,-3.26235 1.06276,-3.36413 0.30608,-0.0612 0.59341,-0.46927 0.86181,-1.22334 0.22969,-0.69334 0.36338,-1.47849 0.40208,-2.35485 0.0762,-1.34567 0.11493,-3.38469 0.11493,-6.11662 0,-2.773 0.0287,-4.74033 0.0862,-5.90252 0,-0.18348 0.0286,-0.47928 0.086,-0.88689 0.0382,-0.38752 0.0575,-0.68332 0.0575,-0.88689 0,-0.24468 -0.0575,-0.39759 -0.17223,-0.45874 -0.13419,-0.0612 -0.29712,-0.0411 -0.48845,0.0611 -0.45954,0.28527 -0.78541,0.82575 -0.97656,1.62088 -0.0575,0.20357 -0.16293,0.62171 -0.31589,1.2539 -0.11493,0.52995 -0.22039,0.94809 -0.31606,1.25391 -0.21093,0.81521 -0.46952,1.18223 -0.77561,1.10099 -0.28715,-0.0817 -0.45008,-0.55049 -0.48828,-1.40681 -0.38332,-11.33624 -0.15346,-18.24798 0.68941,-20.73524 0.26789,-0.77509 0.86181,-1.43739 1.78091,-1.98789 0.8618,-0.53041 1.71364,-0.81568 2.55651,-0.85632 h 1.03404 c 0.78507,0 1.47431,0.35648 2.06823,1.07042 0.59324,0.69288 0.89983,1.47799 0.9191,2.35486 0.0764,2.93597 0.0764,8.04331 0,15.32207 -0.0385,6.60593 0.009,11.66214 0.14366,15.16912 0.0382,0.89696 0.16242,1.69213 0.37336,2.38547 0.22985,0.75407 0.48828,1.15166 0.7756,1.19276 0.30609,0.0611 0.55521,0.44821 0.74688,1.16214 0.17239,0.65229 0.25842,1.38627 0.25842,2.20195 0,0.73403 -0.33516,1.40682 -1.0053,2.0185 -0.65121,0.5911 -1.37882,0.90698 -2.18299,0.94804 v 0 z m -12.29412,-3.11945 c -0.38333,0.79517 -0.95781,1.49858 -1.72345,2.11022 -0.80433,0.63173 -1.59921,0.95811 -2.38411,0.97866 -1.3981,0.0812 -3.131,0.0812 -5.19923,0 -0.86164,-0.0411 -1.64705,-0.3364 -2.35539,-0.88689 -0.78541,-0.59161 -1.16823,-1.27446 -1.14896,-2.04908 0.0189,-0.83624 0.1724,-1.5903 0.45955,-2.26314 0.26806,-0.69334 0.57448,-1.07038 0.91927,-1.13156 0.32535,-0.0411 0.59324,-0.45874 0.80434,-1.25387 0.19116,-0.69338 0.29662,-1.49858 0.31589,-2.41609 0.0762,-3.03822 0.10496,-6.92223 0.0862,-11.65207 -0.0192,-7.19753 -0.0288,-11.12218 -0.0288,-11.77446 0,-0.91747 -0.096,-1.72313 -0.28733,-2.41605 -0.21092,-0.79513 -0.47881,-1.23382 -0.80417,-1.31505 -0.36405,-0.0817 -0.68941,-0.42816 -0.97673,-1.03981 -0.30642,-0.63224 -0.45955,-1.32558 -0.45955,-2.07965 0,-0.75453 0.30608,-1.45794 0.91927,-2.11022 0.61251,-0.67284 1.31138,-1.02979 2.09679,-1.07042 1.35956,-0.10225 2.8724,-0.10225 4.53855,0 0.82311,0.0612 1.56051,0.3871 2.21173,0.97865 0.67014,0.61169 1.00529,1.29455 1.00529,2.04908 -0.0193,0.75407 -0.15346,1.46796 -0.40208,2.1408 -0.2684,0.67283 -0.56502,1.05989 -0.89054,1.16214 -0.65121,0.20357 -0.97656,1.48805 -0.97656,3.85348 -0.0193,5.68842 -0.11493,10.23477 -0.28716,13.63997 0,0.22412 -0.0287,0.65228 -0.0862,1.28448 -0.0575,0.57058 -0.0862,1.00923 -0.0862,1.31509 -0.0193,0.73398 0.19115,1.0804 0.63194,1.03981 0.44028,-0.0411 0.78491,-0.46927 1.03403,-1.28448 0.15313,-0.48935 0.36355,-1.27446 0.63195,-2.3549 0.28732,-1.06036 0.50721,-1.85553 0.66068,-2.38548 0.7849,-2.52832 1.28265,-4.04745 1.49358,-4.55684 0.30609,-0.79518 0.62214,-1.1421 0.948,-1.03981 0.34462,0.10179 0.52648,0.58107 0.54575,1.43739 0.34462,9.9901 0.41155,16.20897 0.20112,18.65559 -0.0962,1.18223 -0.56518,2.66072 -1.40755,4.43451 v 0 z"
       style="fill:#000000;fill-opacity:1;fill-rule:evenodd;stroke:none;stroke-width:0.475563"
       id="path1627" />
    <path
       d="m 642.22058,205.59664 c -0.67048,0.28527 -1.34992,0.47882 -2.03933,0.58107 -0.59375,0.10179 -0.91927,0.10179 -0.97673,0 -0.0386,-0.0611 -0.0573,-0.15291 -0.0573,-0.27525 0,-0.30582 -0.0674,-1.27441 -0.20112,-2.90535 -0.11494,-1.30503 -0.096,-2.3549 0.0575,-3.15007 0.0762,-0.40808 0.29662,-0.928 0.66068,-1.55973 0.40208,-0.67279 0.64124,-1.19272 0.71814,-1.55973 0.47831,-1.85553 0.70817,-5.99424 0.68924,-12.41667 0,-6.62644 -0.22969,-10.81631 -0.68924,-12.56959 -0.0769,-0.34693 -0.31606,-0.86681 -0.71814,-1.55973 -0.38333,-0.65275 -0.60321,-1.17267 -0.66068,-1.55973 -0.19166,-1.0809 -0.22986,-2.23256 -0.11493,-3.45585 0.0762,-0.85632 0.46901,-1.53968 1.17769,-2.04908 0.70818,-0.4893 1.42632,-0.58107 2.15426,-0.27524 1.2639,0.55049 2.36486,1.29454 3.30339,2.23256 2.02953,2.03855 3.58075,5.08679 4.65331,9.14431 1.0342,3.89407 1.45505,8.01274 1.26389,12.35548 -0.21092,4.50576 -1.0533,8.42035 -2.52778,11.74388 -1.62778,3.6494 -3.85894,6.07547 -6.69281,7.27872 z m -7.38205,-34.00823 c -0.45972,1.65149 -0.68941,5.89198 -0.68941,12.7225 0,7.05417 0.22969,11.34629 0.68941,12.87545 0.0762,0.26472 0.33482,0.7034 0.77544,1.31505 0.42102,0.59109 0.67014,1.09046 0.74688,1.49858 v 3.70053 c 0,1.08044 -0.0193,1.71264 -0.0575,1.89612 -0.096,0.61169 -0.40209,0.91751 -0.9191,0.91751 -1.72344,-0.0411 -3.57179,-0.97866 -5.54385,-2.81363 -2.16423,-2.01851 -3.81094,-5.0873 -4.94063,-9.20546 -1.07274,-3.91463 -1.49358,-8.08442 -1.26389,-12.50844 0.22985,-4.56737 1.12969,-8.5226 2.70018,-11.86618 1.70417,-3.6905 4.01155,-6.1271 6.92249,-7.30933 0.74688,-0.28527 1.44575,-0.173 2.09697,0.3364 0.6507,0.48935 1.01476,1.1722 1.09149,2.04907 0.1337,1.40682 0.10496,2.54841 -0.0862,3.42528 -0.0575,0.32591 -0.29713,0.8052 -0.71814,1.43739 -0.44063,0.65229 -0.70869,1.16219 -0.80418,1.52916 z"
       style="fill:#000000;fill-opacity:1;fill-rule:evenodd;stroke:none;stroke-width:0.475563"
       id="path1629" />
    <path
       d="m 682.13406,206.39181 c -2.54705,0.16293 -5.09411,0.16293 -7.64065,0 -0.80433,-0.0411 -1.53228,-0.35694 -2.18316,-0.94808 -0.67048,-0.6322 -1.0053,-1.32558 -1.0053,-2.07965 0,-0.77509 0.18169,-1.48852 0.54575,-2.1408 0.38282,-0.6322 0.78491,-0.94804 1.20643,-0.94804 0.40208,0.02 0.71814,-0.34693 0.94783,-1.101 0.22986,-0.75453 0.26806,-1.5497 0.11493,-2.38547 -0.15346,-0.89742 -0.60321,-2.68127 -1.35009,-5.35202 -0.63177,-2.30424 -1.0151,-4.1593 -1.14896,-5.56612 v -17.61574 c 0,-0.28578 -0.01,-0.74451 -0.0287,-1.37624 -0.0193,-0.5916 -0.0287,-1.05033 -0.0287,-1.37624 0,-0.75454 0.28733,-1.29501 0.86181,-1.62088 0.57448,-0.32637 0.96676,-0.17346 1.17769,0.45874 0.0957,0.28527 0.19116,0.68285 0.28733,1.19271 0.11476,0.63173 0.19115,0.99874 0.22969,1.101 0.8231,3.22124 1.9915,8.01274 3.50435,14.37398 1.51251,6.3407 2.69037,11.14222 3.53325,14.40457 0.70817,2.83372 1.20642,4.35281 1.49358,4.55684 0.19115,0.14243 0.58395,0.24468 1.1777,0.30587 0.34478,0.0406 0.65087,0.36697 0.91926,0.97861 0.28716,0.63174 0.43082,1.33514 0.43082,2.11023 0,0.75407 -0.30659,1.43743 -0.91927,2.04908 -0.61301,0.61164 -1.32118,0.93755 -2.12552,0.97865 v 0 z m -13.52928,-40.36948 v 19.11432 c -0.15347,1.52916 -0.56502,3.49649 -1.23516,5.90252 -0.80417,2.91542 -1.29246,4.83209 -1.46485,5.7496 -0.15347,0.83577 -0.1342,1.62088 0.0575,2.35486 0.17223,0.73402 0.44029,1.11106 0.80418,1.13161 0.36354,0.02 0.69887,0.35648 1.00546,1.00923 0.28716,0.65228 0.44028,1.3762 0.45955,2.17137 0,0.77462 -0.33532,1.46797 -1.00529,2.07965 -0.65139,0.5911 -1.37883,0.89692 -2.18317,0.91747 -0.45955,0 -3.10226,-0.0105 -7.92797,-0.0306 -0.86163,0 -1.66597,-0.25516 -2.41285,-0.76455 -0.8236,-0.57105 -1.22569,-1.25391 -1.20643,-2.04908 0,-0.83624 0.1724,-1.60083 0.51702,-2.29371 0.34479,-0.67284 0.69888,-1.01976 1.06293,-1.03981 0.65071,-0.0612 1.06277,-0.16344 1.23516,-0.30586 0.24862,-0.18349 0.70818,-1.65145 1.37865,-4.40394 0.19133,-0.75453 0.40226,-1.61085 0.63195,-2.56895 0.28733,-1.26444 0.44975,-1.96785 0.48845,-2.11023 3.58058,-15.14907 5.59134,-23.52878 6.03213,-25.13917 0.2297,-0.81573 0.55505,-1.52916 0.97657,-2.1408 0.44028,-0.63224 0.84237,-0.94808 1.20643,-0.94808 0.36355,0 0.70817,0.34646 1.03403,1.0398 0.30608,0.69292 0.48828,1.46801 0.54575,2.32433 v 0 z"
       style="fill:#000000;fill-opacity:1;fill-rule:evenodd;stroke:none;stroke-width:0.475563"
       id="path1631" />
    <path
       d="m 717.48042,169.05002 c -0.72812,0.14243 -1.27386,1.33514 -1.63741,3.57823 -1.83838,11.0911 -3.04481,19.0632 -3.61928,23.91585 -0.11494,0.8764 -0.096,1.67153 0.0575,2.38547 0.15313,0.73398 0.40209,1.12104 0.74688,1.16214 0.36355,0.0406 0.67943,0.39759 0.94783,1.07042 0.28732,0.67284 0.43099,1.40682 0.43099,2.20195 0.0188,0.77462 -0.31606,1.47803 -1.00547,2.11022 -0.65121,0.65229 -1.38862,0.98872 -2.21173,1.00923 -0.996,0.0406 -2.18299,0.0306 -3.56181,-0.0306 -0.82361,-0.0206 -1.57995,-0.27525 -2.26919,-0.76456 -0.72811,-0.53041 -1.10147,-1.12154 -1.1204,-1.77382 0,-0.30583 0.009,-0.73398 0.0287,-1.28448 0.0382,-0.57105 0.0575,-0.97866 0.0575,-1.22329 0,-3.09941 0.36355,-8.07393 1.0915,-14.92449 0.22986,-2.20199 0.0957,-3.45589 -0.40209,-3.76172 -0.45955,-0.28573 -0.68941,-1.17267 -0.68941,-2.66072 0,-0.59156 0.0957,-1.14205 0.28733,-1.65145 0.21042,-0.53045 0.47848,-0.83627 0.80417,-0.91751 0.32552,-0.0611 0.65087,-0.45873 0.97673,-1.19271 0.32535,-0.69339 0.54575,-1.46801 0.66068,-2.32433 0.0762,-0.44871 0.13369,-0.88689 0.17223,-1.31505 0.0957,-0.85632 0.0477,-1.65149 -0.1435,-2.38547 -0.19166,-0.75454 -0.45025,-1.16215 -0.77561,-1.22334 -0.32585,-0.0611 -0.62247,-0.41809 -0.89053,-1.07037 -0.28716,-0.65275 -0.43082,-1.36623 -0.43082,-2.1408 -0.0192,-0.77509 0.30608,-1.49858 0.97674,-2.17142 0.66997,-0.63219 1.40738,-0.95857 2.21172,-0.97865 0.45955,-0.0206 1.0915,-0.0206 1.89584,0 0.93803,0.0201 1.57978,0.0306 1.92457,0.0306 0.36355,0 1.01476,-0.0105 1.95313,-0.0306 0.82327,-0.0206 1.45521,-0.0306 1.89584,-0.0306 0.78507,0.0201 1.49375,0.37704 2.12569,1.07042 0.61251,0.69288 0.9191,1.42686 0.9191,2.20195 -0.0193,0.75407 -0.17239,1.44745 -0.45955,2.07965 -0.26839,0.63173 -0.58445,0.97866 -0.94783,1.03981 v 0 z m -15.79847,34.03881 c -0.0387,0.85636 -0.38333,1.63094 -1.0342,2.32433 -0.63195,0.69287 -1.34992,1.04986 -2.15426,1.07037 -0.93854,0.0406 -2.03004,0.0406 -3.27466,0 -0.86164,-0.0411 -1.65651,-0.35694 -2.38412,-0.94804 -0.78541,-0.63219 -1.16823,-1.34567 -1.14896,-2.1408 0,-0.81572 0.16242,-1.57025 0.48828,-2.26313 0.30608,-0.65279 0.62215,-0.99921 0.948,-1.03985 0.30609,-0.0206 0.52649,-0.40807 0.66068,-1.16214 0.13369,-0.71394 0.16242,-1.50907 0.0862,-2.38547 -0.0194,-0.10226 -0.95781,-6.70818 -2.81511,-19.81773 -0.0575,-0.32638 -0.12473,-0.93806 -0.20096,-1.83498 -0.0769,-1.01976 -0.14366,-1.77383 -0.20112,-2.26314 -0.21093,-1.87608 -0.54575,-2.99716 -1.0053,-3.36413 -0.1724,-0.14289 -0.54592,-0.23465 -1.1204,-0.27524 -0.32586,-0.0206 -0.62248,-0.34693 -0.89037,-0.97866 -0.2684,-0.6322 -0.40209,-1.32558 -0.40209,-2.07965 0,-0.77509 0.30609,-1.50907 0.91911,-2.20195 0.61268,-0.69339 1.31138,-1.05033 2.09696,-1.07042 0.45955,0 1.0915,0.01 1.89567,0.0306 0.95747,0.0201 1.61814,0.0306 1.98203,0.0306 0.32536,0 0.98603,-0.0105 1.98204,-0.0306 h 1.9533 c 0.80417,0.0201 1.52231,0.34646 2.15426,0.97866 0.61268,0.63173 0.9093,1.33514 0.89054,2.11022 0,0.79518 -0.11493,1.51863 -0.3448,2.17138 -0.21092,0.67283 -0.48828,1.03984 -0.8329,1.10099 -0.55572,0.10179 -0.9098,0.32591 -1.06293,0.67284 -0.28716,0.59109 -0.19166,1.95731 0.28732,4.09811 0.51702,2.28322 0.96677,3.48647 1.35009,3.6088 0.30609,0.10179 0.57449,0.39755 0.80418,0.8869 0.24862,0.50939 0.37352,1.0398 0.37352,1.5903 -0.0195,0.32591 -0.2204,1.02932 -0.60321,2.11022 -0.38333,1.101 -0.58446,1.95732 -0.60322,2.56896 -0.0194,0.22413 0.14349,1.86559 0.48829,4.92386 0.6507,5.85139 0.89037,10.37766 0.71814,13.57882 z"
       style="fill:#000000;fill-opacity:1;fill-rule:evenodd;stroke:none;stroke-width:0.475563"
       id="path1633" />
    <path
       d="m 749.98294,203.18059 c -0.0385,0.85632 -0.37335,1.62092 -1.0053,2.29371 -0.63195,0.65229 -1.35009,0.98872 -2.15443,1.00923 h -0.22969 c -0.8236,0.0201 -1.58975,-0.32637 -2.29792,-1.0398 -0.70868,-0.73398 -1.02474,-1.51909 -0.948,-2.3549 0.0575,-0.6322 0.19115,-1.4173 0.40225,-2.35486 0.22969,-1.0604 0.35409,-1.64147 0.37335,-1.74325 0.0957,-0.69335 0.0862,-2.35486 -0.0287,-4.98501 -0.0575,-0.87687 0.22986,-1.69255 0.8618,-2.44662 0.61251,-0.77509 1.31139,-1.16214 2.0968,-1.16214 0.76564,0 1.44558,0.38705 2.0395,1.16214 0.55521,0.73398 0.84237,1.55973 0.86164,2.47719 0.11492,3.87353 0.12439,6.92182 0.0287,9.14431 z m -8.10019,-34.16114 c -0.40226,0.0201 -0.75685,0.41763 -1.06294,1.19276 -0.26839,0.73398 -0.41188,1.55972 -0.43081,2.47719 -0.0386,2.28322 -0.0575,10.55113 -0.0575,24.80278 0,0.57054 0.0382,1.53917 0.11493,2.90535 0.0762,1.22334 0.10496,2.17142 0.0862,2.84425 -0.0387,0.83577 -0.41206,1.56975 -1.12023,2.20195 -0.68941,0.63173 -1.44609,0.96813 -2.26936,1.00923 -1.22569,0.0406 -2.27899,0.0507 -3.15956,0.0306 -0.80434,-0.0411 -1.53229,-0.40807 -2.18316,-1.10095 -0.67048,-0.69339 -1.0151,-1.468 -1.03403,-2.32433 -0.0192,-0.75453 -0.0192,-1.78431 0,-3.08888 0.0189,-1.71264 0.0287,-2.69129 0.0287,-2.93593 v -18.50271 c 0,-0.40808 0.0287,-1.15208 0.0862,-2.23252 0.0575,-1.26444 0.0955,-2.19197 0.11493,-2.78306 0.0575,-2.26314 -0.0962,-3.62936 -0.45972,-4.09812 -0.19166,-0.22458 -0.67995,-0.36701 -1.46485,-0.42816 -0.42152,-0.0205 -0.80434,-0.36701 -1.14896,-1.03984 -0.34479,-0.65275 -0.51702,-1.38673 -0.51702,-2.20195 -0.0194,-0.77508 0.31589,-1.46801 1.0053,-2.07965 0.65071,-0.57105 1.39758,-0.87687 2.24046,-0.91747 4.25122,-0.12233 7.53534,-0.12233 9.85254,0 0.8231,0.0406 1.56997,0.36697 2.24045,0.97866 0.67015,0.63173 1.00547,1.33514 1.00547,2.11022 0,0.77458 -0.20113,1.49854 -0.60321,2.17138 -0.38333,0.65228 -0.80434,0.98868 -1.26389,1.00923 v 0 z m -14.85064,30.0936 c 0.0382,0.22413 0.17239,0.54001 0.40225,0.94809 0.2297,0.40761 0.37336,0.744 0.43082,1.00923 0.11493,0.65228 0.13369,1.49858 0.0575,2.53838 -0.0575,0.71343 -0.38332,1.36571 -0.97673,1.95732 -0.63194,0.61164 -1.34062,0.92753 -2.12552,0.94808 h -0.51702 c -0.78541,-0.0206 -1.50355,-0.38756 -2.15443,-1.10099 -0.61302,-0.71394 -0.94783,-1.50907 -1.0053,-2.38548 -0.096,-2.1819 -0.0862,-5.17902 0.0288,-8.9914 0.0188,-0.91746 0.31588,-1.74321 0.89036,-2.47719 0.57449,-0.77509 1.24463,-1.16214 2.01077,-1.16214 0.78508,0 1.49375,0.38705 2.1257,1.16214 0.63194,0.77458 0.9191,1.5903 0.86163,2.44662 -0.15346,2.79308 -0.16293,4.4957 -0.0287,5.10734 v 0 z"
       style="fill:#000000;fill-opacity:1;fill-rule:evenodd;stroke:none;stroke-width:0.475563"
       id="path1635" />
    <path
       d="m 767.4053,169.01945 c -0.51701,0 -0.97673,0.39759 -1.37882,1.19276 -0.38332,0.75402 -0.58428,1.57977 -0.60321,2.47719 -0.0193,0.75407 0,2.19146 0.0575,4.31222 0.0188,1.81442 0.009,3.23126 -0.0287,4.25102 -0.0192,0.85632 -0.35459,1.63094 -1.00529,2.32428 -0.65122,0.69292 -1.36936,1.04987 -2.15443,1.07042 -0.86164,0.0406 -1.86711,0.0306 -3.01607,-0.0306 -0.82361,-0.0206 -1.57031,-0.34692 -2.24046,-0.97865 -0.68941,-0.6528 -1.06276,-1.3968 -1.12022,-2.23257 -0.0575,-0.97865 -0.0575,-2.44666 0,-4.40393 0.0762,-2.12076 0.0955,-3.61934 0.0575,-4.4957 -0.0193,-0.85632 -0.22986,-1.65149 -0.63194,-2.38547 -0.40226,-0.73399 -0.84288,-1.101 -1.32136,-1.101 -0.49826,-0.0206 -0.98654,-0.32637 -1.46502,-0.91747 -0.49808,-0.65279 -0.73741,-1.36622 -0.71797,-2.14084 0,-0.79513 0.33481,-1.50906 1.00529,-2.1408 0.67015,-0.61164 1.41685,-0.94804 2.24046,-1.00923 3.82987,-0.20357 7.66938,-0.20357 11.51852,0 0.8231,0.0612 1.56051,0.39759 2.21172,1.00923 0.68941,0.63174 1.0342,1.34567 1.0342,2.1408 0,0.77462 -0.26839,1.48805 -0.80434,2.14084 -0.51702,0.5911 -1.06276,0.89692 -1.63724,0.91747 v 0 z m -13.58674,31.10284 c 0.49774,0 0.96676,-0.32638 1.40755,-0.97866 0.47848,-0.65275 0.72761,-1.39675 0.74687,-2.23252 0.038,-0.71394 0.0288,-1.74326 -0.0287,-3.08888 -0.0387,-1.48856 -0.0575,-2.53839 -0.0575,-3.15008 0.0188,-0.83623 0.36355,-1.60078 1.03403,-2.29371 0.65087,-0.69334 1.38829,-1.06035 2.21172,-1.10099 1.05297,-0.0611 2.09697,-0.0611 3.131,0 0.8231,0.0406 1.56998,0.39759 2.24062,1.07042 0.66998,0.69288 1.00531,1.46796 1.00531,2.32428 0,0.5505 -0.0287,1.61039 -0.0862,3.18065 -0.0386,1.34567 -0.048,2.37494 -0.0287,3.08888 0.0382,0.83577 0.32536,1.57982 0.86181,2.23256 0.49775,0.63174 1.0053,0.94805 1.52232,0.94805 0.49774,0 0.95729,0.3259 1.37882,0.97865 0.45954,0.67284 0.68941,1.40682 0.68941,2.20199 0,0.79517 -0.34479,1.5086 -1.0342,2.1408 -0.65122,0.63173 -1.38863,0.96813 -2.21173,1.00923 -2.62378,0.14242 -6.36746,0.14242 -11.23119,0 -0.8618,-0.0205 -1.65668,-0.31631 -2.38412,-0.88689 -0.78558,-0.61165 -1.1684,-1.32559 -1.14896,-2.1408 0,-0.81573 0.21989,-1.58028 0.66051,-2.29371 0.42101,-0.67284 0.8618,-1.00927 1.32136,-1.00927 v 0 z"
       style="fill:#000000;fill-opacity:1;fill-rule:evenodd;stroke:none;stroke-width:0.475563"
       id="path1637" />
    <path
       d="m 790.68723,205.59664 c -0.67048,0.28527 -1.34991,0.47882 -2.03932,0.58107 -0.59376,0.10179 -0.91928,0.10179 -0.97674,0 -0.0385,-0.0611 -0.0573,-0.15291 -0.0573,-0.27525 0,-0.30582 -0.0674,-1.27441 -0.20113,-2.90535 -0.11492,-1.30503 -0.096,-2.3549 0.0575,-3.15007 0.0762,-0.40808 0.29662,-0.928 0.66068,-1.55973 0.40208,-0.67279 0.64124,-1.19272 0.71814,-1.55973 0.47831,-1.85553 0.70817,-5.99424 0.68924,-12.41667 0,-6.62644 -0.22969,-10.81631 -0.68924,-12.56959 -0.0769,-0.34693 -0.31606,-0.86681 -0.71814,-1.55973 -0.38333,-0.65275 -0.60322,-1.17267 -0.66068,-1.55973 -0.19166,-1.0809 -0.22986,-2.23256 -0.11493,-3.45585 0.0762,-0.85632 0.46902,-1.53968 1.17769,-2.04908 0.70817,-0.4893 1.42631,-0.58107 2.15426,-0.27524 1.26389,0.55049 2.36485,1.29454 3.30339,2.23256 2.02953,2.03855 3.58075,5.08679 4.65332,9.14431 1.03419,3.89407 1.45504,8.01274 1.26388,12.35548 -0.21093,4.50576 -1.05329,8.42035 -2.52778,11.74388 -1.62778,3.6494 -3.85894,6.07547 -6.69281,7.27872 z m -7.38205,-34.00823 c -0.45972,1.65149 -0.68941,5.89198 -0.68941,12.7225 0,7.05417 0.22969,11.34629 0.68941,12.87545 0.0762,0.26472 0.33482,0.7034 0.77544,1.31505 0.42102,0.59109 0.67014,1.09046 0.74687,1.49858 v 3.70053 c 0,1.08044 -0.0193,1.71264 -0.0575,1.89612 -0.096,0.61169 -0.40208,0.91751 -0.9191,0.91751 -1.72344,-0.0411 -3.57179,-0.97866 -5.54385,-2.81363 -2.16423,-2.01851 -3.81094,-5.0873 -4.94063,-9.20546 -1.07274,-3.91463 -1.49359,-8.08442 -1.2639,-12.50844 0.22987,-4.56737 1.1297,-8.5226 2.70018,-11.86618 1.70418,-3.6905 4.01157,-6.1271 6.92251,-7.30933 0.74687,-0.28527 1.44574,-0.173 2.09696,0.3364 0.6507,0.48935 1.01476,1.1722 1.09149,2.04907 0.13369,1.40682 0.10496,2.54841 -0.0862,3.42528 -0.0575,0.32591 -0.29712,0.8052 -0.71814,1.43739 -0.44062,0.65229 -0.70867,1.16219 -0.80417,1.52916 z"
       style="fill:#000000;fill-opacity:1;fill-rule:evenodd;stroke:none;stroke-width:0.475563"
       id="path1639" />
    <path
       d="m 827.18255,206.48353 c -1.11093,0.0406 -2.43228,0.0306 -3.96406,-0.0306 -0.84288,-0.0206 -1.60852,-0.31631 -2.29793,-0.88689 -0.72794,-0.5916 -1.07273,-1.2644 -1.03403,-2.01846 0.0762,-2.1408 0.43082,-3.26235 1.06277,-3.36413 0.30608,-0.0612 0.59341,-0.46927 0.8618,-1.22334 0.22969,-0.69334 0.36339,-1.47849 0.40209,-2.35485 0.0762,-1.34567 0.11493,-3.38469 0.11493,-6.11662 0,-2.773 0.0287,-4.74033 0.0862,-5.90252 0,-0.18348 0.0286,-0.47928 0.086,-0.88689 0.0382,-0.38752 0.0575,-0.68332 0.0575,-0.88689 0,-0.24468 -0.0575,-0.39759 -0.17223,-0.45874 -0.13419,-0.0612 -0.29712,-0.0411 -0.48845,0.0611 -0.45955,0.28527 -0.78541,0.82575 -0.97657,1.62088 -0.0575,0.20357 -0.16293,0.62171 -0.31589,1.2539 -0.11492,0.52995 -0.22039,0.94809 -0.31605,1.25391 -0.21093,0.81521 -0.46952,1.18223 -0.77561,1.10099 -0.28716,-0.0817 -0.45009,-0.55049 -0.48828,-1.40681 -0.38332,-11.33624 -0.15347,-18.24798 0.68941,-20.73524 0.26789,-0.77509 0.8618,-1.43739 1.7809,-1.98789 0.86181,-0.53041 1.71364,-0.81568 2.55652,-0.85632 h 1.03403 c 0.78508,0 1.47432,0.35648 2.06823,1.07042 0.59325,0.69288 0.89984,1.47799 0.9191,2.35486 0.0764,2.93597 0.0764,8.04331 0,15.32207 -0.0385,6.60593 0.009,11.66214 0.14367,15.16912 0.0382,0.89696 0.16242,1.69213 0.37335,2.38547 0.22986,0.75407 0.48829,1.15166 0.77561,1.19276 0.30608,0.0611 0.55521,0.44821 0.74687,1.16214 0.1724,0.65229 0.25843,1.38627 0.25843,2.20195 0,0.73403 -0.33516,1.40682 -1.0053,2.0185 -0.65121,0.5911 -1.37882,0.90698 -2.183,0.94804 v 0 z m -12.29411,-3.11945 c -0.38333,0.79517 -0.95781,1.49858 -1.72345,2.11022 -0.80434,0.63173 -1.59921,0.95811 -2.38412,0.97866 -1.39809,0.0812 -3.13099,0.0812 -5.19922,0 -0.86164,-0.0411 -1.64706,-0.3364 -2.35539,-0.88689 -0.78541,-0.59161 -1.16823,-1.27446 -1.14896,-2.04908 0.0189,-0.83624 0.17239,-1.5903 0.45954,-2.26314 0.26806,-0.69334 0.57449,-1.07038 0.91928,-1.13156 0.32535,-0.0411 0.59324,-0.45874 0.80434,-1.25387 0.19115,-0.69338 0.29662,-1.49858 0.31588,-2.41609 0.0762,-3.03822 0.10496,-6.92223 0.0862,-11.65207 -0.0193,-7.19753 -0.0287,-11.12218 -0.0287,-11.77446 0,-0.91747 -0.096,-1.72313 -0.28732,-2.41605 -0.21094,-0.79513 -0.47882,-1.23382 -0.80418,-1.31505 -0.36405,-0.0817 -0.68941,-0.42816 -0.97673,-1.03981 -0.30643,-0.63224 -0.45955,-1.32558 -0.45955,-2.07965 0,-0.75453 0.30608,-1.45794 0.91927,-2.11022 0.61251,-0.67284 1.31138,-1.02979 2.09679,-1.07042 1.35956,-0.10225 2.87241,-0.10225 4.53855,0 0.8231,0.0612 1.56051,0.3871 2.21173,0.97865 0.67014,0.61169 1.0053,1.29455 1.0053,2.04908 -0.0193,0.75407 -0.15347,1.46796 -0.40209,2.1408 -0.26839,0.67283 -0.56502,1.05989 -0.89054,1.16214 -0.65121,0.20357 -0.97656,1.48805 -0.97656,3.85348 -0.0193,5.68842 -0.11493,10.23477 -0.28716,13.63997 0,0.22412 -0.0287,0.65228 -0.0862,1.28448 -0.0575,0.57058 -0.0862,1.00923 -0.0862,1.31509 -0.0193,0.73398 0.19116,1.0804 0.63195,1.03981 0.44028,-0.0411 0.7849,-0.46927 1.03403,-1.28448 0.15313,-0.48935 0.36355,-1.27446 0.63195,-2.3549 0.28732,-1.06036 0.50721,-1.85553 0.66067,-2.38548 0.78491,-2.52832 1.28266,-4.04745 1.49359,-4.55684 0.30608,-0.79518 0.62214,-1.1421 0.948,-1.03981 0.34462,0.10179 0.52648,0.58107 0.54575,1.43739 0.34462,9.9901 0.41155,16.20897 0.20113,18.65559 -0.0962,1.18223 -0.56519,2.66072 -1.40755,4.43451 v 0 z"
       style="fill:#000000;fill-opacity:1;fill-rule:evenodd;stroke:none;stroke-width:0.475563"
       id="path1641" />
    <path
       d="m 834.95317,176.94043 c -0.51701,0.0201 -1.0151,-0.31636 -1.49358,-1.00923 -0.49826,-0.69339 -0.74688,-1.45795 -0.74688,-2.29371 0,-0.44872 0.009,-1.08091 0.0287,-1.89617 0.0189,-0.87687 0.0288,-1.45794 0.0288,-1.74321 0,-0.42816 -0.01,-1.05034 -0.0288,-1.86555 -0.0193,-0.77509 -0.0287,-1.34567 -0.0287,-1.71264 0,-0.83628 0.23933,-1.6109 0.71814,-2.32433 0.45956,-0.71389 0.94784,-1.06036 1.46502,-1.0398 0.51702,0 0.97657,0.35648 1.37865,1.07037 0.38282,0.67284 0.58395,1.44746 0.60322,2.32433 0.0764,2.36492 0.0764,4.72984 0,7.09523 -0.0193,0.87641 -0.21093,1.65149 -0.57448,2.32433 -0.40208,0.71343 -0.85234,1.07038 -1.35009,1.07038 z m 15.62625,16.36187 c 0.6507,0 1.21572,0.37704 1.69471,1.13157 0.47847,0.73398 0.72743,1.53918 0.74687,2.41605 0.0955,2.48726 0.10496,4.52627 0.0287,6.11661 -0.0387,0.83577 -0.29712,1.57978 -0.7756,2.23252 -0.47899,0.65229 -0.99601,0.96817 -1.55122,0.94809 -1.47482,-0.0206 -2.25973,-0.0817 -2.35539,-0.18349 -0.17222,-0.18348 -0.31589,-1.28448 -0.43081,-3.30298 -0.096,-1.95727 -0.0862,-3.9452 0.0287,-5.96366 0.0382,-0.85632 0.31588,-1.63141 0.83307,-2.32429 0.53578,-0.71393 1.12969,-1.07042 1.78091,-1.07042 v 0 z m 3.44688,-17.43225 c -0.3066,3.54761 -2.19296,7.17646 -5.65878,10.88752 -0.42135,0.4482 -1.12023,1.11102 -2.09679,1.98789 -1.0915,0.97865 -1.86711,1.70211 -2.32666,2.17137 -1.81961,1.81442 -2.83437,3.41479 -3.0448,4.80152 -0.26839,1.77383 0.0862,3.06833 1.06277,3.88405 1.89583,1.56976 2.84367,2.75245 2.84367,3.54762 0,0.69288 -0.3066,1.38627 -0.9191,2.07965 -0.65122,0.69288 -1.3599,1.11102 -2.1257,1.25386 -2.70001,0.42821 -4.98864,-0.47928 -6.86504,-2.72186 -1.7236,-2.07966 -2.57578,-4.56738 -2.55651,-7.46225 0.0382,-3.99633 1.8764,-7.88034 5.51512,-11.65208 0.40208,-0.42816 1.12969,-1.15212 2.18299,-2.17141 0.89983,-0.89738 1.57978,-1.60079 2.0395,-2.11023 1.49358,-1.61085 2.47961,-3.10939 2.9586,-4.49565 0.22969,-0.63224 0.37335,-1.43744 0.43081,-2.41609 0.0382,-1.03981 -0.0575,-1.84547 -0.28715,-2.41605 -0.36406,-0.93802 -1.05347,-1.54966 -2.06823,-1.83498 -1.93437,-0.53041 -2.91111,-1.34562 -2.92987,-2.44662 0,-0.63219 0.18169,-1.29501 0.54575,-1.98788 0.36355,-0.65275 0.75617,-1.11149 1.17769,-1.37625 0.53595,-0.30582 1.0817,-0.49983 1.63725,-0.58107 3.52327,-0.57054 6.27145,0.5505 8.24402,3.36413 1.79967,2.56896 2.54655,5.80022 2.24046,9.69481 z"
       style="fill:#000000;fill-opacity:1;fill-rule:evenodd;stroke:none;stroke-width:0.475563"
       id="path1643" />
    <path
       d="m 936.28114,178.68368 c -0.0387,0.87636 -0.36405,1.66151 -0.97673,2.35486 -0.61302,0.71347 -1.3119,1.07042 -2.0968,1.07042 h -0.66067 c -0.82361,-0.0205 -1.57049,-0.35695 -2.24046,-1.00923 -0.70868,-0.65279 -1.07274,-1.3968 -1.0915,-2.23256 -0.0387,-0.75454 -0.0387,-1.77383 0,-3.05831 0.038,-1.69256 0.0573,-2.74242 0.0573,-3.15003 0,-0.89742 -0.26839,-1.73319 -0.80417,-2.50781 -0.55572,-0.79517 -1.18766,-1.19272 -1.89583,-1.19272 -0.74688,0.02 -1.42682,-0.27525 -2.0395,-0.88693 -0.63195,-0.6322 -0.94784,-1.34563 -0.94784,-2.1408 0,-0.79513 0.33482,-1.51909 1.0053,-2.17138 0.67015,-0.63219 1.41702,-0.96863 2.24046,-1.00923 2.10643,-0.12233 4.22249,-0.12233 6.34819,0 0.80434,0.0406 1.51251,0.39755 2.12553,1.07038 0.61268,0.67284 0.93803,1.43739 0.97673,2.29371 0.21043,4.17939 0.21043,8.36923 0,12.56963 z m -18.29752,27.76928 c -1.26389,0.0812 -3.15973,0.0712 -5.68751,-0.0306 -0.84287,-0.0411 -1.62778,-0.34692 -2.35539,-0.91746 -0.78541,-0.61169 -1.16823,-1.32559 -1.14896,-2.14085 0,-0.81568 0.21059,-1.57021 0.63195,-2.26313 0.42101,-0.67279 0.87127,-1.01972 1.35009,-1.03981 0.44028,0 0.8231,-0.3775 1.14896,-1.13156 0.30608,-0.71394 0.46901,-1.51914 0.48828,-2.41605 0.13386,-7.9721 0.13386,-15.9237 0,-23.8547 -0.0192,-0.89742 -0.1822,-1.71264 -0.48828,-2.44662 -0.3066,-0.77512 -0.68941,-1.17267 -1.14896,-1.19276 -0.47882,-0.0205 -0.92908,-0.35694 -1.35009,-1.00923 -0.42136,-0.65274 -0.63195,-1.36622 -0.63195,-2.14079 0,-0.77509 0.33482,-1.4785 1.00547,-2.11023 0.66998,-0.6322 1.40738,-0.96863 2.21173,-1.00923 1.99133,-0.12234 3.97336,-0.12234 5.94593,0 0.80434,0.0406 1.49375,0.39754 2.06823,1.07038 0.57448,0.67283 0.8711,1.43739 0.89037,2.29371 0.17239,12.27383 0.17239,24.53759 0,36.79129 -0.0193,0.87641 -0.31589,1.67154 -0.89037,2.38547 -0.57448,0.73398 -1.25442,1.12104 -2.0395,1.16215 v 0 z"
       style="fill:#000000;fill-opacity:1;fill-rule:evenodd;stroke:none;stroke-width:0.475563"
       id="path1645" />
    <path
       d="m 965.99746,178.68368 c -0.0387,0.87636 -0.36406,1.66151 -0.97674,2.35486 -0.61301,0.71347 -1.31189,1.07042 -2.09679,1.07042 h -0.66068 c -0.82361,-0.0205 -1.57049,-0.35695 -2.24046,-1.00923 -0.70868,-0.65279 -1.07274,-1.3968 -1.09149,-2.23256 -0.0387,-0.75454 -0.0387,-1.77383 0,-3.05831 0.038,-1.69256 0.0573,-2.74242 0.0573,-3.15003 0,-0.89742 -0.26839,-1.73319 -0.80417,-2.50781 -0.55572,-0.79517 -1.18767,-1.19272 -1.89584,-1.19272 -0.74687,0.02 -1.42682,-0.27525 -2.03949,-0.88693 -0.63195,-0.6322 -0.94784,-1.34563 -0.94784,-2.1408 0,-0.79513 0.33482,-1.51909 1.0053,-2.17138 0.67014,-0.63219 1.41702,-0.96863 2.24046,-1.00923 2.10642,-0.12233 4.22249,-0.12233 6.34819,0 0.80433,0.0406 1.51251,0.39755 2.12552,1.07038 0.61268,0.67284 0.93803,1.43739 0.97674,2.29371 0.21042,4.17939 0.21042,8.36923 0,12.56963 z m -18.29752,27.76928 c -1.26389,0.0812 -3.15973,0.0712 -5.68752,-0.0306 -0.84287,-0.0411 -1.62777,-0.34692 -2.35538,-0.91746 -0.78541,-0.61169 -1.16823,-1.32559 -1.14896,-2.14085 0,-0.81568 0.21059,-1.57021 0.63194,-2.26313 0.42102,-0.67279 0.87127,-1.01972 1.35009,-1.03981 0.44028,0 0.8231,-0.3775 1.14896,-1.13156 0.30609,-0.71394 0.46902,-1.51914 0.48829,-2.41605 0.13386,-7.9721 0.13386,-15.9237 0,-23.8547 -0.0193,-0.89742 -0.1822,-1.71264 -0.48829,-2.44662 -0.30659,-0.77512 -0.68941,-1.17267 -1.14896,-1.19276 -0.47882,-0.0205 -0.92907,-0.35694 -1.35009,-1.00923 -0.42135,-0.65274 -0.63194,-1.36622 -0.63194,-2.14079 0,-0.77509 0.33482,-1.4785 1.00546,-2.11023 0.66998,-0.6322 1.40739,-0.96863 2.21173,-1.00923 1.99133,-0.12234 3.97336,-0.12234 5.94593,0 0.80435,0.0406 1.49376,0.39754 2.06824,1.07038 0.57448,0.67283 0.8711,1.43739 0.89037,2.29371 0.17239,12.27383 0.17239,24.53759 0,36.79129 -0.0193,0.87641 -0.31589,1.67154 -0.89037,2.38547 -0.57448,0.73398 -1.25443,1.12104 -2.0395,1.16215 v 0 z"
       style="fill:#000000;fill-opacity:1;fill-rule:evenodd;stroke:none;stroke-width:0.475563"
       id="path1647" />
    <path
       d="m 990.28485,176.78751 c -0.32586,0.10179 -0.67064,0.20358 -1.03402,0.30583 -1.83838,0.52994 -2.85365,0.69292 -3.0448,0.48935 -0.19167,-0.20404 -0.29713,-1.29501 -0.31606,-3.27237 0,-0.46926 0.009,-1.10099 0.0287,-1.89617 v -1.92674 c 0,-0.36697 -0.01,-0.96859 -0.0287,-1.80436 -0.0385,-0.77508 -0.048,-1.36622 -0.0287,-1.77383 0,-0.83623 0.33481,-1.4173 1.00529,-1.74321 0.67015,-0.32637 1.30209,-0.2141 1.89584,0.3364 1.79984,1.63094 3.035,3.99586 3.70548,7.09523 0.17239,0.81526 0.0382,1.65149 -0.40209,2.50781 -0.45955,0.85632 -1.05347,1.41684 -1.78091,1.68206 v 0 z m -4.39488,18.04395 c 0,-0.83628 0.30608,-1.58028 0.91927,-2.23257 0.61251,-0.63219 1.29246,-0.94808 2.03933,-0.94808 0.74687,0 1.44575,0.31589 2.09696,0.94808 0.66998,0.63174 1.01477,1.36572 1.03403,2.20199 0,0.42816 -0.01,1.04983 -0.0287,1.86555 -0.0192,0.93756 -0.0287,1.60037 -0.0287,1.98789 0,0.32591 0.009,0.98868 0.0287,1.98789 v 1.95731 c -0.0192,0.83577 -0.32586,1.60037 -0.9191,2.29371 -0.61318,0.69292 -1.29263,1.03985 -2.0395,1.03985 -0.74687,0 -1.44609,-0.31635 -2.09696,-0.94808 -0.67048,-0.65275 -1.0151,-1.38673 -1.03403,-2.20199 -0.0193,-0.44871 -0.01,-1.08091 0.0287,-1.89613 0.0189,-0.93806 0.0287,-1.5903 0.0287,-1.95731 0,-0.38756 -0.01,-1.08091 -0.0287,-2.07965 -0.0192,-0.87687 -0.0192,-1.54971 0,-2.01846 z m -5.19906,-24.43577 c -0.9578,1.18223 -1.52248,3.33352 -1.69488,6.45301 -0.0193,0.10175 -0.0286,2.67075 -0.0286,7.70688 0,0.0201 -0.0194,1.29454 -0.0575,3.82286 -0.0387,1.79388 -0.0287,3.27237 0.0287,4.43456 0.15296,3.48642 0.70817,5.57609 1.66598,6.26948 0.21042,0.14242 0.64141,0.27525 1.29262,0.39759 0.36355,0.0611 0.69871,0.38705 1.0053,0.97865 0.30608,0.63173 0.45955,1.30457 0.45955,2.01846 0,0.81522 -0.25843,1.63094 -0.77544,2.44663 -0.55572,0.8764 -1.19713,1.37624 -1.92457,1.49858 -1.60868,0.26471 -3.12153,-0.0105 -4.53855,-0.82575 -2.24046,-1.24384 -4.03134,-3.65989 -5.37145,-7.24814 -1.24496,-3.30298 -1.94384,-7.13634 -2.0968,-11.49921 -0.15363,-4.3227 0.24863,-8.35962 1.20643,-12.11081 1.01476,-3.99633 2.50834,-7.00351 4.48091,-9.02197 1.66598,-1.71264 3.62875,-2.72191 5.88848,-3.02774 0.7658,-0.10178 1.48394,0.18353 2.15442,0.85632 0.65071,0.65229 0.97657,1.40682 0.97657,2.26314 v 0.36701 c 0,0.69288 -0.31589,1.44741 -0.94784,2.26314 -0.19166,0.24467 -0.48828,0.57054 -0.89053,0.97866 -0.40209,0.44824 -0.67995,0.77462 -0.83291,0.97865 v 0 z"
       style="fill:#000000;fill-opacity:1;fill-rule:evenodd;stroke:none;stroke-width:0.475563"
       id="path1649" />
    <text
       xml:space="preserve"
       style="font-weight:bold;font-size:36px;line-height:1.25;font-family:'MT Extra';-inkscape-font-specification:'MT Extra Bold';stroke-width:0.75"
       x="29.545898"
       y="-649.93921"
       id="text2458"
       transform="scale(1,-1)"><tspan
         sodipodi:role="line"
         id="tspan2456"
         style="font-style:normal;font-variant:normal;font-weight:bold;font-stretch:normal;font-size:36px;font-family:Roboto;-inkscape-font-specification:'Roboto Bold';stroke-width:0.75"
         x="29.545898"
         y="-649.93921">Project Gallery</tspan></text>
  </g>
</svg>
