<?xml version="1.0" encoding="UTF-8" standalone="no"?>
<!-- Created with Inkscape (http://www.inkscape.org/) -->

<svg
   version="1.1"
   id="svg2"
   width="620"
   height="500"
   viewBox="0 0 620.00002 500.00002"
   sodipodi:docname="logo.svg"
   inkscape:version="1.2.2 (732a01da63, 2022-12-09)"
   xmlns:inkscape="http://www.inkscape.org/namespaces/inkscape"
   xmlns:sodipodi="http://sodipodi.sourceforge.net/DTD/sodipodi-0.dtd"
   xmlns="http://www.w3.org/2000/svg"
   xmlns:svg="http://www.w3.org/2000/svg">
  <defs
     id="defs6" />
  <sodipodi:namedview
     id="namedview4"
     pagecolor="#ffffff"
     bordercolor="#666666"
     borderopacity="1.0"
     inkscape:showpageshadow="2"
     inkscape:pageopacity="0.0"
     inkscape:pagecheckerboard="true"
     inkscape:deskcolor="#d1d1d1"
     showgrid="false"
     inkscape:zoom="0.81353772"
     inkscape:cx="-121.07613"
     inkscape:cy="484.30453"
     inkscape:window-width="1920"
     inkscape:window-height="1009"
     inkscape:window-x="-8"
     inkscape:window-y="-8"
     inkscape:window-maximized="1"
     inkscape:current-layer="g10" />
  <g
     id="g10"
     inkscape:groupmode="layer"
     inkscape:label="Page 1"
     transform="matrix(1.3333333,0,0,-1.3333333,-730.31078,1225.3454)">
    <g
       id="g2374"
       transform="matrix(0.47537349,0,0,0.47575301,547.7331,544.00908)">
      <path
         d="m 195.65165,689.69672 c 0,-32.80609 -0.0576,-62.05944 0.0576,-91.30959 0.0181,-4.98788 -1.6746,-8.40712 -5.84651,-11.38033 -14.35353,-10.2305 -28.50369,-20.74615 -42.59946,-31.32864 -5.93148,-4.45084 -9.65115,-5.77967 -9.57506,4.1049 0.20621,26.75638 0.14861,53.51277 0.0302,80.27219 -0.0242,4.84833 0.96174,8.80763 5.13329,11.77781 16.6809,11.8779 33.28856,23.85589 52.79992,37.86366 v 0 z"
         style="fill:#ea2026;fill-opacity:1;fill-rule:evenodd;stroke:none"
         id="path12" />
      <path
         d="m 454.66017,257.40178 c -29.50205,11.0678 -58.87077,22.49967 -88.04822,34.38984 -8.31289,3.39186 -12.35432,2.16613 -14.06234,-6.83242 -0.66131,-3.49212 -2.94885,-6.6991 1.81432,-8.91074 3.25853,-1.51407 3.14334,-4.0473 2.36648,-7.15099 -4.91179,-19.68433 -7.20858,-20.95254 -26.18592,-13.92581 -0.66451,0.24567 -1.31373,0.54308 -1.98428,0.76743 -20.70348,6.86887 -20.71877,6.87189 -12.83359,26.3013 0.52193,1.2835 1.41399,2.42425 2.1752,3.60447 1.17115,1.8081 2.3455,3.74989 4.97899,2.28755 3.80428,-2.10854 6.15263,-0.68869 7.09339,3.15826 1.04671,4.26578 6.00721,9.97879 2.03263,12.57281 -7.4212,4.84211 -3.80144,9.2565 -1.99316,14.35353 2.24203,6.31974 4.37777,12.68196 6.56221,19.02587 10.11833,19.77215 24.16539,35.26359 45.59738,43.25188 5.75513,2.14515 11.29837,4.41439 14.72365,-2.18142 3.14013,-6.04348 -2.37573,-8.96834 -6.57751,-11.41659 -12.96408,-7.54848 -17.958,-19.14124 -18.14928,-33.57975 -0.085,-6.25609 2.99756,-10.23957 8.3193,-12.31486 28.42476,-11.08913 56.92277,-21.97792 85.39624,-32.9396 0.0213,0.98005 0.0761,1.9569 0.0761,2.94299 0,68.55197 -55.57278,124.12173 -124.12493,124.12173 -68.54894,0 -124.11888,-55.56976 -124.11888,-124.12173 0,-61.32205 44.48062,-112.22267 102.93293,-122.28021 -0.0153,0.35199 -0.0306,0.70397 -0.0789,1.10431 -0.70077,5.72207 5.05152,42.92443 -7.98829,42.41458 -2.08453,-0.0818 -4.70594,0.0425 -4.50257,3.01587 0.18808,2.76682 2.75473,2.82157 4.87269,2.84877 10.85217,0.13351 10.33343,0.17297 20.21497,0.0485 2.41199,-0.0333 5.69185,0.4126 5.84936,-2.92468 0.17315,-3.62261 -3.23116,-3.02796 -5.56101,-3.0461 -11.48041,-0.0971 -6.08935,-36.14639 -7.04184,-41.36786 -0.21226,-1.16191 -0.20942,-2.10249 -0.10026,-2.93072 5.08814,-0.63713 10.2609,-1.00121 15.52183,-1.00121 55.6606,0 102.76263,36.63491 118.50881,87.10764 -0.91302,1.31977 -2.73055,2.49696 -5.68545,3.60732 v 0 z"
         style="fill:#ea2026;fill-opacity:1;fill-rule:evenodd;stroke:none"
         id="path14" />
      <path
         d="m 536.84944,754.8083 c 82.00154,-60.02059 164.50972,-119.35251 250.97401,-181.90331 -17.76352,0 -31.2858,0.006 -44.80808,0 -57.41163,-0.0213 -57.12933,0.36408 -103.19994,33.84979 -46.38881,33.71005 -93.52745,66.38566 -140.01653,99.95332 -6.82033,4.92708 -11.19526,3.64073 -17.25723,-0.57954 -47.50236,-33.08519 -95.18392,-65.90337 -142.81997,-98.79745 -43.43711,-29.99661 -86.72241,-60.21775 -130.44431,-89.79268 -9.54484,-6.45609 -14.01399,-12.79111 -13.92297,-25.32125 0.7221,-101.07594 0.19413,-202.16095 0.67055,-303.23991 0.0608,-12.36037 -1.51105,-18.75584 -14.48117,-17.25706 h -29.07434 c -15.92822,-0.0213 -13.6524,3.74082 -13.90448,12.08412 -0.26701,8.79838 -0.45794,21.89295 -0.79499,31.10412 -0.55215,15.14834 -0.42167,30.34237 -0.009,45.49693 0.19413,7.07224 -1.8961,9.82395 -9.33258,9.65098 -18.69824,-0.43679 -37.423501,-0.51269 -56.115695,-0.003 -8.850118,0.23982 -11.250018,-3.27968 -11.119534,-11.58653 0.385406,-24.76927 -0.20017,-49.5565 0.31572,-74.32258 0.178837,-8.64372 -2.515095,-11.56858 -11.131622,-11.0982 l -34.866272,-0.0668 C 5.493048,172.24801 3.967068,176.72302 4.000488,185.38204 4.2643,257.6839 4.267322,329.99198 3.9852,402.29703 c -0.036443,8.75288 1.689885,13.40407 11.58067,12.27842 l 41.586346,-0.69775 c 5.309288,1.0133 3.288751,-15.67347 3.288751,-15.67347 0,0 0.166748,-56.80455 -0.376162,-71.9561 -0.291544,-8.17352 1.60171,-11.7323 10.718839,-11.41676 19.189596,0.6645 38.427896,0.47944 57.632786,0.0455 7.32698,-0.16675 9.4204,2.26639 9.36885,9.49933 -0.30043,43.48245 -0.12728,86.96809 -0.2215,130.45356 -0.006,2.79437 1.41398,6.38053 -1.76277,8.23112 -3.5739,2.08133 -5.62466,-1.48652 -7.48769,-3.38279 -16.66561,-16.95983 -36.431538,-20.15454 -60.159965,-20.49123 -19.344612,-0.2791 -38.916769,0.3518 -63.036469,0.3518 24.304937,17.6606 44.735369,32.66957 65.332906,47.44495 C 190.2453,572.91406 310.00739,658.88699 429.9725,744.5778 c 19.94512,14.2474 60.9034,43.64635 61.79545,43.64635 1.12884,0 30.76422,-22.93664 45.08149,-33.41585 z"
         style="fill:#000000;fill-opacity:1;fill-rule:evenodd;stroke:none"
         id="path16" />
      <path
         d="m 543.73626,346.41796 c 0,-53.08187 -0.35483,-106.16995 0.28514,-159.24275 0.13653,-11.37126 -2.71846,-15.39118 -14.30802,-16.22261 l -40.96752,2.71846 c -4.6935,11.52592 -2.54248,28.82866 -2.61216,42.79377 l -0.37012,184.80985 c -0.10631,12.56676 3.82277,14.78142 20.15773,12.87306 l 57.16561,0.40656 c 14.75387,1.65664 19.11991,-3.75895 21.80495,-15.26372 l 33.64339,-124.33416 c 0,0 18.30679,94.01899 31.91084,126.51558 2.26657,5.41258 3.30724,14.23532 15.54317,14.32011 15.53073,0.10631 45.04202,1.38963 67.22918,0.006 20.09978,-1.25311 16.5138,-17.22986 16.52269,-24.16539 0.0121,-5.68563 -0.35803,-11.43508 -0.32746,-17.25723 0.31537,-62.18975 -0.2247,-124.38874 0.4519,-186.57245 0.14861,-13.65276 -4.52675,-16.43486 -19.05023,-14.39317 l -25.08766,-0.0516 c -13.84084,-2.14497 -16.41069,2.37253 -16.31647,13.41313 0.443,53.43385 0.20621,106.87072 -2.63633,160.78402 -6.37449,-26.64102 -33.30065,-135.40197 -39.9937,-163.23849 -1.93272,-8.04002 -5.38218,-11.26193 -14.27176,-11.35917 -42.46613,-0.46718 -42.26276,-0.72495 -52.18057,40.34853 -10.14571,41.98686 -33.43433,131.06046 -34.58415,133.69093 -0.67055,-0.19111 -1.3379,-0.38541 -2.00845,-0.57953 v 0 z"
         style="fill:#000000;fill-opacity:1;fill-rule:evenodd;stroke:none"
         id="path18" />
      <path
         d="m 780.38447,295.11984 -0.19732,107.6202 c -0.13333,9.26859 2.42123,12.00838 11.81746,11.93852 56.58607,-0.41865 113.18423,-0.44905 169.7703,0.0183 10.16704,0.0818 12.58508,-3.122 12.60605,-12.90346 0.10027,-38.27928 0.44621,-38.27928 -38.34897,-38.27928 l -71.24003,0.20319 c 0,0 -12.15096,-1.62304 -12.10545,-11.45605 0.12444,-28.16113 -0.40674,-28.16416 26.9898,-28.16718 l 74.27102,0.15466 c 7.87025,0.13351 11.39579,-0.9708 11.56538,-10.3457 0.69189,-38.14578 1.07409,-38.13973 -36.90476,-38.13973 l -63.65813,0.16675 c 0,0 -12.19362,-1.31977 -12.2754,-11.31651 -0.28514,-36.48327 -0.73739,-36.48025 35.66108,-36.48025 25.7671,0 77.30165,0.19413 77.30165,0.19413 9.23233,0.20639 12.59716,-2.31493 11.86582,-11.8475 l -0.0484,-33.32785 c 0.43056,-8.24641 -2.94316,-10.1546 -10.61573,-10.12135 0,0 -117.22566,0.31856 -175.83547,-0.0455 -9.03536,-0.0576 -10.78569,11.48058 -10.78569,11.48058 l 0.16675,110.65403 v 0 z"
         style="fill:#000000;fill-opacity:1;fill-rule:evenodd;stroke:none"
         id="path20" />
      <path
         d="m 734.63244,543.22073 c 2.03582,8.82274 6.03743,10.94034 14.47797,10.92523 23.95917,-0.0455 23.87704,0.30647 30.95834,-22.85469 l 13.88031,-42.96673 10.78284,55.43625 c 1.98392,9.64493 4.72087,17.45421 31.16171,9.99994 6.45591,-1.81735 2.82157,-15.95258 2.82157,-15.95258 l -19.25679,-93.06934 c -2.15386,-11.78688 -2.60896,-15.41855 -7.6363,-15.41855 h -27.96683 c -8.06117,-0.1456 -9.23232,4.22027 -11.8779,17.01137 -4.05032,19.59936 -16.33496,60.3301 -16.33496,60.3301 l -17.68175,-63.91626 c -2.20257,-9.75408 -5.84331,-13.01261 -15.89195,-12.85173 -27.46303,0.44301 -27.11709,0.0365 -32.5206,27.39655 -5.53719,28.02762 -11.70191,55.93383 -17.93667,83.81586 -1.91458,8.55573 -2.48807,13.50397 9.49009,13.14896 22.55124,-0.66735 22.63337,0.14275 27.3905,-21.59856 3.00645,-13.73774 9.83283,-41.21925 9.83283,-41.21925 z"
         style="fill:#000000;fill-opacity:1;fill-rule:evenodd;stroke:none"
         id="path22" />
      <path
         d="m 889.24249,492.72987 c 0,0 -0.45189,-33.82241 0.18523,-50.70028 0.3367,-8.89865 -1.60526,-12.25406 -11.4868,-12.157 -24.78723,0.2487 -24.79043,-0.33687 -24.79043,24.27756 0.003,28.28255 0.55251,56.58323 -0.25777,84.84444 -0.33669,11.54405 2.37253,15.38211 14.68739,15.41536 14.836,0.0395 23.68007,-2.93375 32.49961,-17.38754 10.70391,-17.53615 35.2515,-51.12195 35.2515,-51.12195 l -0.20941,55.22382 c -0.42487,9.65098 0.74023,13.28869 12.33299,12.87306 h 9.07447 c 12.32695,0.41563 15.56415,-2.19351 15.20007,-14.58108 l -0.12728,-98.47587 c 0.12444,-8.59217 -2.4607,-10.29414 -10.8799,-11.21339 -17.90005,-1.95388 -30.3454,2.91259 -39.3804,19.3807 l -29.13797,43.84367 z"
         style="fill:#000000;fill-opacity:1;fill-rule:evenodd;stroke:none"
         id="path24" />
      <path
         d="m 578.44485,489.84145 c 0.42772,-4.44781 0.70397,-8.46168 1.21062,-12.44516 1.6202,-12.65778 9.26574,-19.74193 21.48318,-21.31662 13.22825,-1.70802 22.84883,4.40533 26.47747,17.02951 3.33711,11.61409 3.39186,23.95313 0.24853,35.71868 -3.87113,14.48099 -19.08934,21.15876 -33.29141,15.90102 -17.43607,-6.45626 -14.8904,-21.64727 -16.12839,-34.88743 z m 89.52265,2.2056 c -0.009,-42.25672 -21.44693,-64.49561 -62.34761,-64.67764 -42.31147,-0.19111 -67.05923,23.65269 -66.8804,64.44103 0.17315,39.36546 26.47143,65.2602 65.97341,64.43801 40.51529,-0.84334 65.44828,-25.03006 63.2546,-64.2014 z"
         style="fill:#000000;fill-opacity:1;fill-rule:evenodd;stroke:none"
         id="path26" />
      <path
         d="m 453.74963,491.80137 c 0,-8.54062 -0.0274,-17.08106 0.0153,-25.62168 0.0149,-3.46172 -0.35518,-6.90833 3.99272,-8.69226 10.40632,-4.26275 26.46787,1.59282 30.73685,12.22385 5.64598,14.06234 5.40955,28.56449 0.021,42.63287 -4.99676,13.04906 -16.90809,13.24318 -27.92736,12.32695 -8.16143,-0.67659 -7.41195,-11.981 -6.93873,-15.73089 0.12764,-1.01045 0.17315,-2.02978 0.16995,-3.04912 l -0.0697,-14.08972 v 0 z m -37.50562,0.11217 c 0,17.64851 0.16994,35.29701 -0.10027,52.9425 -0.091,6.0497 1.12884,9.50235 8.18277,9.14735 22.07801,-1.11356 44.26837,1.83245 66.29162,-2.2664 18.78001,-3.49212 34.87534,-19.5478 37.56927,-38.27928 2.16631,-15.03937 2.28755,-30.06345 0.003,-45.11793 -2.87028,-18.91654 -21.89917,-36.44363 -43.46129,-37.69975 -20.10298,-1.17116 -40.3272,-0.13351 -60.48493,-0.62807 -7.11152,-0.17599 -8.22508,2.84895 -8.11273,8.95927 0.31573,17.64246 0.11236,35.29399 0.11236,52.94231 v 0 z"
         style="fill:#000000;fill-opacity:1;fill-rule:evenodd;stroke:none"
         id="path28" />
      <path
         d="m 0,125.90877 h 978.17826 v 4.54832 H 0 Z"
         style="fill:#000000;fill-opacity:1;fill-rule:evenodd;stroke:none"
         id="path30" />
      <path
         d="M 0,0 H 978.17826 V 4.548321 H 0 Z"
         style="fill:#000000;fill-opacity:1;fill-rule:evenodd;stroke:none"
         id="path32" />
      <path
         d="m 63.612745,33.60467 c -0.92725,0.556421 -1.551224,1.113908 -1.873344,1.671307 0.08035,-0.128528 -0.403183,2.378478 -1.45025,7.521196 -0.403183,1.928453 -0.946805,4.477679 -1.631221,7.649635 -0.725303,3.55674 -1.268924,6.12801 -1.631576,7.713988 -1.007602,4.970902 -1.490782,7.585459 -1.45025,7.842604 0.160349,1.070711 0.966715,2.292082 2.416965,3.664113 1.731483,1.713617 2.799527,2.892768 3.202711,3.535585 2.175197,3.856994 3.060849,8.763633 2.658377,14.720894 -0.48318,6.21334 -2.477407,11.46352 -5.981971,15.749388 -3.706512,4.45661 -8.519821,7.1565 -14.441706,8.09966 -1.773081,0.29936 -3.484654,-0.12853 -5.135785,-1.28564 -1.773437,-1.1571 -2.639178,-2.5934 -2.598291,-4.30702 0,-1.7145 0.362296,-3.3859 1.087599,-5.0141 0.684416,-1.542778 1.409363,-2.464784 2.175198,-2.764149 1.127419,-0.472069 1.95334,-1.02849 2.477407,-1.671397 1.489715,-1.799924 2.315992,-4.82122 2.477407,-9.063886 0.120884,-4.242667 -0.504157,-7.607504 -1.872988,-10.092466 -0.604419,-1.028579 -1.510692,-1.864189 -2.719175,-2.507095 -0.92725,-0.472069 -1.73255,-1.414163 -2.416965,-2.828415 -0.685483,-1.414252 -1.087955,-2.871702 -1.208483,-4.371283 -0.161771,-2.357413 -0.02098,-4.136182 0.422738,-5.33551 0.160704,-0.514289 0.704326,-1.200305 1.631576,-2.057069 0.885652,-0.899963 1.429273,-1.564912 1.631576,-1.992717 0.402116,-1.028579 0.744858,-2.593491 1.027157,-4.692692 0.362651,-2.828504 0.604063,-4.521944 0.724947,-5.078365 2.618202,-12.59956 4.189336,-19.906721 4.713403,-21.920592 0.442648,-1.757793 1.449894,-3.300573 3.021029,-4.628428 1.571134,-1.285635 3.20271,-1.950585 4.894372,-1.992805 1.692018,-0.04311 3.403591,-0.04311 5.13614,0 1.731839,0.04222 3.283063,0.663972 4.652961,1.864277 1.45025,1.242437 2.154576,2.656689 2.114756,4.242667 -0.120884,4.15627 -0.806366,6.599101 -2.054314,7.328315 z m -41.33089,78.48978 c -3.786863,0.17074 -6.969663,0.19288 -9.547155,0.0643 -1.732372,-0.0863 -3.303506,-0.75028 -4.713047,-1.99272 -1.410607,-1.32883 -2.095201,-2.76424 -2.054492,-4.30702 0.080175,-1.7145 0.321943,-3.21417 0.725126,-4.49981 0.523,-1.457448 1.14804,-2.271991 1.873166,-2.44274 0.725125,-0.128616 1.349099,-1.007424 1.873165,-2.635622 0.483358,-1.500649 0.725126,-3.214177 0.725126,-5.142629 0.321942,-16.671479 0.321942,-33.320826 0,-49.948129 0,-1.928452 -0.241768,-3.643047 -0.725126,-5.142628 C 9.955261,34.418235 9.33022,33.561471 8.565453,33.476053 7.195377,33.304327 6.450519,32.854301 6.329635,32.126154 6.088045,30.625506 5.967161,28.740251 5.967161,26.469235 c 0,-1.542868 0.664684,-2.957031 1.99405,-4.242755 1.288657,-1.285635 2.779439,-1.971651 4.471457,-2.057069 3.302617,-0.170749 6.606123,-0.170749 9.909629,0 1.692018,0.08542 3.161823,0.856853 4.411193,2.314214 1.208483,1.414251 1.832457,3.04245 1.872988,4.885573 0.764768,26.012598 0.764768,51.982976 0,77.911222 -0.04053,1.79992 -0.685482,3.36386 -1.93343,4.69269 -1.208483,1.32786 -2.67971,2.03494 -4.411193,2.12134 z"
         style="fill:#000000;fill-opacity:1;fill-rule:evenodd;stroke:none"
         id="path34" />
      <path
         d="m 129.20573,42.797173 c -0.0811,1.842056 -0.76548,3.492387 -2.05431,4.949748 -1.3699,1.499671 -2.8806,2.24995 -4.53208,2.24995 h -1.02716 c -1.81254,-0.0432 -3.50456,-0.686015 -5.0757,-1.928541 -1.69201,-1.372032 -2.47741,-2.914811 -2.35652,-4.628339 0.0395,-0.343542 0.14079,-1.221371 0.30221,-2.635623 0.08,-1.071689 0.14044,-1.907387 0.18132,-2.507006 0.0395,-1.886321 -0.28229,-3.236309 -0.96707,-4.049875 -0.80601,-0.986359 -2.71917,-1.307767 -5.7402,-0.964226 -1.6522,0.170748 -3.12236,-0.450026 -4.41119,-1.864278 -1.28955,-1.328833 -1.93343,-2.828414 -1.93343,-4.499811 0,-1.629176 0.64388,-3.171956 1.93343,-4.628339 1.28883,-1.45745 2.75899,-2.20773 4.41119,-2.24995 0.8053,0 1.99387,0.02107 3.56501,0.06426 1.69201,0.04222 2.92041,0.06426 3.68589,0.06426 0.68441,0 1.93378,-0.02204 3.74633,-0.06426 h 3.68589 c 1.65148,0 3.16218,0.749301 4.53208,2.24995 1.28883,1.456383 1.97324,3.106714 2.05431,4.949748 0.28123,5.142717 0.28123,10.306412 0,15.492328 v 0 z m -27.61413,24.29907 c 0,-1.671396 0.44265,-3.19311 1.32936,-4.564164 0.88566,-1.414252 1.8929,-2.121333 3.02103,-2.121333 1.12742,0 2.17556,0.707081 3.14227,2.121333 1.00654,1.414252 1.51069,2.934988 1.51069,4.564164 0,1.62811 -0.50415,3.149824 -1.51069,4.564076 -0.96671,1.414251 -2.01485,2.121333 -3.14227,2.121333 -1.12813,0 -2.13537,-0.707082 -3.02103,-2.121333 -0.88671,-1.372032 -1.32936,-2.892768 -1.32936,-4.564076 z m 6.40506,31.563033 c 1.6106,0.08542 3.08147,-0.621752 4.41084,-2.121334 1.32937,-1.500648 1.97325,-3.128757 1.93379,-4.885573 0,-0.171726 -0.021,-0.428871 -0.0605,-0.771345 V 90.10959 c -0.0814,-1.757704 0.60407,-3.342705 2.05432,-4.756957 1.36918,-1.372031 2.92041,-2.057069 4.65296,-2.057069 h 1.57078 c 1.69201,0 3.20271,0.707171 4.53207,2.121333 1.32937,1.371054 2.03369,2.957032 2.11476,4.756957 0.28123,4.927704 0.28123,9.877546 0,14.849426 -0.0811,1.80001 -0.78539,3.40705 -2.11476,4.82131 -1.32936,1.41416 -2.82015,2.16346 -4.47163,2.24986 -3.5451,0.17074 -8.1977,0.14968 -13.95817,-0.0643 -1.77308,-0.0432 -3.38368,-0.68601 -4.83393,-1.92845 -1.57114,-1.32892 -2.33662,-2.8285 -2.29608,-4.4999 0,-1.7577 0.6645,-3.36475 1.99387,-4.82122 1.36918,-1.457451 2.85997,-2.164533 4.47163,-2.121334 v 0 z M 89.385531,112.15871 c -2.900145,0.12862 -6.56648,0.10648 -10.997228,-0.0643 -1.812902,-0.0864 -3.484654,-0.72922 -5.015256,-1.92846 -1.652198,-1.28572 -2.457497,-2.78628 -2.416966,-4.49981 0,-1.75779 0.442649,-3.36484 1.329367,-4.82131 0.8053,-1.41416 1.692018,-2.12133 2.658733,-2.12133 0.885652,-0.0432 1.671041,-0.793478 2.356523,-2.249862 0.684416,-1.45745 1.066978,-3.107692 1.148041,-4.949837 0.604419,-16.970755 0.604419,-33.899378 0,-50.783737 -0.08106,-1.843123 -0.463625,-3.493454 -1.148041,-4.949837 -0.725303,-1.54278 -1.551223,-2.336258 -2.477407,-2.378478 -0.966715,-0.0432 -1.853433,-0.75028 -2.658733,-2.121334 -0.765834,-1.372031 -1.148041,-2.892767 -1.148041,-4.564075 -0.04053,-1.629176 0.664506,-3.107692 2.114756,-4.435547 1.369187,-1.285724 2.920411,-1.97174 4.652961,-2.05707 3.867215,-0.257144 7.734075,-0.257144 11.601291,0 1.692018,0.08533 3.162179,0.83561 4.411193,2.249862 1.208483,1.414251 1.832456,3.021295 1.872988,4.82122 0.725303,25.970467 0.725303,51.854537 0,77.654165 -0.04053,1.84215 -0.664505,3.47132 -1.872988,4.88558 -1.249014,1.45638 -2.719175,2.22781 -4.411193,2.31412 v 0 z"
         style="fill:#000000;fill-opacity:1;fill-rule:evenodd;stroke:none"
         id="path36" />
      <path
         d="m 186.82287,112.15871 c -2.33697,0.0854 -5.11659,0.0644 -8.33885,-0.0643 -1.77308,-0.0432 -3.38368,-0.66486 -4.83393,-1.86419 -1.53132,-1.24351 -2.25662,-2.65767 -2.1752,-4.24267 0.16035,-4.49981 0.90627,-6.857223 2.23564,-7.07117 0.64388,-0.128616 1.2483,-0.986358 1.8129,-2.571358 0.48318,-1.457362 0.76441,-3.107692 0.84583,-4.949749 0.16035,-2.828503 0.24177,-7.114368 0.24177,-12.856705 0,-5.828645 0.0604,-9.963849 0.18133,-12.40668 0,-0.385673 0.0601,-1.007424 0.18097,-1.864188 0.0804,-0.814544 0.12088,-1.436296 0.12088,-1.864189 0,-0.514289 -0.12088,-0.835698 -0.3623,-0.964226 -0.2823,-0.128617 -0.62504,-0.0864 -1.02751,0.128528 -0.96671,0.599619 -1.6522,1.73566 -2.05431,3.406968 -0.12089,0.427893 -0.34274,1.30679 -0.66451,2.635623 -0.24177,1.113909 -0.46362,1.992805 -0.66486,2.635623 -0.44371,1.713528 -0.98769,2.484962 -1.63158,2.314214 -0.60406,-0.171726 -0.9468,-1.157107 -1.02715,-2.957032 -0.80637,-23.827979 -0.32283,-38.355992 1.45025,-43.584039 0.56353,-1.629176 1.8129,-3.021296 3.74633,-4.178403 1.8129,-1.114886 3.60483,-1.714506 5.37791,-1.799924 h 2.1752 c 1.65148,0 3.10138,0.749302 4.35075,2.24995 1.24794,1.456383 1.89289,3.106625 1.93343,4.949748 0.1607,6.171208 0.1607,16.906491 0,32.205939 -0.0811,13.885195 0.0199,24.513016 0.30221,31.884441 0.0803,1.885343 0.34167,3.556739 0.78539,5.014101 0.48353,1.585 1.02715,2.420698 1.63157,2.507094 0.64389,0.128528 1.16795,0.942094 1.57114,2.442744 0.36265,1.37105 0.54362,2.91383 0.54362,4.62834 0,1.54287 -0.70504,2.95703 -2.11476,4.24275 -1.3699,1.24244 -2.9005,1.90641 -4.59216,1.99272 v 0 z m -25.86203,-6.55688 c -0.80637,1.6714 -2.01485,3.14991 -3.62545,4.43555 -1.69201,1.32785 -3.36412,2.01387 -5.01525,2.05707 -2.94104,0.17074 -6.58639,0.17074 -10.93714,0 -1.81255,-0.0864 -3.46475,-0.70709 -4.95482,-1.86419 -1.6522,-1.24351 -2.4575,-2.67882 -2.41696,-4.30702 0.0398,-1.75771 0.36265,-3.34271 0.96671,-4.75696 0.56389,-1.457359 1.20848,-2.24986 1.93379,-2.378476 0.68441,-0.08631 1.24794,-0.964227 1.69201,-2.635534 0.40212,-1.45745 0.62398,-3.149913 0.66451,-5.078454 0.16035,-6.386132 0.22079,-14.550057 0.18133,-24.491862 -0.0405,-15.128699 -0.0605,-23.378042 -0.0605,-24.749096 0,-1.928453 -0.20194,-3.621893 -0.60442,-5.078365 -0.44371,-1.671308 -1.00724,-2.593402 -1.69166,-2.764151 -0.76583,-0.171726 -1.45025,-0.899962 -2.05467,-2.185597 -0.64459,-1.328922 -0.96671,-2.786283 -0.96671,-4.371283 0,-1.585978 0.64388,-3.064494 1.93378,-4.435548 1.28848,-1.414252 2.75864,-2.164531 4.41084,-2.24995 2.85997,-0.214924 6.04241,-0.214924 9.54733,0 1.73149,0.128617 3.28271,0.813655 4.65261,2.057069 1.40972,1.285724 2.11475,2.721042 2.11475,4.30702 -0.0405,1.585 -0.32283,3.085559 -0.84583,4.499811 -0.5646,1.414252 -1.18857,2.227818 -1.87334,2.442742 -1.3699,0.427893 -2.05431,3.12778 -2.05431,8.09975 -0.0405,11.956654 -0.24177,21.512787 -0.60407,28.670264 0,0.471092 -0.0604,1.371054 -0.18132,2.699887 -0.12089,1.199328 -0.18133,2.121333 -0.18133,2.76424 -0.0405,1.54278 0.40212,2.270927 1.32937,2.185597 0.92618,-0.0864 1.65113,-0.986359 2.17519,-2.699887 0.32212,-1.028579 0.76477,-2.678821 1.32937,-4.949837 0.60442,-2.228795 1.06698,-3.900192 1.38981,-5.014101 1.65113,-5.314355 2.6982,-8.507465 3.14191,-9.578176 0.64389,-1.671396 1.30875,-2.40061 1.99423,-2.185597 0.72495,0.213946 1.10751,1.221371 1.14804,3.021295 0.72495,20.998498 0.86574,34.070128 0.42309,39.212757 -0.2023,2.484962 -1.18892,5.592652 -2.96094,9.321032 v 0 z"
         style="fill:#000000;fill-opacity:1;fill-rule:evenodd;stroke:none"
         id="path38" />
      <path
         d="m 237.55105,110.29452 c -1.41043,0.59962 -2.8397,1.00645 -4.28995,1.22137 -1.24902,0.21395 -1.93379,0.21395 -2.05467,0 -0.0811,-0.12853 -0.12053,-0.32141 -0.12053,-0.57855 0,-0.64282 -0.14186,-2.67873 -0.42309,-6.10686 -0.24177,-2.74308 -0.20195,-4.949833 0.12088,-6.62123 0.16035,-0.857742 0.62398,-1.950585 1.38981,-3.27844 0.84583,-1.414163 1.34892,-2.507006 1.51069,-3.278441 1.00618,-3.900192 1.48972,-12.599471 1.4499,-26.098994 0,-13.928305 -0.48318,-22.735136 -1.4499,-26.420404 -0.16177,-0.729214 -0.66486,-1.821968 -1.51069,-3.27844 -0.80637,-1.372032 -1.26892,-2.464875 -1.38981,-3.278441 -0.40318,-2.271993 -0.48353,-4.692692 -0.24177,-7.263962 0.16035,-1.799924 0.98663,-3.236308 2.47741,-4.307019 1.48972,-1.02849 3.00041,-1.221371 4.53172,-0.578554 2.65874,1.157107 4.97473,2.721042 6.94904,4.692692 4.26934,4.284888 7.53249,10.692086 9.78875,19.220706 2.17555,8.185079 3.06085,16.842227 2.65873,25.970378 -0.44371,9.470803 -2.21573,17.698991 -5.31746,24.684832 -3.42422,7.670787 -8.11771,12.770217 -14.07906,15.299357 z M 222.0221,38.811562 c -0.96707,3.471321 -1.45025,12.384548 -1.45025,26.741813 0,14.827378 0.48318,23.849133 1.45025,27.06331 0.16035,0.556421 0.70433,1.478515 1.63122,2.76415 0.88566,1.242437 1.40972,2.292082 1.57114,3.149913 V 106.309 c 0,2.27102 -0.0405,3.59985 -0.12089,3.98552 -0.20194,1.28573 -0.84583,1.92854 -1.93343,1.92854 -3.62544,-0.0864 -7.51364,-2.05707 -11.66208,-5.91406 -4.5527,-4.24276 -8.01673,-10.693152 -10.39317,-19.349234 -2.25661,-8.228277 -3.14191,-16.992888 -2.65873,-26.291875 0.48353,-9.600309 2.37643,-17.913916 5.68012,-24.941888 3.58491,-7.757186 8.43875,-12.878749 14.56223,-15.363712 1.57113,-0.599619 3.04129,-0.363629 4.41119,0.707082 1.36883,1.028579 2.13467,2.463897 2.29608,4.307019 0.28124,2.957032 0.22079,5.356576 -0.18132,7.199698 -0.12089,0.685038 -0.62504,1.692463 -1.51069,3.021296 -0.9269,1.371054 -1.49079,2.442831 -1.69167,3.214176 z"
         style="fill:#000000;fill-opacity:1;fill-rule:evenodd;stroke:none"
         id="path40" />
      <path
         d="m 321.5134,111.96592 c -5.358,0.34247 -10.716,0.34247 -16.07293,0 -1.69201,-0.0864 -3.22333,-0.75028 -4.59251,-1.99281 -1.41044,-1.32883 -2.11476,-2.78628 -2.11476,-4.37128 0,-1.62918 0.3822,-3.12876 1.14804,-4.49981 0.8053,-1.328836 1.65113,-1.992719 2.53785,-1.992719 0.84583,0.04213 1.51069,-0.729214 1.99387,-2.314214 0.48354,-1.585978 0.56389,-3.257374 0.24177,-5.014101 -0.32283,-1.886321 -1.26893,-5.635852 -2.84006,-11.249573 -1.32901,-4.843352 -2.13538,-8.742566 -2.41697,-11.699598 v -37.02707 c 0,-0.600686 -0.0206,-1.564912 -0.0604,-2.892768 -0.0405,-1.243503 -0.0604,-2.207729 -0.0604,-2.892767 0,-1.585978 0.60442,-2.722019 1.8129,-3.406969 1.20848,-0.686015 2.03369,-0.364606 2.47741,0.964227 0.20124,0.599619 0.40212,1.435317 0.60442,2.507006 0.24141,1.327855 0.40211,2.099289 0.48318,2.314214 1.73148,6.770827 4.18933,16.842227 7.37178,30.213133 3.18173,13.327708 5.65949,23.420174 7.43258,30.277398 1.48971,5.956283 2.53784,9.149305 3.14191,9.578176 0.40211,0.299365 1.22839,0.514289 2.47741,0.642906 0.7253,0.08533 1.36918,0.771346 1.93378,2.056979 0.60406,1.32786 0.90627,2.80637 0.90627,4.43555 0,1.585 -0.64495,3.02138 -1.93378,4.30702 -1.28955,1.28563 -2.77926,1.97067 -4.47128,2.05707 v 0 z M 293.05308,27.112053 v 40.176982 c -0.32283,3.214177 -1.18857,7.349381 -2.59829,12.40668 -1.69166,6.12801 -2.71882,10.15673 -3.08147,12.085271 -0.32283,1.756727 -0.2823,3.406968 0.12088,4.949748 0.3623,1.542869 0.92619,2.335369 1.69167,2.378567 0.76476,0.04213 1.47016,0.749302 2.11511,2.121339 0.60406,1.37105 0.92618,2.89267 0.96671,4.56407 0,1.6282 -0.70539,3.08556 -2.11475,4.37128 -1.37026,1.24244 -2.9005,1.88526 -4.59252,1.92846 -0.96672,0 -6.52595,-0.022 -16.67735,-0.0643 -1.81254,0 -3.50456,-0.53633 -5.0757,-1.60704 -1.73254,-1.20031 -2.57838,-2.63562 -2.53785,-4.30702 0,-1.75771 0.36266,-3.36484 1.0876,-4.82122 0.72531,-1.414253 1.47017,-2.143467 2.236,-2.185599 1.36883,-0.128617 2.23564,-0.343541 2.59829,-0.642906 0.523,-0.385673 1.48972,-3.471232 2.90014,-9.256768 0.40248,-1.585978 0.84619,-3.385902 1.32937,-5.399773 0.60442,-2.657756 0.9461,-4.136271 1.02751,-4.435548 7.53213,-31.842309 11.762,-49.455882 12.68925,-52.840807 0.48318,-1.714594 1.1676,-3.214176 2.05431,-4.499811 0.92619,-1.328922 1.77202,-1.992805 2.53785,-1.992805 0.76477,0 1.48972,0.728236 2.1752,2.185597 0.64388,1.456472 1.02716,3.085648 1.14804,4.885573 v 0 z"
         style="fill:#000000;fill-opacity:1;fill-rule:evenodd;stroke:none"
         id="path42" />
      <path
         d="m 395.86833,33.476053 c -1.53167,0.299365 -2.67971,2.806371 -3.44448,7.521196 -3.86722,23.312711 -6.40507,40.06952 -7.61355,50.269448 -0.24177,1.842145 -0.20195,3.513452 0.12089,5.014101 0.32211,1.542779 0.84583,2.356345 1.57113,2.442742 0.76477,0.08542 1.42927,0.835698 1.99387,2.24995 0.60442,1.41425 0.90663,2.95703 0.90663,4.62834 0.0395,1.6282 -0.66486,3.10671 -2.11511,4.43555 -1.3699,1.37105 -2.92112,2.07822 -4.65261,2.12133 -2.0952,0.0854 -4.59216,0.0644 -7.49266,-0.0643 -1.73255,-0.0432 -3.32359,-0.57856 -4.77349,-1.60705 -1.53167,-1.11489 -2.31706,-2.35741 -2.35688,-3.72846 0,-0.64282 0.0199,-1.54278 0.0604,-2.69989 0.0804,-1.20031 0.12089,-2.05707 0.12089,-2.57127 0,-6.51475 0.76477,-16.970845 2.29608,-31.370241 0.48353,-4.628428 0.20124,-7.264051 -0.84583,-7.906869 -0.96672,-0.600597 -1.45025,-2.464874 -1.45025,-5.592654 0,-1.243415 0.20123,-2.400522 0.60442,-3.471232 0.44265,-1.114976 1.00653,-1.757793 1.69166,-1.928542 0.68477,-0.128528 1.36919,-0.964226 2.05467,-2.507006 0.68441,-1.45745 1.14804,-3.085648 1.38981,-4.885573 0.16035,-0.94316 0.28123,-1.864188 0.36229,-2.764151 0.20124,-1.799924 0.10027,-3.471321 -0.30185,-5.0141 -0.40318,-1.585978 -0.94716,-2.442742 -1.63158,-2.571359 -0.68548,-0.128528 -1.30945,-0.878808 -1.87334,-2.249862 -0.60406,-1.372031 -0.90627,-2.871701 -0.90627,-4.499811 -0.0405,-1.629176 0.64388,-3.149912 2.05467,-4.564164 1.40936,-1.328833 2.96058,-2.014849 4.6526,-2.057069 0.96672,-0.0432 2.29608,-0.0432 3.9881,0 1.97325,0.04222 3.32324,0.06426 4.04854,0.06426 0.76477,0 2.13467,-0.02204 4.10863,-0.06426 1.73184,-0.0432 3.0612,-0.06426 3.9881,-0.06426 1.65149,0.04222 3.14227,0.7925 4.47163,2.24995 1.28848,1.456383 1.93343,2.999163 1.93343,4.628339 -0.0405,1.585 -0.36265,3.04245 -0.96671,4.371283 -0.5646,1.327856 -1.22946,2.05707 -1.99387,2.185598 v 0 z m -33.23381,71.547227 c -0.0814,1.80001 -0.80637,3.42812 -2.17555,4.88557 -1.32937,1.45638 -2.83971,2.20675 -4.53172,2.24986 -1.97432,0.0854 -4.2704,0.0854 -6.8886,0 -1.81255,-0.0863 -3.48466,-0.75028 -5.01526,-1.99272 -1.6522,-1.32883 -2.4575,-2.8285 -2.41697,-4.49981 0,-1.71459 0.34168,-3.30057 1.02716,-4.75695 0.64388,-1.372124 1.30875,-2.100272 1.99423,-2.18569 0.64388,-0.0432 1.10751,-0.857742 1.38981,-2.442742 0.28123,-1.500649 0.34167,-3.171956 0.18132,-5.014101 -0.0409,-0.214925 -2.01485,-14.10012 -5.92188,-41.655498 -0.12089,-0.686016 -0.26239,-1.97174 -0.42274,-3.856994 -0.16177,-2.143466 -0.30221,-3.728466 -0.42309,-4.756956 -0.44372,-3.943391 -1.14804,-6.299825 -2.11476,-7.071171 -0.36265,-0.300343 -1.1484,-0.493223 -2.35688,-0.578553 -0.68548,-0.0432 -1.30946,-0.729214 -1.87299,-2.05707 -0.5646,-1.328833 -0.84583,-2.786283 -0.84583,-4.371283 0,-1.629176 0.64389,-3.171956 1.93343,-4.628339 1.28884,-1.45745 2.75864,-2.20773 4.41119,-2.24995 0.96672,0 2.29609,0.02107 3.98775,0.06426 2.01414,0.04222 3.40394,0.06426 4.16942,0.06426 0.68442,0 2.07423,-0.02204 4.16943,-0.06426 h 4.10898 c 1.69166,0.04222 3.20236,0.728236 4.53172,2.057069 1.28884,1.327855 1.91281,2.806371 1.87335,4.435547 0,1.671397 -0.24177,3.192044 -0.72531,4.564076 -0.44371,1.414251 -1.02715,2.185686 -1.7521,2.314214 -1.16902,0.213946 -1.91388,0.685038 -2.236,1.414252 -0.60406,1.242436 -0.40318,4.114138 0.60442,8.61395 1.0876,4.799176 2.0337,7.328315 2.84006,7.585459 0.64389,0.213947 1.20849,0.83561 1.69167,1.864189 0.523,1.07071 0.78574,2.185597 0.78574,3.342704 -0.0409,0.685038 -0.46362,2.163554 -1.26892,4.435548 -0.80637,2.314214 -1.22946,4.114138 -1.26893,5.399773 -0.0409,0.471092 0.30185,3.921347 1.02716,10.349611 1.36883,12.299217 1.87299,21.81313 1.51069,28.541745 z"
         style="fill:#000000;fill-opacity:1;fill-rule:evenodd;stroke:none"
         id="path44" />
      <path
         d="m 464.24093,105.21616 c -0.0811,1.79992 -0.78539,3.40705 -2.11476,4.82122 -1.32937,1.37105 -2.84006,2.07822 -4.53208,2.12133 h -0.48318 c -1.73254,0.0422 -3.34421,-0.68602 -4.83393,-2.1856 -1.49078,-1.54278 -2.15564,-3.19302 -1.99422,-4.94983 0.12088,-1.32884 0.40211,-2.97908 0.84618,-4.94975 0.48318,-2.228887 0.74486,-3.450258 0.78539,-3.664204 0.20124,-1.457362 0.18133,-4.949749 -0.0604,-10.478139 -0.12088,-1.843123 0.48354,-3.557629 1.8129,-5.142629 1.28848,-1.629176 2.75864,-2.442742 4.41084,-2.442742 1.6106,0 3.04094,0.813566 4.29031,2.442742 1.16795,1.54278 1.77201,3.27844 1.81255,5.206893 0.24176,8.141881 0.26167,14.549169 0.0604,19.220709 z M 447.20129,33.411789 c -0.84619,0.04222 -1.59212,0.87783 -2.236,2.507095 -0.5646,1.542779 -0.86645,3.27844 -0.90627,5.206892 -0.0811,4.799177 -0.12089,22.177737 -0.12089,52.133726 0,1.199239 0.0804,3.235242 0.24177,6.106855 0.16035,2.571363 0.22079,4.564163 0.18133,5.978413 -0.0814,1.75673 -0.86681,3.29951 -2.35653,4.62834 -1.45025,1.32786 -3.042,2.03494 -4.77384,2.12134 -2.57838,0.0854 -4.79411,0.10648 -6.64648,0.0643 -1.69202,-0.0863 -3.22333,-0.85774 -4.59252,-2.31412 -1.41043,-1.45746 -2.13537,-3.08565 -2.17519,-4.88558 -0.0405,-1.58598 -0.0405,-3.75051 0,-6.492615 0.0398,-3.599849 0.0604,-5.656919 0.0604,-6.171119 V 53.40388 c 0,-0.857742 0.0604,-2.421588 0.18132,-4.692604 0.12089,-2.657755 0.20088,-4.607362 0.24177,-5.849799 0.12089,-4.756956 -0.2023,-7.628658 -0.96707,-8.61395 -0.40318,-0.472069 -1.43034,-0.771434 -3.08147,-0.899962 -0.88672,-0.0432 -1.69202,-0.771435 -2.41697,-2.185686 -0.7253,-1.372032 -1.08759,-2.914812 -1.08759,-4.62834 -0.0409,-1.629176 0.6645,-3.085648 2.11475,-4.371283 1.36883,-1.200305 2.93997,-1.843123 4.71305,-1.928453 8.94291,-0.257144 15.85142,-0.257144 20.72589,0 1.73148,0.08533 3.30261,0.771346 4.71304,2.05707 1.40972,1.327855 2.11511,2.806371 2.11511,4.435547 0,1.62811 -0.42309,3.149824 -1.26892,4.564075 -0.80637,1.371054 -1.69202,2.078136 -2.65873,2.121334 v 0 z M 415.96135,96.66647 c 0.0804,0.471092 0.36265,1.135064 0.84619,1.992806 0.48318,0.856764 0.78539,1.563844 0.90627,2.121334 0.24177,1.37105 0.28123,3.14991 0.12088,5.33551 -0.12088,1.49958 -0.80636,2.87063 -2.05466,4.11414 -1.32937,1.28563 -2.82015,1.9496 -4.47128,1.9928 h -1.0876 c -1.6522,-0.0432 -3.16289,-0.81463 -4.53208,-2.31421 -1.28955,-1.50065 -1.99387,-3.17196 -2.11476,-5.0141 -0.20194,-4.58621 -0.18132,-10.885946 0.0605,-18.899299 0.0395,-1.928453 0.6645,-3.664113 1.87298,-5.206893 1.20849,-1.629176 2.61821,-2.442742 4.22987,-2.442742 1.65149,0 3.14227,0.813566 4.47164,2.442742 1.32936,1.62811 1.93343,3.342704 1.81254,5.142629 -0.32283,5.870865 -0.34274,9.449648 -0.0604,10.735283 v 0 z"
         style="fill:#000000;fill-opacity:1;fill-rule:evenodd;stroke:none"
         id="path46" />
      <path
         d="m 500.89077,33.411789 c -1.0876,0 -2.05467,0.835698 -2.9005,2.507095 -0.80637,1.584911 -1.22911,3.320572 -1.26893,5.206892 -0.0405,1.585001 0,4.606296 0.12089,9.063976 0.0395,3.813796 0.0199,6.791893 -0.0604,8.935359 -0.0405,1.799924 -0.74592,3.428123 -2.11475,4.885484 -1.3699,1.456472 -2.88059,2.206752 -4.53208,2.24995 -1.81254,0.08533 -3.92766,0.06426 -6.34462,-0.06426 -1.73255,-0.0432 -3.30333,-0.729214 -4.71305,-2.057069 -1.45025,-1.372121 -2.23564,-2.935966 -2.35652,-4.692692 -0.12088,-2.05707 -0.12088,-5.142718 0,-9.256768 0.16035,-4.45768 0.20088,-7.607592 0.12088,-9.449648 -0.0405,-1.799925 -0.48353,-3.471321 -1.32936,-5.014101 -0.84619,-1.54278 -1.77308,-2.314214 -2.77962,-2.314214 -1.04813,-0.0432 -2.07529,-0.686016 -3.08183,-1.928453 -1.04777,-1.37212 -1.55122,-2.871702 -1.51033,-4.4999 0,-1.671308 0.70432,-3.171956 2.11475,-4.499811 1.40972,-1.285635 2.9805,-1.992717 4.71305,-2.121334 8.05655,-0.427893 16.13337,-0.427893 24.23045,0 1.73148,0.128617 3.28271,0.835699 4.65261,2.121334 1.45025,1.327855 2.17555,2.828503 2.17555,4.499811 0,1.628198 -0.5646,3.12778 -1.69202,4.4999 -1.0876,1.242437 -2.23564,1.885255 -3.44412,1.928453 v 0 z m -28.5812,65.376015 c 1.04706,0 2.03369,-0.686016 2.96094,-2.05707 1.00653,-1.372031 1.5306,-2.935877 1.57113,-4.692603 0.08,-1.500648 0.0605,-3.664202 -0.0604,-6.492617 -0.0814,-3.128846 -0.12088,-5.335509 -0.12088,-6.621233 0.0395,-1.757704 0.76477,-3.364748 2.1752,-4.82122 1.36918,-1.457361 2.92041,-2.228796 4.6526,-2.314214 2.21502,-0.128528 4.41119,-0.128528 6.58639,0 1.73148,0.08542 3.30262,0.835698 4.7134,2.24995 1.40937,1.456383 2.11476,3.085559 2.11476,4.885484 0,1.157107 -0.0604,3.384925 -0.18133,6.685497 -0.0811,2.828504 -0.10097,4.991969 -0.0604,6.492617 0.0803,1.756726 0.68442,3.320661 1.8129,4.692692 1.04707,1.327856 2.11476,1.992717 3.20236,1.992717 1.04706,0 2.01378,0.685038 2.9005,2.057066 0.96671,1.41426 1.45025,2.95703 1.45025,4.62843 0,1.6714 -0.7253,3.17098 -2.17555,4.49981 -1.3699,1.32786 -2.92113,2.03494 -4.65261,2.12134 -5.51941,0.29936 -13.39464,0.29936 -23.62603,0 -1.8129,-0.0432 -3.48501,-0.66486 -5.01526,-1.86419 -1.65255,-1.28564 -2.45785,-2.78629 -2.41696,-4.49981 0,-1.7146 0.46256,-3.32164 1.38945,-4.82122 0.88565,-1.414256 1.8129,-2.121426 2.77962,-2.121426 v 0 z"
         style="fill:#000000;fill-opacity:1;fill-rule:evenodd;stroke:none"
         id="path48" />
      <path
         d="m 549.86685,110.29452 c -1.41043,0.59962 -2.8397,1.00645 -4.28995,1.22137 -1.24902,0.21395 -1.93379,0.21395 -2.05467,0 -0.0811,-0.12853 -0.12053,-0.32141 -0.12053,-0.57855 0,-0.64282 -0.14186,-2.67873 -0.4231,-6.10686 -0.24176,-2.74308 -0.20194,-4.949833 0.12089,-6.62123 0.16035,-0.857742 0.62397,-1.950585 1.38981,-3.27844 0.84583,-1.414163 1.34892,-2.507006 1.51069,-3.278441 1.00618,-3.900192 1.48971,-12.599471 1.44989,-26.098994 0,-13.928305 -0.48318,-22.735136 -1.44989,-26.420404 -0.16177,-0.729214 -0.66486,-1.821968 -1.51069,-3.27844 -0.80637,-1.372032 -1.26893,-2.464875 -1.38981,-3.278441 -0.40318,-2.271993 -0.48354,-4.692692 -0.24177,-7.263962 0.16035,-1.799924 0.98663,-3.236308 2.47741,-4.307019 1.48971,-1.02849 3.0004,-1.221371 4.53172,-0.578554 2.65873,1.157107 4.97472,2.721042 6.94904,4.692692 4.26933,4.284888 7.53249,10.692086 9.78875,19.220706 2.17555,8.185079 3.06085,16.842227 2.65873,25.970378 -0.44372,9.470803 -2.21573,17.698991 -5.31747,24.684832 -3.42421,7.670787 -8.1177,12.770217 -14.07905,15.299357 z M 534.3379,38.811562 c -0.96707,3.471321 -1.45025,12.384548 -1.45025,26.741813 0,14.827378 0.48318,23.849133 1.45025,27.06331 0.16035,0.556421 0.70433,1.478515 1.63122,2.76415 0.88565,1.242437 1.40972,2.292082 1.57113,3.149913 V 106.309 c 0,2.27102 -0.0405,3.59985 -0.12088,3.98552 -0.20195,1.28573 -0.84583,1.92854 -1.93343,1.92854 -3.62545,-0.0864 -7.51364,-2.05707 -11.66209,-5.91406 -4.5527,-4.24276 -8.01673,-10.693152 -10.39316,-19.349234 -2.25662,-8.228277 -3.14192,-16.992888 -2.65874,-26.291875 0.48354,-9.600309 2.37644,-17.913916 5.68012,-24.941888 3.58492,-7.757186 8.43876,-12.878749 14.56224,-15.363712 1.57113,-0.599619 3.04129,-0.363629 4.41119,0.707082 1.36883,1.028579 2.13466,2.463897 2.29608,4.307019 0.28123,2.957032 0.22079,5.356576 -0.18133,7.199698 -0.12088,0.685038 -0.62504,1.692463 -1.51069,3.021296 -0.92689,1.371054 -1.49078,2.442831 -1.69166,3.214176 z"
         style="fill:#000000;fill-opacity:1;fill-rule:evenodd;stroke:none"
         id="path50" />
      <path
         d="m 626.63874,112.15871 c -2.33697,0.0854 -5.11658,0.0644 -8.33885,-0.0643 -1.77308,-0.0432 -3.38368,-0.66486 -4.83393,-1.86419 -1.53131,-1.24351 -2.25662,-2.65767 -2.1752,-4.24267 0.16035,-4.49981 0.90628,-6.857223 2.23564,-7.07117 0.64389,-0.128616 1.24831,-0.986358 1.8129,-2.571358 0.48318,-1.457362 0.76442,-3.107692 0.84584,-4.949749 0.16034,-2.828503 0.24176,-7.114368 0.24176,-12.856705 0,-5.828645 0.0604,-9.963849 0.18133,-12.40668 0,-0.385673 0.0601,-1.007424 0.18097,-1.864188 0.0803,-0.814544 0.12088,-1.436296 0.12088,-1.864189 0,-0.514289 -0.12088,-0.835698 -0.36229,-0.964226 -0.2823,-0.128617 -0.62504,-0.0864 -1.02752,0.128528 -0.96671,0.599619 -1.65219,1.73566 -2.05431,3.406968 -0.12088,0.427893 -0.34274,1.30679 -0.66451,2.635623 -0.24176,1.113909 -0.46362,1.992805 -0.66486,2.635623 -0.44371,1.713528 -0.98769,2.484962 -1.63157,2.314214 -0.60407,-0.171726 -0.94681,-1.157107 -1.02716,-2.957032 -0.80636,-23.827979 -0.32283,-38.355992 1.45025,-43.584039 0.56353,-1.629176 1.8129,-3.021296 3.74633,-4.178403 1.8129,-1.114886 3.60483,-1.714506 5.37791,-1.799924 h 2.1752 c 1.65149,0 3.10138,0.749302 4.35075,2.24995 1.24795,1.456383 1.8929,3.106625 1.93343,4.949748 0.1607,6.171208 0.1607,16.906491 0,32.205939 -0.0811,13.885195 0.0199,24.513016 0.30221,31.884441 0.0803,1.885343 0.34167,3.556739 0.78539,5.014101 0.48353,1.585 1.02716,2.420698 1.63157,2.507094 0.64389,0.128528 1.16796,0.942094 1.57114,2.442744 0.36265,1.37105 0.54362,2.91383 0.54362,4.62834 0,1.54287 -0.70504,2.95703 -2.11476,4.24275 -1.36989,1.24244 -2.9005,1.90641 -4.59216,1.99272 v 0 z m -25.86202,-6.55688 c -0.80637,1.6714 -2.01485,3.14991 -3.62545,4.43555 -1.69202,1.32785 -3.36413,2.01387 -5.01526,2.05707 -2.94103,0.17074 -6.58639,0.17074 -10.93714,0 -1.81255,-0.0864 -3.46475,-0.70709 -4.95482,-1.86419 -1.65219,-1.24351 -2.45749,-2.67882 -2.41696,-4.30702 0.0398,-1.75771 0.36265,-3.34271 0.96671,-4.75696 0.56389,-1.457359 1.20849,-2.24986 1.93379,-2.378476 0.68441,-0.08631 1.24795,-0.964227 1.69202,-2.635534 0.40211,-1.45745 0.62397,-3.149913 0.6645,-5.078454 0.16035,-6.386132 0.22079,-14.550057 0.18133,-24.491862 -0.0405,-15.128699 -0.0604,-23.378042 -0.0604,-24.749096 0,-1.928453 -0.20195,-3.621893 -0.60442,-5.078365 -0.44372,-1.671308 -1.00725,-2.593402 -1.69167,-2.764151 -0.76583,-0.171726 -1.45025,-0.899962 -2.05466,-2.185597 -0.6446,-1.328922 -0.96672,-2.786283 -0.96672,-4.371283 0,-1.585978 0.64388,-3.064494 1.93379,-4.435548 1.28848,-1.414252 2.75864,-2.164531 4.41083,-2.24995 2.85997,-0.214924 6.04242,-0.214924 9.54734,0 1.73148,0.128617 3.2827,0.813655 4.6526,2.057069 1.40972,1.285724 2.11476,2.721042 2.11476,4.30702 -0.0405,1.585 -0.32283,3.085559 -0.84583,4.499811 -0.5646,1.414252 -1.18858,2.227818 -1.87335,2.442742 -1.3699,0.427893 -2.05431,3.12778 -2.05431,8.09975 -0.0405,11.956654 -0.24177,21.512787 -0.60407,28.670264 0,0.471092 -0.0604,1.371054 -0.18132,2.699887 -0.12088,1.199328 -0.18133,2.121333 -0.18133,2.76424 -0.0405,1.54278 0.40212,2.270927 1.32937,2.185597 0.92618,-0.0864 1.65113,-0.986359 2.1752,-2.699887 0.32212,-1.028579 0.76477,-2.678821 1.32936,-4.949837 0.60442,-2.228795 1.06698,-3.900192 1.38981,-5.014101 1.65113,-5.314355 2.6982,-8.507465 3.14192,-9.578176 0.64388,-1.671396 1.30874,-2.40061 1.99422,-2.185597 0.72495,0.213946 1.10751,1.221371 1.14804,3.021295 0.72495,20.998498 0.86575,34.070128 0.4231,39.212757 -0.20231,2.484962 -1.18893,5.592652 -2.96094,9.321032 v 0 z"
         style="fill:#000000;fill-opacity:1;fill-rule:evenodd;stroke:none"
         id="path52" />
      <path
         d="m 642.98508,50.061135 c -1.0876,0.04222 -2.13538,-0.66495 -3.14191,-2.121333 -1.04814,-1.45745 -1.57114,-3.064494 -1.57114,-4.82122 0,-0.943161 0.0199,-2.271994 0.0604,-3.985611 0.0398,-1.843123 0.0605,-3.064494 0.0605,-3.664113 0,-0.899962 -0.0206,-2.20773 -0.0605,-3.921258 -0.0405,-1.629176 -0.0604,-2.828503 -0.0604,-3.599849 0,-1.757793 0.50345,-3.385991 1.51069,-4.885573 0.96672,-1.500559 1.99388,-2.228795 3.08183,-2.185597 1.0876,0 2.05431,0.749302 2.90014,2.249861 0.8053,1.414252 1.2284,3.04245 1.26893,4.885573 0.1607,4.970903 0.1607,9.941806 0,14.913686 -0.0405,1.842145 -0.44371,3.471321 -1.20848,4.885573 -0.84583,1.499582 -1.79299,2.249861 -2.84006,2.249861 z m 32.87151,34.391536 c 1.36883,0 2.5574,0.7925 3.56501,2.378478 1.00653,1.54278 1.53024,3.235242 1.57113,5.078365 0.20088,5.228048 0.22079,9.513916 0.0604,12.856706 -0.0814,1.75673 -0.62504,3.32057 -1.63157,4.6926 -1.00761,1.37106 -2.09521,2.03503 -3.26316,1.99281 -3.10244,-0.0432 -4.75358,-0.17173 -4.95481,-0.38567 -0.3623,-0.38568 -0.66451,-2.69989 -0.90627,-6.94265 -0.20195,-4.11405 -0.18133,-8.292538 0.0604,-12.535205 0.0803,-1.799924 0.6645,-3.4291 1.75246,-4.885484 1.12706,-1.500648 2.37643,-2.24995 3.74633,-2.24995 v 0 z m 7.25089,-36.641397 c -0.64495,7.456843 -4.61313,15.084434 -11.90385,22.884818 -0.88636,0.942094 -2.35653,2.33528 -4.41084,4.178403 -2.29608,2.057069 -3.92766,3.577717 -4.89437,4.564075 -3.82775,3.813796 -5.96242,7.177655 -6.40507,10.092466 -0.56459,3.728466 0.18133,6.449419 2.23564,8.164013 3.9881,3.299511 5.98197,5.785451 5.98197,7.456841 0,1.45639 -0.64495,2.91384 -1.93342,4.37129 -1.3699,1.45638 -2.86069,2.33528 -4.47164,2.63553 -5.67976,0.90005 -10.49414,-1.00742 -14.44135,-5.72118 -3.6258,-4.37129 -5.41844,-9.600311 -5.37791,-15.685123 0.0804,-8.400003 3.94721,-16.563928 11.60165,-24.491862 0.84583,-0.899962 2.37643,-2.421676 4.59216,-4.564164 1.8929,-1.886232 3.32324,-3.364748 4.29031,-4.435548 3.14191,-3.385902 5.21614,-6.535726 6.22374,-9.449559 0.48318,-1.328922 0.78539,-3.021384 0.90627,-5.078454 0.0804,-2.185597 -0.12088,-3.879037 -0.60406,-5.078365 -0.76583,-1.97165 -2.21609,-3.257285 -4.35075,-3.856994 -4.06916,-1.114886 -6.12383,-2.828414 -6.1633,-5.142628 0,-1.328834 0.38221,-2.72202 1.14804,-4.178403 0.76477,-1.372031 1.59069,-2.336258 2.47741,-2.892768 1.12742,-0.642817 2.27546,-1.050622 3.44412,-1.221371 7.4116,-1.199238 13.19269,1.157107 17.34221,7.071171 3.7858,5.399773 5.35693,12.191666 4.71304,20.377812 z"
         style="fill:#000000;fill-opacity:1;fill-rule:evenodd;stroke:none"
         id="path54" />
      <path
         d="m 856.13952,53.725337 c -0.0814,1.842056 -0.76583,3.492387 -2.05467,4.949748 -1.28954,1.499671 -2.75971,2.24995 -4.41084,2.24995 h -1.3898 c -1.73255,-0.0432 -3.30369,-0.750279 -4.71305,-2.121333 -1.49078,-1.37212 -2.25662,-2.935966 -2.29608,-4.692692 -0.0814,-1.585978 -0.0814,-3.728466 0,-6.428353 0.08,-3.557629 0.12052,-5.76438 0.12052,-6.621145 0,-1.88632 -0.56459,-3.643047 -1.69166,-5.271245 -1.16902,-1.671397 -2.49838,-2.507006 -3.9881,-2.507006 -1.57113,0.04213 -3.00147,-0.578554 -4.29031,-1.864278 -1.32936,-1.328833 -1.99387,-2.828414 -1.99387,-4.499811 0,-1.671308 0.70433,-3.193022 2.11476,-4.564075 1.40972,-1.328833 2.98085,-2.036004 4.71304,-2.121334 4.43111,-0.257144 8.88248,-0.257144 13.35411,0 1.69202,0.08533 3.18174,0.83561 4.47128,2.249862 1.28884,1.414251 1.97325,3.021295 2.05467,4.82122 0.44265,8.784787 0.44265,17.591529 0,26.420492 z m -38.49083,58.369113 c -2.65873,0.17074 -6.64683,0.14968 -11.9643,-0.0643 -1.77308,-0.0864 -3.42421,-0.72921 -4.95481,-1.92845 -1.6522,-1.28572 -2.4575,-2.78628 -2.41697,-4.4999 0,-1.71451 0.443,-3.30049 1.32937,-4.75696 0.88565,-1.41416 1.83281,-2.143374 2.84006,-2.185594 0.92618,0 1.73148,-0.793478 2.41696,-2.378478 0.64389,-1.500649 0.98663,-3.193111 1.02716,-5.078365 0.28159,-16.756809 0.28159,-33.470508 0,-50.140921 -0.0405,-1.88632 -0.38327,-3.599849 -1.02716,-5.142628 -0.64495,-1.629265 -1.45025,-2.464875 -2.41696,-2.507095 -1.00725,-0.0432 -1.95441,-0.75028 -2.84006,-2.121334 -0.88637,-1.372031 -1.32937,-2.871701 -1.32937,-4.499811 0,-1.629176 0.70433,-3.107692 2.11511,-4.435547 1.40937,-1.328833 2.96059,-2.036004 4.65261,-2.121334 4.18898,-0.257144 8.3584,-0.257144 12.50792,0 1.69202,0.08533 3.14227,0.83561 4.35075,2.249862 1.20848,1.414251 1.83246,3.021295 1.87299,4.82122 0.36265,25.79874 0.36265,51.576326 0,77.332755 -0.0405,1.84215 -0.66451,3.51346 -1.87299,5.0141 -1.20848,1.54278 -2.63882,2.35635 -4.29031,2.44275 v 0 z"
         style="fill:#000000;fill-opacity:1;fill-rule:evenodd;stroke:none"
         id="path56" />
      <path
         d="m 918.65103,53.725337 c -0.0814,1.842056 -0.76583,3.492387 -2.05467,4.949748 -1.28954,1.499671 -2.7597,2.24995 -4.41083,2.24995 h -1.38981 c -1.73255,-0.0432 -3.30369,-0.750279 -4.71305,-2.121333 -1.49078,-1.37212 -2.25662,-2.935966 -2.29608,-4.692692 -0.0814,-1.585978 -0.0814,-3.728466 0,-6.428353 0.08,-3.557629 0.12053,-5.76438 0.12053,-6.621145 0,-1.88632 -0.5646,-3.643047 -1.69166,-5.271245 -1.16902,-1.671397 -2.49839,-2.507006 -3.9881,-2.507006 -1.57114,0.04213 -3.00148,-0.578554 -4.29031,-1.864278 -1.32937,-1.328833 -1.99388,-2.828414 -1.99388,-4.499811 0,-1.671308 0.70433,-3.193022 2.11476,-4.564075 1.40972,-1.328833 2.98085,-2.036004 4.71305,-2.121334 4.4311,-0.257144 8.88247,-0.257144 13.35411,0 1.69201,0.08533 3.18173,0.83561 4.47127,2.249862 1.28884,1.414251 1.97325,3.021295 2.05467,4.82122 0.44265,8.784787 0.44265,17.591529 0,26.420492 z M 880.1602,112.09445 c -2.65873,0.17074 -6.64683,0.14968 -11.9643,-0.0643 -1.77308,-0.0864 -3.42421,-0.72921 -4.95481,-1.92845 -1.6522,-1.28572 -2.4575,-2.78628 -2.41697,-4.4999 0,-1.71451 0.44301,-3.30049 1.32937,-4.75696 0.88565,-1.41416 1.83281,-2.143374 2.84006,-2.185594 0.92618,0 1.73148,-0.793478 2.41696,-2.378478 0.64389,-1.500649 0.98663,-3.193111 1.02716,-5.078365 0.28159,-16.756809 0.28159,-33.470508 0,-50.140921 -0.0405,-1.88632 -0.38327,-3.599849 -1.02716,-5.142628 -0.64495,-1.629265 -1.45025,-2.464875 -2.41696,-2.507095 -1.00725,-0.0432 -1.95441,-0.75028 -2.84006,-2.121334 -0.88636,-1.372031 -1.32937,-2.871701 -1.32937,-4.499811 0,-1.629176 0.70433,-3.107692 2.11511,-4.435547 1.40937,-1.328833 2.96059,-2.036004 4.65261,-2.121334 4.18898,-0.257144 8.3584,-0.257144 12.50792,0 1.69202,0.08533 3.14227,0.83561 4.35075,2.249862 1.20848,1.414251 1.83246,3.021295 1.87299,4.82122 0.36265,25.79874 0.36265,51.576326 0,77.332755 -0.0405,1.84215 -0.66451,3.51346 -1.87299,5.0141 -1.20848,1.54278 -2.63882,2.35635 -4.29031,2.44275 v 0 z"
         style="fill:#000000;fill-opacity:1;fill-rule:evenodd;stroke:none"
         id="path58" />
      <path
         d="m 969.74222,49.739726 c -0.68548,0.213947 -1.41078,0.427894 -2.17519,0.642818 -3.86722,1.113909 -6.00295,1.456472 -6.40507,1.028579 -0.40318,-0.428871 -0.62504,-2.722019 -0.66486,-6.878289 0,-0.986359 0.0199,-2.314214 0.0604,-3.985611 v -4.049875 c 0,-0.771345 -0.0206,-2.035914 -0.0604,-3.792641 -0.0811,-1.629176 -0.10097,-2.871702 -0.0604,-3.728466 0,-1.757704 0.70432,-2.979075 2.11475,-3.664113 1.40972,-0.686015 2.73909,-0.450025 3.9881,0.707082 3.78616,3.428123 6.38445,8.399025 7.79488,14.913686 0.36265,1.713617 0.0804,3.471321 -0.84583,5.271245 -0.96672,1.799925 -2.21609,2.978098 -3.74634,3.535585 v 0 z m -9.24512,37.927122 c 0,-1.757793 0.64388,-3.321639 1.93379,-4.692693 1.28848,-1.328833 2.71882,-1.992805 4.28995,-1.992805 1.57113,0 3.04129,0.663972 4.41119,1.992805 1.40937,1.327856 2.13467,2.870636 2.1752,4.628429 0,0.899962 -0.0206,2.206663 -0.0604,3.921257 -0.0405,1.970673 -0.0604,3.363859 -0.0604,4.178403 0,0.685038 0.0199,2.078135 0.0604,4.178403 v 4.114143 c -0.0405,1.75672 -0.68548,3.36385 -1.93343,4.82122 -1.2899,1.45647 -2.71918,2.18568 -4.29031,2.18568 -1.57113,0 -3.04201,-0.66495 -4.41119,-1.9928 -1.41043,-1.37204 -2.13538,-2.91481 -2.1752,-4.62843 -0.0405,-0.94316 -0.0206,-2.272 0.0604,-3.98552 0.0398,-1.971743 0.0604,-3.342708 0.0604,-4.114142 0,-0.814633 -0.0206,-2.271994 -0.0604,-4.371284 -0.0405,-1.843123 -0.0405,-3.257374 0,-4.242666 z M 949.56031,36.304556 c -2.01484,2.484963 -3.20271,7.006818 -3.56536,13.563787 -0.0405,0.213858 -0.0601,5.61372 -0.0601,16.199321 0,0.04222 -0.0409,2.721042 -0.12089,8.035397 -0.0814,3.770597 -0.0604,6.878289 0.0604,9.32112 0.32177,7.328226 1.48972,11.720575 3.50457,13.178025 0.44265,0.299366 1.34928,0.578554 2.71917,0.835699 0.76477,0.128528 1.46981,0.813566 2.11476,2.057069 0.64388,1.327856 0.96672,2.742106 0.96672,4.242666 0,1.71353 -0.54363,3.42812 -1.63123,5.14263 -1.16901,1.84214 -2.51829,2.89277 -4.04854,3.14991 -3.38403,0.55642 -6.56648,-0.0221 -9.54733,-1.73566 -4.71305,-2.61447 -8.48036,-7.69283 -11.29944,-15.235093 -2.61891,-6.942643 -4.08907,-15.000083 -4.41084,-24.170543 -0.32318,-9.086019 0.52301,-17.571352 2.53786,-25.456088 2.13466,-8.400004 5.27657,-14.720894 9.42609,-18.963561 3.50456,-3.599849 7.63346,-5.721271 12.38704,-6.364088 1.61095,-0.213947 3.12164,0.385761 4.53207,1.799924 1.36883,1.371054 2.05432,2.957032 2.05432,4.756956 v 0.771435 c 0,1.456383 -0.66451,3.042361 -1.99388,4.756956 -0.40318,0.514289 -1.02715,1.199238 -1.87334,2.057069 -0.84583,0.942183 -1.43034,1.628198 -1.75211,2.057069 v 0 z"
         style="fill:#000000;fill-opacity:1;fill-rule:evenodd;stroke:none"
         id="path60" />
    </g>
  </g>
</svg>
