<?xml version="1.0" encoding="UTF-8" standalone="no"?>
<!-- Created with Inkscape (http://www.inkscape.org/) -->

<svg
   width="250"
   height="250"
   viewBox="0 0 66.145833 66.145834"
   version="1.1"
   id="svg1822"
   xml:space="preserve"
   inkscape:version="1.2.2 (732a01da63, 2022-12-09)"
   sodipodi:docname="person.svg"
   xmlns:inkscape="http://www.inkscape.org/namespaces/inkscape"
   xmlns:sodipodi="http://sodipodi.sourceforge.net/DTD/sodipodi-0.dtd"
   xmlns="http://www.w3.org/2000/svg"
   xmlns:svg="http://www.w3.org/2000/svg"><sodipodi:namedview
     id="namedview1824"
     pagecolor="#ffffff"
     bordercolor="#666666"
     borderopacity="1.0"
     inkscape:showpageshadow="2"
     inkscape:pageopacity="0.0"
     inkscape:pagecheckerboard="0"
     inkscape:deskcolor="#d1d1d1"
     inkscape:document-units="mm"
     showgrid="false"
     inkscape:zoom="0.76167929"
     inkscape:cx="117.50352"
     inkscape:cy="324.28346"
     inkscape:window-width="1920"
     inkscape:window-height="1009"
     inkscape:window-x="-8"
     inkscape:window-y="-8"
     inkscape:window-maximized="1"
     inkscape:current-layer="layer1" /><defs
     id="defs1819" /><g
     inkscape:label="Layer 1"
     inkscape:groupmode="layer"
     id="layer1"
     transform="translate(-20.626087,-69.596251)"><path
       style="fill:#666666;stroke-width:0.0995181"
       d="m 50.588542,132.33393 c -5.016443,-0.51595 -10.100274,-2.45277 -14.280859,-5.44067 -3.764623,-2.69061 -6.969021,-6.40855 -9.081107,-10.53645 -2.169166,-4.23947 -3.16123,-8.12136 -3.280193,-12.83521 -0.09964,-3.948181 0.367532,-7.051901 1.600437,-10.632711 1.47576,-4.28615 3.768558,-7.93346 7.075344,-11.25523 2.397118,-2.40798 4.890692,-4.20316 7.865282,-5.6624 4.380579,-2.14897 8.333559,-3.06486 13.235919,-3.0667 3.677395,-0.002 6.908923,0.55251 10.122563,1.73503 9.068427,3.33692 15.917247,10.69008 18.527052,19.89135 0.811264,2.86025 1.091065,4.9391 1.091648,8.110731 7.52e-4,5.05459 -0.974227,9.14875 -3.241481,13.60921 -4.512866,8.87834 -13.209506,14.90069 -23.165923,16.04222 -1.465364,0.16801 -5.014345,0.19041 -6.468682,0.0408 z M 34.082139,119.08464 c 0.164596,-4.14791 0.189308,-4.45157 0.429313,-5.27521 1.011592,-3.47158 3.782085,-6.12568 7.369249,-7.05968 0.726318,-0.18911 1.149652,-0.21118 4.826632,-0.25162 l 4.030486,-0.0443 -0.895663,-0.32244 c -1.849,-0.66564 -3.256996,-1.56456 -4.680946,-2.98852 -1.909014,-1.90901 -3.118689,-4.215321 -3.586703,-6.838251 -0.211341,-1.18444 -0.215073,-3.22752 -0.0081,-4.41089 0.825213,-4.71717 4.223604,-8.59451 8.796915,-10.0367 2.601206,-0.82029 5.887274,-0.72667 8.385669,0.23891 4.084474,1.57857 7.077772,5.10422 8.022671,9.44948 0.258538,1.18891 0.258538,3.88651 0,5.07542 -0.538052,2.47433 -1.603611,4.500001 -3.292969,6.260091 -1.501123,1.56398 -3.233191,2.68746 -5.149902,3.34041 l -0.72426,0.24672 3.535507,0.003 c 1.944525,0.002 3.914985,0.0498 4.378797,0.10767 3.986857,0.49696 7.550171,3.69321 8.45077,7.58024 0.152706,0.65908 0.202404,1.3697 0.248992,3.56019 0.03201,1.50522 0.08461,3.24481 0.116882,3.86577 l 0.05868,1.12901 0.349641,-0.33287 c 1.099903,-1.04713 3.217528,-3.97017 4.299433,-5.93466 1.877413,-3.40894 3.040886,-7.3191 3.39679,-11.41582 0.157847,-1.81692 0.06671,-4.74856 -0.203529,-6.547191 -1.74462,-11.61223 -10.298126,-21.02565 -21.626164,-23.80075 -2.514471,-0.61598 -3.967152,-0.78532 -6.787448,-0.79118 -2.708258,-0.006 -3.638343,0.0799 -5.950961,0.5471 -11.074437,2.23744 -19.954731,11.01846 -22.350441,22.10056 -1.90547,8.814351 0.409416,18.026561 6.24739,24.861811 0.818248,0.95803 2.027433,2.19624 2.086787,2.13689 0.02851,-0.0285 0.130426,-2.03241 0.226483,-4.4531 z"
       id="path1955" /></g></svg>
