<?xml version="1.0" encoding="UTF-8"?>
<svg fill="white" xmlns="http://www.w3.org/2000/svg">
<path d="m24.092 1.2017-5.078-1.1719c-0.55175-0.12695-1.1181 0.16113-1.3427 0.6787l-2.3437 5.4686c-0.20507 0.47851-0.06836 1.04 0.33691 1.3672l2.9589 2.4218c-1.7578 3.745-4.829 6.8602-8.6522 8.6522l-2.4218-2.9589c-0.33202-0.40526-0.88865-0.54198-1.3672-0.33691l-5.4686 2.3437c-0.52245 0.22949-0.81053 0.79588-0.68358 1.3476l1.1719 5.078c0.12207 0.52733 0.59081 0.90818 1.1426 0.90818 12.505 0 22.656-10.132 22.656-22.656 0-0.54686-0.37597-1.0205-0.90818-1.1426z"/>
</svg>